<svg width="40" height="40" viewBox="0 0 40 40" fill="none" xmlns="http://www.w3.org/2000/svg">
<g id="Alien">
<path id="Vector" d="M17.1833 18.2167C18.8833 20.95 18.6333 24.1667 16.6 25.4667C14.5667 26.7334 11.5333 25.55 9.81668 22.8167C8.11668 20.0834 8.38334 16.8334 10.4167 15.5667C12.45 14.3 15.4833 15.4834 17.1833 18.2167ZM20 29.5834C23.3333 29.5834 24.1667 28.3334 24.1667 28.3334C24.1667 28.3334 23.3333 31.6667 20 31.6667C16.6667 31.6667 15.8333 28.3834 15.8333 28.3334C15.8333 28.3334 16.6667 29.5834 20 29.5834ZM29.5833 15.5667C31.6167 16.8334 31.8833 20.0834 30.1833 22.8167C28.4667 25.55 25.4333 26.7334 23.4 25.4667C21.3667 24.1667 21.1167 20.95 22.8167 18.2167C24.5167 15.4834 27.55 14.3 29.5833 15.5667ZM20 33.3334C24.1667 33.3334 33.3333 24.7667 33.3333 18.3334C33.3333 11.9 27.35 6.66671 20 6.66671C12.65 6.66671 6.66668 11.9 6.66668 18.3334C6.66668 24.7667 15.8333 33.3334 20 33.3334ZM20 3.33337C29.1667 3.33337 36.6667 10.0667 36.6667 18.3334C36.6667 25.1334 27.2 36.6667 20 36.6667C12.8 36.6667 3.33334 25.1334 3.33334 18.3334C3.33334 10.0667 10.8333 3.33337 20 3.33337Z" fill="black"/>
</g>
</svg>
