<svg width="40" height="40" viewBox="0 0 40 40" fill="none" xmlns="http://www.w3.org/2000/svg">
<path d="M36.6666 8.63337L17.65 27.6667L10.5833 20.6L12.9333 18.25L17.65 22.9667L34.3166 6.30004L36.6666 8.63337ZM20 33.3334C12.65 33.3334 6.66665 27.35 6.66665 20C6.66665 12.65 12.65 6.66671 20 6.66671C22.6166 6.66671 25.0666 7.43337 27.1333 8.75004L29.55 6.33337C26.7483 4.3804 23.4152 3.33335 20 3.33337C10.8 3.33337 3.33331 10.8 3.33331 20C3.33331 29.2 10.8 36.6667 20 36.6667C22.8833 36.6667 25.6 35.9334 27.9666 34.6334L25.4666 32.1334C23.8 32.9 21.95 33.3334 20 33.3334ZM31.6666 25H26.6666V28.3334H31.6666V33.3334H35V28.3334H40V25H35V20H31.6666V25Z" fill="black"/>
</svg>
