<svg width="102" height="92" viewBox="0 0 102 92" fill="none" xmlns="http://www.w3.org/2000/svg">
<circle cx="51" cy="30" r="30" fill="#EBB237"/>
<path d="M42.6666 36.6667C43.5833 36.6667 44.3333 37.4167 44.3333 38.3333C44.3333 40.1667 42.8333 41.6667 40.9999 41.6667C40.7166 41.6667 40.4499 41.6667 40.1666 41.5833C40.6833 40.6667 40.9999 39.5667 40.9999 38.3333C40.9999 37.4167 41.7499 36.6667 42.6666 36.6667ZM62.1166 15C61.6833 15 61.2666 15.1667 60.9333 15.4833L45.9999 30.4167L50.5833 35L65.5166 20.0667C66.1666 19.4167 66.1666 18.3333 65.5166 17.7167L63.2833 15.4833C62.9499 15.15 62.5333 15 62.1166 15ZM42.6666 33.3333C39.8999 33.3333 37.6666 35.5667 37.6666 38.3333C37.6666 40.5167 35.7333 41.6667 34.3333 41.6667C35.8666 43.7 38.4999 45 40.9999 45C44.6833 45 47.6666 42.0167 47.6666 38.3333C47.6666 35.5667 45.4333 33.3333 42.6666 33.3333Z" fill="#F9E8C3"/>
<path d="M17.14 80V78.064H20.004C20.7293 78.064 21.364 77.9147 21.908 77.616C22.452 77.3067 22.8733 76.8747 23.172 76.32C23.4813 75.7653 23.636 75.1093 23.636 74.352C23.636 73.616 23.4813 72.976 23.172 72.432C22.8627 71.8773 22.436 71.4507 21.892 71.152C21.348 70.8427 20.7187 70.688 20.004 70.688H17.092V68.752H20.036C20.868 68.752 21.636 68.8907 22.34 69.168C23.0547 69.4453 23.6733 69.84 24.196 70.352C24.7293 70.8533 25.14 71.4453 25.428 72.128C25.7267 72.8107 25.876 73.5573 25.876 74.368C25.876 75.1787 25.7267 75.9307 25.428 76.624C25.14 77.3067 24.7347 77.904 24.212 78.416C23.6893 78.9173 23.0707 79.3067 22.356 79.584C21.652 79.8613 20.8893 80 20.068 80H17.14ZM15.652 80V68.752H17.828V80H15.652ZM31.0771 80.16C30.2665 80.16 29.5465 79.9893 28.9171 79.648C28.2878 79.296 27.7865 78.816 27.4131 78.208C27.0505 77.6 26.8691 76.9067 26.8691 76.128C26.8691 75.36 27.0451 74.6773 27.3971 74.08C27.7598 73.472 28.2505 72.992 28.8691 72.64C29.4878 72.2773 30.1758 72.096 30.9331 72.096C31.6798 72.096 32.3358 72.2667 32.9011 72.608C33.4771 72.9387 33.9251 73.3973 34.2451 73.984C34.5758 74.56 34.7411 75.216 34.7411 75.952C34.7411 76.0907 34.7305 76.2347 34.7091 76.384C34.6985 76.5227 34.6718 76.6827 34.6291 76.864L28.1331 76.88V75.312L33.6531 75.296L32.8051 75.952C32.7838 75.4933 32.6985 75.1093 32.5491 74.8C32.4105 74.4907 32.2025 74.256 31.9251 74.096C31.6585 73.9253 31.3278 73.84 30.9331 73.84C30.5171 73.84 30.1545 73.936 29.8451 74.128C29.5358 74.3093 29.2958 74.5707 29.1251 74.912C28.9651 75.2427 28.8851 75.6373 28.8851 76.096C28.8851 76.5653 28.9705 76.976 29.1411 77.328C29.3225 77.6693 29.5785 77.936 29.9091 78.128C30.2398 78.3093 30.6238 78.4 31.0611 78.4C31.4558 78.4 31.8131 78.336 32.1331 78.208C32.4531 78.0693 32.7305 77.8667 32.9651 77.6L34.1971 78.832C33.8238 79.2693 33.3651 79.6 32.8211 79.824C32.2878 80.048 31.7065 80.16 31.0771 80.16ZM38.6934 80.176C38.256 80.176 37.824 80.1173 37.3974 80C36.9814 79.8827 36.5974 79.7227 36.2454 79.52C35.8934 79.3067 35.5894 79.0507 35.3334 78.752L36.5814 77.488C36.848 77.7867 37.1574 78.0107 37.5094 78.16C37.8614 78.3093 38.2507 78.384 38.6774 78.384C39.0187 78.384 39.2747 78.336 39.4454 78.24C39.6267 78.144 39.7174 78 39.7174 77.808C39.7174 77.5947 39.6214 77.4293 39.4294 77.312C39.248 77.1947 39.008 77.0987 38.7094 77.024C38.4107 76.9387 38.096 76.848 37.7654 76.752C37.4454 76.6453 37.136 76.512 36.8374 76.352C36.5387 76.1813 36.2934 75.952 36.1014 75.664C35.92 75.3653 35.8294 74.9813 35.8294 74.512C35.8294 74.0213 35.9467 73.5947 36.1814 73.232C36.4267 72.8693 36.7734 72.5867 37.2214 72.384C37.6694 72.1813 38.1974 72.08 38.8054 72.08C39.4454 72.08 40.0214 72.192 40.5334 72.416C41.056 72.64 41.488 72.976 41.8294 73.424L40.5654 74.688C40.3307 74.4 40.064 74.192 39.7654 74.064C39.4774 73.936 39.1627 73.872 38.8214 73.872C38.512 73.872 38.272 73.92 38.1014 74.016C37.9414 74.112 37.8614 74.2453 37.8614 74.416C37.8614 74.608 37.952 74.7573 38.1334 74.864C38.3254 74.9707 38.5707 75.0667 38.8694 75.152C39.168 75.2267 39.4774 75.3173 39.7974 75.424C40.128 75.52 40.4374 75.6587 40.7254 75.84C41.024 76.0213 41.264 76.2613 41.4454 76.56C41.6374 76.8587 41.7334 77.2427 41.7334 77.712C41.7334 78.4693 41.4614 79.072 40.9174 79.52C40.3734 79.9573 39.632 80.176 38.6934 80.176ZM43.1468 80V72.272H45.2588V80H43.1468ZM44.2028 71.024C43.8614 71.024 43.5788 70.912 43.3548 70.688C43.1308 70.4533 43.0188 70.1653 43.0188 69.824C43.0188 69.4933 43.1308 69.2107 43.3548 68.976C43.5788 68.7413 43.8614 68.624 44.2028 68.624C44.5548 68.624 44.8374 68.7413 45.0508 68.976C45.2748 69.2107 45.3868 69.4933 45.3868 69.824C45.3868 70.1653 45.2748 70.4533 45.0508 70.688C44.8374 70.912 44.5548 71.024 44.2028 71.024ZM50.3475 83.424C49.5262 83.424 48.8008 83.2747 48.1715 82.976C47.5422 82.688 47.0408 82.2773 46.6675 81.744L47.9955 80.416C48.2942 80.768 48.6248 81.0347 48.9875 81.216C49.3608 81.408 49.8088 81.504 50.3315 81.504C50.9822 81.504 51.4942 81.3387 51.8675 81.008C52.2515 80.6773 52.4435 80.2187 52.4435 79.632V77.696L52.7955 76L52.4595 74.304V72.272H54.5395V79.6C54.5395 80.368 54.3582 81.0347 53.9955 81.6C53.6435 82.176 53.1528 82.624 52.5235 82.944C51.8942 83.264 51.1688 83.424 50.3475 83.424ZM50.2515 79.792C49.5582 79.792 48.9342 79.6267 48.3795 79.296C47.8248 78.9547 47.3875 78.4907 47.0675 77.904C46.7582 77.3173 46.6035 76.6613 46.6035 75.936C46.6035 75.2107 46.7582 74.56 47.0675 73.984C47.3875 73.408 47.8248 72.9547 48.3795 72.624C48.9342 72.2827 49.5582 72.112 50.2515 72.112C50.8275 72.112 51.3342 72.224 51.7715 72.448C52.2195 72.672 52.5715 72.9813 52.8275 73.376C53.0835 73.76 53.2222 74.2133 53.2435 74.736V77.168C53.2222 77.68 53.0782 78.1387 52.8115 78.544C52.5555 78.9387 52.2035 79.248 51.7555 79.472C51.3182 79.6853 50.8168 79.792 50.2515 79.792ZM50.6675 77.888C51.0515 77.888 51.3822 77.808 51.6595 77.648C51.9475 77.4773 52.1715 77.248 52.3315 76.96C52.4915 76.6613 52.5715 76.3253 52.5715 75.952C52.5715 75.568 52.4915 75.232 52.3315 74.944C52.1715 74.656 51.9475 74.432 51.6595 74.272C51.3822 74.1013 51.0515 74.016 50.6675 74.016C50.2835 74.016 49.9475 74.1013 49.6595 74.272C49.3715 74.432 49.1475 74.6613 48.9875 74.96C48.8275 75.248 48.7475 75.5787 48.7475 75.952C48.7475 76.3147 48.8275 76.6453 48.9875 76.944C49.1475 77.232 49.3715 77.4613 49.6595 77.632C49.9475 77.8027 50.2835 77.888 50.6675 77.888ZM61.5811 80V75.568C61.5811 75.1093 61.4371 74.736 61.1491 74.448C60.8611 74.16 60.4878 74.016 60.0291 74.016C59.7305 74.016 59.4638 74.08 59.2291 74.208C58.9945 74.336 58.8078 74.5173 58.6691 74.752C58.5411 74.9867 58.4771 75.2587 58.4771 75.568L57.6611 75.152C57.6611 74.544 57.7891 74.016 58.0451 73.568C58.3118 73.1093 58.6745 72.752 59.1331 72.496C59.6025 72.24 60.1305 72.112 60.7171 72.112C61.2825 72.112 61.7891 72.256 62.2371 72.544C62.6851 72.8213 63.0371 73.1893 63.2931 73.648C63.5491 74.096 63.6771 74.5813 63.6771 75.104V80H61.5811ZM56.3811 80V72.272H58.4771V80H56.3811ZM69.0615 80.16C68.2508 80.16 67.5308 79.9893 66.9015 79.648C66.2722 79.296 65.7708 78.816 65.3975 78.208C65.0348 77.6 64.8535 76.9067 64.8535 76.128C64.8535 75.36 65.0295 74.6773 65.3815 74.08C65.7442 73.472 66.2348 72.992 66.8535 72.64C67.4722 72.2773 68.1602 72.096 68.9175 72.096C69.6642 72.096 70.3202 72.2667 70.8855 72.608C71.4615 72.9387 71.9095 73.3973 72.2295 73.984C72.5602 74.56 72.7255 75.216 72.7255 75.952C72.7255 76.0907 72.7148 76.2347 72.6935 76.384C72.6828 76.5227 72.6562 76.6827 72.6135 76.864L66.1175 76.88V75.312L71.6375 75.296L70.7895 75.952C70.7682 75.4933 70.6828 75.1093 70.5335 74.8C70.3948 74.4907 70.1868 74.256 69.9095 74.096C69.6428 73.9253 69.3122 73.84 68.9175 73.84C68.5015 73.84 68.1388 73.936 67.8295 74.128C67.5202 74.3093 67.2802 74.5707 67.1095 74.912C66.9495 75.2427 66.8695 75.6373 66.8695 76.096C66.8695 76.5653 66.9548 76.976 67.1255 77.328C67.3068 77.6693 67.5628 77.936 67.8935 78.128C68.2242 78.3093 68.6082 78.4 69.0455 78.4C69.4402 78.4 69.7975 78.336 70.1175 78.208C70.4375 78.0693 70.7148 77.8667 70.9495 77.6L72.1815 78.832C71.8082 79.2693 71.3495 79.6 70.8055 79.824C70.2722 80.048 69.6908 80.16 69.0615 80.16ZM74.0218 80V72.272H76.1178V80H74.0218ZM76.1178 75.728L75.3018 75.184C75.3978 74.2347 75.6751 73.488 76.1338 72.944C76.5924 72.3893 77.2538 72.112 78.1178 72.112C78.4911 72.112 78.8271 72.176 79.1258 72.304C79.4244 72.4213 79.6964 72.6187 79.9418 72.896L78.6298 74.4C78.5124 74.272 78.3684 74.176 78.1978 74.112C78.0378 74.048 77.8511 74.016 77.6378 74.016C77.1898 74.016 76.8218 74.16 76.5338 74.448C76.2564 74.7253 76.1178 75.152 76.1178 75.728ZM83.1621 80.176C82.7248 80.176 82.2928 80.1173 81.8661 80C81.4501 79.8827 81.0661 79.7227 80.7141 79.52C80.3621 79.3067 80.0581 79.0507 79.8021 78.752L81.0501 77.488C81.3168 77.7867 81.6261 78.0107 81.9781 78.16C82.3301 78.3093 82.7195 78.384 83.1461 78.384C83.4875 78.384 83.7435 78.336 83.9141 78.24C84.0955 78.144 84.1861 78 84.1861 77.808C84.1861 77.5947 84.0901 77.4293 83.8981 77.312C83.7168 77.1947 83.4768 77.0987 83.1781 77.024C82.8795 76.9387 82.5648 76.848 82.2341 76.752C81.9141 76.6453 81.6048 76.512 81.3061 76.352C81.0075 76.1813 80.7621 75.952 80.5701 75.664C80.3888 75.3653 80.2981 74.9813 80.2981 74.512C80.2981 74.0213 80.4155 73.5947 80.6501 73.232C80.8955 72.8693 81.2421 72.5867 81.6901 72.384C82.1381 72.1813 82.6661 72.08 83.2741 72.08C83.9141 72.08 84.4901 72.192 85.0021 72.416C85.5248 72.64 85.9568 72.976 86.2981 73.424L85.0341 74.688C84.7995 74.4 84.5328 74.192 84.2341 74.064C83.9461 73.936 83.6315 73.872 83.2901 73.872C82.9808 73.872 82.7408 73.92 82.5701 74.016C82.4101 74.112 82.3301 74.2453 82.3301 74.416C82.3301 74.608 82.4208 74.7573 82.6021 74.864C82.7941 74.9707 83.0395 75.0667 83.3381 75.152C83.6368 75.2267 83.9461 75.3173 84.2661 75.424C84.5968 75.52 84.9061 75.6587 85.1941 75.84C85.4928 76.0213 85.7328 76.2613 85.9141 76.56C86.1061 76.8587 86.2021 77.2427 86.2021 77.712C86.2021 78.4693 85.9301 79.072 85.3861 79.52C84.8421 79.9573 84.1008 80.176 83.1621 80.176Z" fill="black"/>
</svg>
