<svg width="102" height="104" viewBox="0 0 102 104" fill="none" xmlns="http://www.w3.org/2000/svg">
<circle cx="51" cy="30" r="30" fill="#ED4068"/>
<path d="M37.6666 43.3333C36.7499 43.3333 35.9649 43.0066 35.3116 42.3533C34.6583 41.7 34.3321 40.9155 34.3333 40V20C34.3333 19.0833 34.6599 18.2983 35.3133 17.645C35.9666 16.9916 36.751 16.6655 37.6666 16.6666H47.6666L50.9999 20H64.3333C65.2499 20 66.0349 20.3266 66.6883 20.98C67.3416 21.6333 67.6677 22.4177 67.6666 23.3333V28.8333C67.1388 28.6111 66.5899 28.465 66.0199 28.395C65.4499 28.325 64.8877 28.3322 64.3333 28.4166V23.3333H49.6249L46.2916 20H37.6666V40H51.1666L50.9999 40.1666V43.3333H37.6666ZM54.3333 46.6666V41.5416L63.5416 32.375C63.7916 32.125 64.0694 31.9444 64.3749 31.8333C64.6805 31.7222 64.986 31.6666 65.2916 31.6666C65.6249 31.6666 65.9444 31.7294 66.2499 31.855C66.5555 31.9805 66.8333 32.1677 67.0833 32.4166L68.6249 33.9583C68.8471 34.2083 69.021 34.4861 69.1466 34.7916C69.2721 35.0972 69.3344 35.4027 69.3333 35.7083C69.3333 36.0139 69.2777 36.3266 69.1666 36.6466C69.0555 36.9666 68.8749 37.2511 68.6249 37.5L59.4583 46.6666H54.3333ZM56.8333 44.1666H58.4166L63.4583 39.0833L62.7083 38.2916L61.9166 37.5416L56.8333 42.5833V44.1666ZM62.7083 38.2916L61.9166 37.5416L63.4583 39.0833L62.7083 38.2916Z" fill="#F8E1E6"/>
<path d="M27.6817 75.824V74.048H30.2897C30.631 74.048 30.9404 73.9787 31.2177 73.84C31.495 73.7013 31.7137 73.504 31.8737 73.248C32.0337 72.9813 32.1137 72.6613 32.1137 72.288C32.1137 71.9253 32.0337 71.6107 31.8737 71.344C31.7137 71.0773 31.495 70.8747 31.2177 70.736C30.9404 70.5973 30.631 70.528 30.2897 70.528H27.6817V68.752H30.5137C31.2284 68.752 31.8684 68.896 32.4337 69.184C33.0097 69.472 33.463 69.8827 33.7937 70.416C34.1244 70.9387 34.2897 71.5627 34.2897 72.288C34.2897 73.0133 34.1244 73.6427 33.7937 74.176C33.463 74.6987 33.0097 75.104 32.4337 75.392C31.8684 75.68 31.2284 75.824 30.5137 75.824H27.6817ZM26.0817 80V68.752H28.2577V80H26.0817ZM35.7171 80V72.272H37.8131V80H35.7171ZM37.8131 75.728L36.9971 75.184C37.0931 74.2347 37.3704 73.488 37.8291 72.944C38.2877 72.3893 38.9491 72.112 39.8131 72.112C40.1864 72.112 40.5224 72.176 40.8211 72.304C41.1197 72.4213 41.3917 72.6187 41.6371 72.896L40.3251 74.4C40.2077 74.272 40.0637 74.176 39.8931 74.112C39.7331 74.048 39.5464 74.016 39.3331 74.016C38.8851 74.016 38.5171 74.16 38.2291 74.448C37.9517 74.7253 37.8131 75.152 37.8131 75.728ZM45.7866 80.16C45.0079 80.16 44.3039 79.984 43.6746 79.632C43.0559 79.2693 42.5599 78.784 42.1866 78.176C41.8239 77.5573 41.6426 76.8693 41.6426 76.112C41.6426 75.3547 41.8239 74.6773 42.1866 74.08C42.5492 73.472 43.0452 72.992 43.6746 72.64C44.3039 72.2773 45.0026 72.096 45.7706 72.096C46.5599 72.096 47.2639 72.2773 47.8826 72.64C48.5119 72.992 49.0079 73.472 49.3706 74.08C49.7332 74.6773 49.9146 75.3547 49.9146 76.112C49.9146 76.8693 49.7332 77.5573 49.3706 78.176C49.0079 78.784 48.5119 79.2693 47.8826 79.632C47.2639 79.984 46.5652 80.16 45.7866 80.16ZM45.7706 78.208C46.1652 78.208 46.5119 78.1227 46.8106 77.952C47.1199 77.7707 47.3546 77.5253 47.5146 77.216C47.6852 76.896 47.7706 76.5333 47.7706 76.128C47.7706 75.7227 47.6852 75.3653 47.5146 75.056C47.3439 74.7467 47.1092 74.5067 46.8106 74.336C46.5119 74.1547 46.1652 74.064 45.7706 74.064C45.3866 74.064 45.0452 74.1547 44.7466 74.336C44.4479 74.5067 44.2132 74.7467 44.0426 75.056C43.8719 75.3653 43.7866 75.7227 43.7866 76.128C43.7866 76.5333 43.8719 76.896 44.0426 77.216C44.2132 77.5253 44.4479 77.7707 44.7466 77.952C45.0452 78.1227 45.3866 78.208 45.7706 78.208ZM50.6399 83.424C50.0853 83.424 49.6266 83.3333 49.2639 83.152C48.8906 82.9707 48.5546 82.7147 48.2559 82.384L49.5839 81.056C49.7119 81.216 49.8506 81.328 49.9999 81.392C50.1386 81.4667 50.3039 81.504 50.4959 81.504C50.7626 81.504 50.9866 81.424 51.1679 81.264C51.3493 81.104 51.4399 80.8693 51.4399 80.56V72.272H53.5359V80.528C53.5359 81.136 53.4026 81.6533 53.1359 82.08C52.8799 82.5173 52.5333 82.848 52.0959 83.072C51.6693 83.3067 51.1839 83.424 50.6399 83.424ZM52.5119 71.024C52.1706 71.024 51.8879 70.912 51.6639 70.688C51.4399 70.4533 51.3279 70.1653 51.3279 69.824C51.3279 69.4933 51.4399 69.2107 51.6639 68.976C51.8879 68.7413 52.1706 68.624 52.5119 68.624C52.8639 68.624 53.1466 68.7413 53.3599 68.976C53.5839 69.2107 53.6959 69.4933 53.6959 69.824C53.6959 70.1653 53.5839 70.4533 53.3599 70.688C53.1466 70.912 52.8639 71.024 52.5119 71.024ZM59.0693 80.16C58.2586 80.16 57.5386 79.9893 56.9093 79.648C56.28 79.296 55.7786 78.816 55.4053 78.208C55.0426 77.6 54.8613 76.9067 54.8613 76.128C54.8613 75.36 55.0373 74.6773 55.3893 74.08C55.752 73.472 56.2426 72.992 56.8613 72.64C57.48 72.2773 58.168 72.096 58.9253 72.096C59.672 72.096 60.328 72.2667 60.8933 72.608C61.4693 72.9387 61.9173 73.3973 62.2373 73.984C62.568 74.56 62.7333 75.216 62.7333 75.952C62.7333 76.0907 62.7226 76.2347 62.7013 76.384C62.6906 76.5227 62.664 76.6827 62.6213 76.864L56.1253 76.88V75.312L61.6453 75.296L60.7973 75.952C60.776 75.4933 60.6906 75.1093 60.5413 74.8C60.4026 74.4907 60.1946 74.256 59.9173 74.096C59.6506 73.9253 59.32 73.84 58.9253 73.84C58.5093 73.84 58.1466 73.936 57.8373 74.128C57.528 74.3093 57.288 74.5707 57.1173 74.912C56.9573 75.2427 56.8773 75.6373 56.8773 76.096C56.8773 76.5653 56.9626 76.976 57.1333 77.328C57.3146 77.6693 57.5706 77.936 57.9013 78.128C58.232 78.3093 58.616 78.4 59.0533 78.4C59.448 78.4 59.8053 78.336 60.1253 78.208C60.4453 78.0693 60.7226 77.8667 60.9573 77.6L62.1893 78.832C61.816 79.2693 61.3573 79.6 60.8133 79.824C60.28 80.048 59.6986 80.16 59.0693 80.16ZM67.6776 80.16C66.8882 80.16 66.1789 79.984 65.5496 79.632C64.9202 79.28 64.4242 78.8 64.0616 78.192C63.6989 77.584 63.5176 76.9013 63.5176 76.144C63.5176 75.376 63.6989 74.688 64.0616 74.08C64.4242 73.472 64.9202 72.992 65.5496 72.64C66.1896 72.2773 66.8989 72.096 67.6776 72.096C68.2856 72.096 68.8456 72.208 69.3576 72.432C69.8696 72.656 70.3122 72.976 70.6856 73.392L69.3416 74.752C69.1389 74.528 68.8936 74.3573 68.6056 74.24C68.3282 74.1227 68.0189 74.064 67.6776 74.064C67.2936 74.064 66.9469 74.1547 66.6376 74.336C66.3389 74.5067 66.0989 74.7467 65.9176 75.056C65.7469 75.3547 65.6616 75.712 65.6616 76.128C65.6616 76.5333 65.7469 76.896 65.9176 77.216C66.0989 77.5253 66.3389 77.7707 66.6376 77.952C66.9469 78.1227 67.2936 78.208 67.6776 78.208C68.0296 78.208 68.3442 78.1493 68.6216 78.032C68.9096 77.904 69.1549 77.7227 69.3576 77.488L70.7176 78.848C70.3229 79.2747 69.8696 79.6 69.3576 79.824C68.8456 80.048 68.2856 80.16 67.6776 80.16ZM72.9156 80V69.056H75.0116V80H72.9156ZM71.1076 74.112V72.272H76.8196V74.112H71.1076ZM15.6989 100V88.752H17.2349L21.7949 96.048H20.9149L25.4589 88.752H26.9949V100H24.8349V92.48L25.2509 92.608L22.0829 97.696H20.6109L17.4429 92.608L17.8749 92.48V100H15.6989ZM32.3006 100.16C31.5966 100.16 30.962 99.984 30.3966 99.632C29.8313 99.28 29.3886 98.8 29.0686 98.192C28.7486 97.584 28.5886 96.9013 28.5886 96.144C28.5886 95.376 28.7486 94.688 29.0686 94.08C29.3886 93.472 29.8313 92.992 30.3966 92.64C30.962 92.288 31.5966 92.112 32.3006 92.112C32.8553 92.112 33.3513 92.224 33.7886 92.448C34.226 92.672 34.5726 92.9867 34.8286 93.392C35.0953 93.7867 35.2393 94.2347 35.2606 94.736V97.52C35.2393 98.032 35.0953 98.4853 34.8286 98.88C34.5726 99.2747 34.226 99.5893 33.7886 99.824C33.3513 100.048 32.8553 100.16 32.3006 100.16ZM32.6846 98.224C33.2713 98.224 33.746 98.032 34.1086 97.648C34.4713 97.2533 34.6526 96.7467 34.6526 96.128C34.6526 95.7227 34.5673 95.3653 34.3966 95.056C34.2366 94.736 34.0073 94.4907 33.7086 94.32C33.4206 94.1387 33.0793 94.048 32.6846 94.048C32.3006 94.048 31.9593 94.1387 31.6606 94.32C31.3726 94.4907 31.1433 94.736 30.9726 95.056C30.8126 95.3653 30.7326 95.7227 30.7326 96.128C30.7326 96.544 30.8126 96.912 30.9726 97.232C31.1433 97.5413 31.3726 97.7867 31.6606 97.968C31.9593 98.1387 32.3006 98.224 32.6846 98.224ZM34.5406 100V97.92L34.8766 96.032L34.5406 94.176V92.272H36.6206V100H34.5406ZM43.6749 100V95.568C43.6749 95.1093 43.5309 94.736 43.2429 94.448C42.9549 94.16 42.5815 94.016 42.1229 94.016C41.8242 94.016 41.5575 94.08 41.3229 94.208C41.0882 94.336 40.9015 94.5173 40.7629 94.752C40.6349 94.9867 40.5709 95.2587 40.5709 95.568L39.7549 95.152C39.7549 94.544 39.8829 94.016 40.1389 93.568C40.4055 93.1093 40.7682 92.752 41.2269 92.496C41.6962 92.24 42.2242 92.112 42.8109 92.112C43.3762 92.112 43.8829 92.256 44.3309 92.544C44.7789 92.8213 45.1309 93.1893 45.3869 93.648C45.6429 94.096 45.7709 94.5813 45.7709 95.104V100H43.6749ZM38.4749 100V92.272H40.5709V100H38.4749ZM50.6913 100.16C49.9873 100.16 49.3526 99.984 48.7873 99.632C48.2219 99.28 47.7793 98.8 47.4593 98.192C47.1393 97.584 46.9793 96.9013 46.9793 96.144C46.9793 95.376 47.1393 94.688 47.4593 94.08C47.7793 93.472 48.2219 92.992 48.7873 92.64C49.3526 92.288 49.9873 92.112 50.6913 92.112C51.2459 92.112 51.7419 92.224 52.1793 92.448C52.6166 92.672 52.9633 92.9867 53.2193 93.392C53.4859 93.7867 53.6299 94.2347 53.6513 94.736V97.52C53.6299 98.032 53.4859 98.4853 53.2193 98.88C52.9633 99.2747 52.6166 99.5893 52.1793 99.824C51.7419 100.048 51.2459 100.16 50.6913 100.16ZM51.0753 98.224C51.6619 98.224 52.1366 98.032 52.4993 97.648C52.8619 97.2533 53.0433 96.7467 53.0433 96.128C53.0433 95.7227 52.9579 95.3653 52.7873 95.056C52.6273 94.736 52.3979 94.4907 52.0993 94.32C51.8113 94.1387 51.4699 94.048 51.0753 94.048C50.6913 94.048 50.3499 94.1387 50.0513 94.32C49.7633 94.4907 49.5339 94.736 49.3633 95.056C49.2033 95.3653 49.1233 95.7227 49.1233 96.128C49.1233 96.544 49.2033 96.912 49.3633 97.232C49.5339 97.5413 49.7633 97.7867 50.0513 97.968C50.3499 98.1387 50.6913 98.224 51.0753 98.224ZM52.9313 100V97.92L53.2673 96.032L52.9313 94.176V92.272H55.0113V100H52.9313ZM60.0975 103.424C59.2762 103.424 58.5508 103.275 57.9215 102.976C57.2922 102.688 56.7908 102.277 56.4175 101.744L57.7455 100.416C58.0442 100.768 58.3748 101.035 58.7375 101.216C59.1108 101.408 59.5588 101.504 60.0815 101.504C60.7322 101.504 61.2442 101.339 61.6175 101.008C62.0015 100.677 62.1935 100.219 62.1935 99.632V97.696L62.5455 96L62.2095 94.304V92.272H64.2895V99.6C64.2895 100.368 64.1082 101.035 63.7455 101.6C63.3935 102.176 62.9028 102.624 62.2735 102.944C61.6442 103.264 60.9188 103.424 60.0975 103.424ZM60.0015 99.792C59.3082 99.792 58.6842 99.6267 58.1295 99.296C57.5748 98.9547 57.1375 98.4907 56.8175 97.904C56.5082 97.3173 56.3535 96.6613 56.3535 95.936C56.3535 95.2107 56.5082 94.56 56.8175 93.984C57.1375 93.408 57.5748 92.9547 58.1295 92.624C58.6842 92.2827 59.3082 92.112 60.0015 92.112C60.5775 92.112 61.0842 92.224 61.5215 92.448C61.9695 92.672 62.3215 92.9813 62.5775 93.376C62.8335 93.76 62.9722 94.2133 62.9935 94.736V97.168C62.9722 97.68 62.8282 98.1387 62.5615 98.544C62.3055 98.9387 61.9535 99.248 61.5055 99.472C61.0682 99.6853 60.5668 99.792 60.0015 99.792ZM60.4175 97.888C60.8015 97.888 61.1322 97.808 61.4095 97.648C61.6975 97.4773 61.9215 97.248 62.0815 96.96C62.2415 96.6613 62.3215 96.3253 62.3215 95.952C62.3215 95.568 62.2415 95.232 62.0815 94.944C61.9215 94.656 61.6975 94.432 61.4095 94.272C61.1322 94.1013 60.8015 94.016 60.4175 94.016C60.0335 94.016 59.6975 94.1013 59.4095 94.272C59.1215 94.432 58.8975 94.6613 58.7375 94.96C58.5775 95.248 58.4975 95.5787 58.4975 95.952C58.4975 96.3147 58.5775 96.6453 58.7375 96.944C58.8975 97.232 59.1215 97.4613 59.4095 97.632C59.6975 97.8027 60.0335 97.888 60.4175 97.888ZM69.8271 100.16C69.0165 100.16 68.2965 99.9893 67.6671 99.648C67.0378 99.296 66.5365 98.816 66.1631 98.208C65.8005 97.6 65.6191 96.9067 65.6191 96.128C65.6191 95.36 65.7951 94.6773 66.1471 94.08C66.5098 93.472 67.0005 92.992 67.6191 92.64C68.2378 92.2773 68.9258 92.096 69.6831 92.096C70.4298 92.096 71.0858 92.2667 71.6511 92.608C72.2271 92.9387 72.6751 93.3973 72.9951 93.984C73.3258 94.56 73.4911 95.216 73.4911 95.952C73.4911 96.0907 73.4805 96.2347 73.4591 96.384C73.4485 96.5227 73.4218 96.6827 73.3791 96.864L66.8831 96.88V95.312L72.4031 95.296L71.5551 95.952C71.5338 95.4933 71.4485 95.1093 71.2991 94.8C71.1605 94.4907 70.9525 94.256 70.6751 94.096C70.4085 93.9253 70.0778 93.84 69.6831 93.84C69.2671 93.84 68.9045 93.936 68.5951 94.128C68.2858 94.3093 68.0458 94.5707 67.8751 94.912C67.7151 95.2427 67.6351 95.6373 67.6351 96.096C67.6351 96.5653 67.7205 96.976 67.8911 97.328C68.0725 97.6693 68.3285 97.936 68.6591 98.128C68.9898 98.3093 69.3738 98.4 69.8111 98.4C70.2058 98.4 70.5631 98.336 70.8831 98.208C71.2031 98.0693 71.4805 97.8667 71.7151 97.6L72.9471 98.832C72.5738 99.2693 72.1151 99.6 71.5711 99.824C71.0378 100.048 70.4565 100.16 69.8271 100.16ZM74.7874 100V92.272H76.8834V100H74.7874ZM76.8834 95.728L76.0674 95.184C76.1634 94.2347 76.4407 93.488 76.8994 92.944C77.358 92.3893 78.0194 92.112 78.8834 92.112C79.2567 92.112 79.5927 92.176 79.8914 92.304C80.19 92.4213 80.462 92.6187 80.7074 92.896L79.3954 94.4C79.278 94.272 79.134 94.176 78.9634 94.112C78.8034 94.048 78.6167 94.016 78.4034 94.016C77.9554 94.016 77.5874 94.16 77.2994 94.448C77.022 94.7253 76.8834 95.152 76.8834 95.728ZM83.9278 100.176C83.4904 100.176 83.0584 100.117 82.6318 100C82.2158 99.8827 81.8318 99.7227 81.4798 99.52C81.1278 99.3067 80.8238 99.0507 80.5678 98.752L81.8158 97.488C82.0824 97.7867 82.3918 98.0107 82.7438 98.16C83.0958 98.3093 83.4851 98.384 83.9118 98.384C84.2531 98.384 84.5091 98.336 84.6798 98.24C84.8611 98.144 84.9518 98 84.9518 97.808C84.9518 97.5947 84.8558 97.4293 84.6638 97.312C84.4824 97.1947 84.2424 97.0987 83.9438 97.024C83.6451 96.9387 83.3304 96.848 82.9998 96.752C82.6798 96.6453 82.3704 96.512 82.0718 96.352C81.7731 96.1813 81.5278 95.952 81.3358 95.664C81.1544 95.3653 81.0638 94.9813 81.0638 94.512C81.0638 94.0213 81.1811 93.5947 81.4158 93.232C81.6611 92.8693 82.0078 92.5867 82.4557 92.384C82.9038 92.1813 83.4318 92.08 84.0398 92.08C84.6798 92.08 85.2558 92.192 85.7678 92.416C86.2904 92.64 86.7224 92.976 87.0638 93.424L85.7998 94.688C85.5651 94.4 85.2984 94.192 84.9998 94.064C84.7118 93.936 84.3971 93.872 84.0558 93.872C83.7464 93.872 83.5064 93.92 83.3358 94.016C83.1758 94.112 83.0958 94.2453 83.0958 94.416C83.0958 94.608 83.1864 94.7573 83.3678 94.864C83.5598 94.9707 83.8051 95.0667 84.1038 95.152C84.4024 95.2267 84.7118 95.3173 85.0318 95.424C85.3624 95.52 85.6718 95.6587 85.9598 95.84C86.2584 96.0213 86.4984 96.2613 86.6798 96.56C86.8718 96.8587 86.9678 97.2427 86.9678 97.712C86.9678 98.4693 86.6958 99.072 86.1518 99.52C85.6078 99.9573 84.8664 100.176 83.9278 100.176Z" fill="black"/>
</svg>
