<svg width="102" height="92" viewBox="0 0 102 92" fill="none" xmlns="http://www.w3.org/2000/svg">
<circle cx="51" cy="30" r="29" stroke="#135279" stroke-width="2"/>
<path d="M34.3333 21.6667V15H67.6666V21.6667H64.3333V18.3333H37.6666V21.6667H34.3333ZM44.3333 45V41.6667H34.3333V35H37.6666V38.3333H64.3333V35H67.6666V41.6667H57.6666V45H44.3333ZM38.9999 28.3333L43.3333 24L40.9999 21.6667L34.3333 28.3333L40.9999 35L43.3333 32.6667L38.9999 28.3333ZM62.9999 28.3333L58.6666 32.6667L60.9999 35L67.6666 28.3333L60.9999 21.6667L58.6666 24L62.9999 28.3333Z" fill="#135279"/>
<path d="M12.804 82V80.624H15.892C16.7133 80.624 17.4333 80.448 18.052 80.096C18.6707 79.7333 19.1507 79.2373 19.492 78.608C19.844 77.9787 20.02 77.2533 20.02 76.432C20.02 75.6213 19.844 74.9013 19.492 74.272C19.14 73.6427 18.6547 73.152 18.036 72.8C17.4173 72.448 16.7027 72.272 15.892 72.272H12.82V70.896H15.924C16.7347 70.896 17.4813 71.0347 18.164 71.312C18.8573 71.5893 19.4547 71.9787 19.956 72.48C20.468 72.9813 20.8627 73.568 21.14 74.24C21.428 74.912 21.572 75.648 21.572 76.448C21.572 77.2373 21.428 77.9733 21.14 78.656C20.8627 79.328 20.4733 79.9147 19.972 80.416C19.4707 80.9173 18.8733 81.3067 18.18 81.584C17.4973 81.8613 16.756 82 15.956 82H12.804ZM11.812 82V70.896H13.316V82H11.812ZM26.9198 82.16C26.1624 82.16 25.4798 81.9893 24.8718 81.648C24.2638 81.296 23.7838 80.8213 23.4318 80.224C23.0798 79.6267 22.9038 78.9493 22.9038 78.192C22.9038 77.4453 23.0744 76.7733 23.4158 76.176C23.7678 75.5787 24.2371 75.1093 24.8238 74.768C25.4211 74.416 26.0878 74.24 26.8238 74.24C27.5278 74.24 28.1464 74.4 28.6798 74.72C29.2238 75.04 29.6451 75.4827 29.9438 76.048C30.2531 76.6133 30.4078 77.2533 30.4078 77.968C30.4078 78.0747 30.4024 78.192 30.3918 78.32C30.3811 78.4373 30.3598 78.576 30.3278 78.736H23.9118V77.536H29.5598L29.0318 78C29.0318 77.488 28.9411 77.056 28.7598 76.704C28.5784 76.3413 28.3224 76.064 27.9918 75.872C27.6611 75.6693 27.2611 75.568 26.7918 75.568C26.3011 75.568 25.8691 75.6747 25.4958 75.888C25.1224 76.1013 24.8344 76.4 24.6318 76.784C24.4291 77.168 24.3278 77.6213 24.3278 78.144C24.3278 78.6773 24.4344 79.1467 24.6478 79.552C24.8611 79.9467 25.1651 80.256 25.5598 80.48C25.9544 80.6933 26.4078 80.8 26.9198 80.8C27.3464 80.8 27.7358 80.7253 28.0878 80.576C28.4504 80.4267 28.7598 80.2027 29.0158 79.904L29.9438 80.848C29.5811 81.2747 29.1331 81.6 28.5998 81.824C28.0771 82.048 27.5171 82.16 26.9198 82.16ZM34.4609 82L30.9729 74.4H32.5729L35.3729 80.816H34.4449L37.2609 74.4H38.7969L35.3089 82H34.4609ZM43.2479 82.16C42.4905 82.16 41.8079 81.9893 41.1999 81.648C40.5919 81.296 40.1119 80.8213 39.7599 80.224C39.4079 79.6267 39.2319 78.9493 39.2319 78.192C39.2319 77.4453 39.4025 76.7733 39.7439 76.176C40.0959 75.5787 40.5652 75.1093 41.1519 74.768C41.7492 74.416 42.4159 74.24 43.1519 74.24C43.8559 74.24 44.4745 74.4 45.0079 74.72C45.5519 75.04 45.9732 75.4827 46.2719 76.048C46.5812 76.6133 46.7359 77.2533 46.7359 77.968C46.7359 78.0747 46.7305 78.192 46.7199 78.32C46.7092 78.4373 46.6879 78.576 46.6559 78.736H40.2399V77.536H45.8879L45.3599 78C45.3599 77.488 45.2692 77.056 45.0879 76.704C44.9065 76.3413 44.6505 76.064 44.3199 75.872C43.9892 75.6693 43.5892 75.568 43.1199 75.568C42.6292 75.568 42.1972 75.6747 41.8239 75.888C41.4505 76.1013 41.1625 76.4 40.9599 76.784C40.7572 77.168 40.6559 77.6213 40.6559 78.144C40.6559 78.6773 40.7625 79.1467 40.9759 79.552C41.1892 79.9467 41.4932 80.256 41.8879 80.48C42.2825 80.6933 42.7359 80.8 43.2479 80.8C43.6745 80.8 44.0639 80.7253 44.4159 80.576C44.7785 80.4267 45.0879 80.2027 45.3439 79.904L46.2719 80.848C45.9092 81.2747 45.4612 81.6 44.9279 81.824C44.4052 82.048 43.8452 82.16 43.2479 82.16ZM48.306 82V70.576H49.746V82H48.306ZM55.3249 82.16C54.5782 82.16 53.9062 81.984 53.3089 81.632C52.7115 81.28 52.2369 80.8053 51.8849 80.208C51.5329 79.6 51.3569 78.9227 51.3569 78.176C51.3569 77.44 51.5329 76.7787 51.8849 76.192C52.2369 75.5947 52.7115 75.12 53.3089 74.768C53.9062 74.416 54.5782 74.24 55.3249 74.24C56.0609 74.24 56.7275 74.416 57.3249 74.768C57.9329 75.1093 58.4129 75.5787 58.7649 76.176C59.1169 76.7733 59.2929 77.44 59.2929 78.176C59.2929 78.9227 59.1169 79.6 58.7649 80.208C58.4129 80.8053 57.9329 81.28 57.3249 81.632C56.7275 81.984 56.0609 82.16 55.3249 82.16ZM55.3249 80.768C55.8049 80.768 56.2315 80.656 56.6049 80.432C56.9782 80.208 57.2715 79.904 57.4849 79.52C57.6982 79.1253 57.8049 78.6773 57.8049 78.176C57.8049 77.6853 57.6929 77.248 57.4689 76.864C57.2555 76.48 56.9622 76.1813 56.5889 75.968C56.2262 75.744 55.8049 75.632 55.3249 75.632C54.8449 75.632 54.4182 75.744 54.0449 75.968C53.6715 76.1813 53.3782 76.48 53.1649 76.864C52.9515 77.248 52.8449 77.6853 52.8449 78.176C52.8449 78.6773 52.9515 79.1253 53.1649 79.52C53.3782 79.904 53.6715 80.208 54.0449 80.432C54.4182 80.656 54.8449 80.768 55.3249 80.768ZM64.9154 82.16C64.3394 82.16 63.8167 82.0427 63.3474 81.808C62.8887 81.5627 62.5207 81.2267 62.2434 80.8C61.966 80.3733 61.8114 79.888 61.7794 79.344V77.056C61.8114 76.5013 61.966 76.016 62.2434 75.6C62.5314 75.1733 62.9047 74.8427 63.3634 74.608C63.8327 74.3627 64.35 74.24 64.9154 74.24C65.6087 74.24 66.2327 74.416 66.7874 74.768C67.3527 75.12 67.7954 75.5947 68.1154 76.192C68.4354 76.7893 68.5954 77.4613 68.5954 78.208C68.5954 78.9547 68.4354 79.6267 68.1154 80.224C67.7954 80.8213 67.3527 81.296 66.7874 81.648C66.2327 81.9893 65.6087 82.16 64.9154 82.16ZM64.6754 80.8C65.1554 80.8 65.5767 80.688 65.9394 80.464C66.302 80.24 66.59 79.936 66.8034 79.552C67.0167 79.1573 67.1234 78.704 67.1234 78.192C67.1234 77.6907 67.0167 77.2427 66.8034 76.848C66.59 76.4533 66.302 76.1493 65.9394 75.936C65.5767 75.712 65.1607 75.6 64.6914 75.6C64.2114 75.6 63.79 75.712 63.4274 75.936C63.0647 76.1493 62.782 76.4533 62.5794 76.848C62.3767 77.2427 62.2754 77.696 62.2754 78.208C62.2754 78.7093 62.3714 79.1573 62.5634 79.552C62.766 79.936 63.0487 80.24 63.4114 80.464C63.7847 80.688 64.206 80.8 64.6754 80.8ZM60.9154 85.184V74.4H62.3554V76.4L62.0834 78.24L62.3554 80.096V85.184H60.9154ZM73.7479 82.16C72.9905 82.16 72.3079 81.9893 71.6999 81.648C71.0919 81.296 70.6119 80.8213 70.2599 80.224C69.9079 79.6267 69.7319 78.9493 69.7319 78.192C69.7319 77.4453 69.9025 76.7733 70.2439 76.176C70.5959 75.5787 71.0652 75.1093 71.6519 74.768C72.2492 74.416 72.9159 74.24 73.6519 74.24C74.3559 74.24 74.9745 74.4 75.5079 74.72C76.0519 75.04 76.4732 75.4827 76.7719 76.048C77.0812 76.6133 77.2359 77.2533 77.2359 77.968C77.2359 78.0747 77.2305 78.192 77.2199 78.32C77.2092 78.4373 77.1879 78.576 77.1559 78.736H70.7399V77.536H76.3879L75.8599 78C75.8599 77.488 75.7692 77.056 75.5879 76.704C75.4065 76.3413 75.1505 76.064 74.8199 75.872C74.4892 75.6693 74.0892 75.568 73.6199 75.568C73.1292 75.568 72.6972 75.6747 72.3239 75.888C71.9505 76.1013 71.6625 76.4 71.4599 76.784C71.2572 77.168 71.1559 77.6213 71.1559 78.144C71.1559 78.6773 71.2625 79.1467 71.4759 79.552C71.6892 79.9467 71.9932 80.256 72.3879 80.48C72.7825 80.6933 73.2359 80.8 73.7479 80.8C74.1745 80.8 74.5639 80.7253 74.9159 80.576C75.2785 80.4267 75.5879 80.2027 75.8439 79.904L76.7719 80.848C76.4092 81.2747 75.9612 81.6 75.4279 81.824C74.9052 82.048 74.3452 82.16 73.7479 82.16ZM78.806 82V74.4H80.246V82H78.806ZM80.246 77.664L79.702 77.424C79.702 76.4533 79.926 75.68 80.374 75.104C80.822 74.528 81.4673 74.24 82.31 74.24C82.694 74.24 83.0407 74.3093 83.35 74.448C83.6593 74.576 83.9473 74.7947 84.214 75.104L83.27 76.08C83.11 75.9093 82.934 75.7867 82.742 75.712C82.55 75.6373 82.326 75.6 82.07 75.6C81.5367 75.6 81.0993 75.7707 80.758 76.112C80.4167 76.4533 80.246 76.9707 80.246 77.664ZM87.472 82.16C87.0453 82.16 86.64 82.1067 86.256 82C85.8827 81.8827 85.536 81.7227 85.216 81.52C84.896 81.3067 84.6187 81.056 84.384 80.768L85.312 79.84C85.5893 80.1813 85.9093 80.4373 86.272 80.608C86.6347 80.768 87.04 80.848 87.488 80.848C87.936 80.848 88.2827 80.7733 88.528 80.624C88.7733 80.464 88.896 80.2453 88.896 79.968C88.896 79.6907 88.7947 79.4773 88.592 79.328C88.4 79.168 88.1493 79.04 87.84 78.944C87.5307 78.8373 87.2 78.736 86.848 78.64C86.5067 78.5333 86.1813 78.4 85.872 78.24C85.5627 78.08 85.3067 77.8613 85.104 77.584C84.912 77.3067 84.816 76.9387 84.816 76.48C84.816 76.0213 84.928 75.6267 85.152 75.296C85.376 74.9547 85.6853 74.6933 86.08 74.512C86.4853 74.3307 86.9707 74.24 87.536 74.24C88.1333 74.24 88.6613 74.3467 89.12 74.56C89.5893 74.7627 89.9733 75.072 90.272 75.488L89.344 76.416C89.1307 76.1387 88.864 75.9253 88.544 75.776C88.2347 75.6267 87.8827 75.552 87.488 75.552C87.072 75.552 86.752 75.6267 86.528 75.776C86.3147 75.9147 86.208 76.112 86.208 76.368C86.208 76.624 86.304 76.8213 86.496 76.96C86.688 77.0987 86.9387 77.216 87.248 77.312C87.568 77.408 87.8987 77.5093 88.24 77.616C88.5813 77.712 88.9067 77.8453 89.216 78.016C89.5253 78.1867 89.776 78.416 89.968 78.704C90.1707 78.992 90.272 79.3707 90.272 79.84C90.272 80.5547 90.016 81.12 89.504 81.536C89.0027 81.952 88.3253 82.16 87.472 82.16Z" fill="black"/>
</svg>
