<svg width="102" height="92" viewBox="0 0 102 92" fill="none" xmlns="http://www.w3.org/2000/svg">
<circle cx="51" cy="30" r="29" fill="#135279" stroke="#135279" stroke-width="2"/>
<path d="M34.3333 21.6667V15H67.6666V21.6667H64.3333V18.3333H37.6666V21.6667H34.3333ZM44.3333 45V41.6667H34.3333V35H37.6666V38.3333H64.3333V35H67.6666V41.6667H57.6666V45H44.3333ZM38.9999 28.3333L43.3333 24L40.9999 21.6667L34.3333 28.3333L40.9999 35L43.3333 32.6667L38.9999 28.3333ZM62.9999 28.3333L58.6666 32.6667L60.9999 35L67.6666 28.3333L60.9999 21.6667L58.6666 24L62.9999 28.3333Z" fill="#D7F7F9"/>
<path d="M12.64 80V78.064H15.504C16.2293 78.064 16.864 77.9147 17.408 77.616C17.952 77.3067 18.3733 76.8747 18.672 76.32C18.9813 75.7653 19.136 75.1093 19.136 74.352C19.136 73.616 18.9813 72.976 18.672 72.432C18.3627 71.8773 17.936 71.4507 17.392 71.152C16.848 70.8427 16.2187 70.688 15.504 70.688H12.592V68.752H15.536C16.368 68.752 17.136 68.8907 17.84 69.168C18.5547 69.4453 19.1733 69.84 19.696 70.352C20.2293 70.8533 20.64 71.4453 20.928 72.128C21.2267 72.8107 21.376 73.5573 21.376 74.368C21.376 75.1787 21.2267 75.9307 20.928 76.624C20.64 77.3067 20.2347 77.904 19.712 78.416C19.1893 78.9173 18.5707 79.3067 17.856 79.584C17.152 79.8613 16.3893 80 15.568 80H12.64ZM11.152 80V68.752H13.328V80H11.152ZM26.5771 80.16C25.7665 80.16 25.0465 79.9893 24.4171 79.648C23.7878 79.296 23.2865 78.816 22.9131 78.208C22.5505 77.6 22.3691 76.9067 22.3691 76.128C22.3691 75.36 22.5451 74.6773 22.8971 74.08C23.2598 73.472 23.7505 72.992 24.3691 72.64C24.9878 72.2773 25.6758 72.096 26.4331 72.096C27.1798 72.096 27.8358 72.2667 28.4011 72.608C28.9771 72.9387 29.4251 73.3973 29.7451 73.984C30.0758 74.56 30.2411 75.216 30.2411 75.952C30.2411 76.0907 30.2305 76.2347 30.2091 76.384C30.1985 76.5227 30.1718 76.6827 30.1291 76.864L23.6331 76.88V75.312L29.1531 75.296L28.3051 75.952C28.2838 75.4933 28.1985 75.1093 28.0491 74.8C27.9105 74.4907 27.7025 74.256 27.4251 74.096C27.1585 73.9253 26.8278 73.84 26.4331 73.84C26.0171 73.84 25.6545 73.936 25.3451 74.128C25.0358 74.3093 24.7958 74.5707 24.6251 74.912C24.4651 75.2427 24.3851 75.6373 24.3851 76.096C24.3851 76.5653 24.4705 76.976 24.6411 77.328C24.8225 77.6693 25.0785 77.936 25.4091 78.128C25.7398 78.3093 26.1238 78.4 26.5611 78.4C26.9558 78.4 27.3131 78.336 27.6331 78.208C27.9531 78.0693 28.2305 77.8667 28.4651 77.6L29.6971 78.832C29.3238 79.2693 28.8651 79.6 28.3211 79.824C27.7878 80.048 27.2065 80.16 26.5771 80.16ZM33.9244 80L30.5164 72.272H32.8204L35.2684 78.64H34.1324L36.5964 72.272H38.8204L35.4284 80H33.9244ZM43.249 80.16C42.4383 80.16 41.7183 79.9893 41.089 79.648C40.4597 79.296 39.9583 78.816 39.585 78.208C39.2223 77.6 39.041 76.9067 39.041 76.128C39.041 75.36 39.217 74.6773 39.569 74.08C39.9317 73.472 40.4223 72.992 41.041 72.64C41.6597 72.2773 42.3477 72.096 43.105 72.096C43.8517 72.096 44.5077 72.2667 45.073 72.608C45.649 72.9387 46.097 73.3973 46.417 73.984C46.7477 74.56 46.913 75.216 46.913 75.952C46.913 76.0907 46.9023 76.2347 46.881 76.384C46.8703 76.5227 46.8437 76.6827 46.801 76.864L40.305 76.88V75.312L45.825 75.296L44.977 75.952C44.9557 75.4933 44.8703 75.1093 44.721 74.8C44.5823 74.4907 44.3743 74.256 44.097 74.096C43.8303 73.9253 43.4997 73.84 43.105 73.84C42.689 73.84 42.3263 73.936 42.017 74.128C41.7077 74.3093 41.4677 74.5707 41.297 74.912C41.137 75.2427 41.057 75.6373 41.057 76.096C41.057 76.5653 41.1423 76.976 41.313 77.328C41.4943 77.6693 41.7503 77.936 42.081 78.128C42.4117 78.3093 42.7957 78.4 43.233 78.4C43.6277 78.4 43.985 78.336 44.305 78.208C44.625 78.0693 44.9023 77.8667 45.137 77.6L46.369 78.832C45.9957 79.2693 45.537 79.6 44.993 79.824C44.4597 80.048 43.8783 80.16 43.249 80.16ZM48.2093 80V68.432H50.3053V80H48.2093ZM55.7944 80.16C55.0157 80.16 54.3117 79.984 53.6824 79.632C53.0637 79.2693 52.5677 78.784 52.1944 78.176C51.8317 77.5573 51.6504 76.8693 51.6504 76.112C51.6504 75.3547 51.8317 74.6773 52.1944 74.08C52.557 73.472 53.053 72.992 53.6824 72.64C54.3117 72.2773 55.0104 72.096 55.7784 72.096C56.5677 72.096 57.2717 72.2773 57.8904 72.64C58.5197 72.992 59.0157 73.472 59.3784 74.08C59.741 74.6773 59.9224 75.3547 59.9224 76.112C59.9224 76.8693 59.741 77.5573 59.3784 78.176C59.0157 78.784 58.5197 79.2693 57.8904 79.632C57.2717 79.984 56.573 80.16 55.7944 80.16ZM55.7784 78.208C56.173 78.208 56.5197 78.1227 56.8184 77.952C57.1277 77.7707 57.3624 77.5253 57.5224 77.216C57.693 76.896 57.7784 76.5333 57.7784 76.128C57.7784 75.7227 57.693 75.3653 57.5224 75.056C57.3517 74.7467 57.117 74.5067 56.8184 74.336C56.5197 74.1547 56.173 74.064 55.7784 74.064C55.3944 74.064 55.053 74.1547 54.7544 74.336C54.4557 74.5067 54.221 74.7467 54.0504 75.056C53.8797 75.3653 53.7944 75.7227 53.7944 76.128C53.7944 76.5333 53.8797 76.896 54.0504 77.216C54.221 77.5253 54.4557 77.7707 54.7544 77.952C55.053 78.1227 55.3944 78.208 55.7784 78.208ZM65.5598 80.16C65.0051 80.16 64.5038 80.048 64.0558 79.824C63.6078 79.5893 63.2504 79.2747 62.9838 78.88C62.7171 78.4853 62.5731 78.032 62.5518 77.52V74.784C62.5731 74.272 62.7171 73.8187 62.9838 73.424C63.2611 73.0187 63.6184 72.6987 64.0558 72.464C64.5038 72.2293 65.0051 72.112 65.5598 72.112C66.2744 72.112 66.9144 72.288 67.4798 72.64C68.0451 72.992 68.4878 73.472 68.8078 74.08C69.1384 74.688 69.3038 75.376 69.3038 76.144C69.3038 76.9013 69.1384 77.584 68.8078 78.192C68.4878 78.8 68.0451 79.28 67.4798 79.632C66.9144 79.984 66.2744 80.16 65.5598 80.16ZM65.1918 78.224C65.5758 78.224 65.9171 78.1387 66.2158 77.968C66.5144 77.7867 66.7438 77.5413 66.9038 77.232C67.0744 76.912 67.1598 76.544 67.1598 76.128C67.1598 75.7227 67.0744 75.3653 66.9038 75.056C66.7438 74.736 66.5144 74.4907 66.2158 74.32C65.9171 74.1387 65.5758 74.048 65.1918 74.048C64.8184 74.048 64.4824 74.1387 64.1838 74.32C63.8851 74.4907 63.6504 74.736 63.4798 75.056C63.3198 75.3653 63.2398 75.7227 63.2398 76.128C63.2398 76.544 63.3198 76.912 63.4798 77.232C63.6504 77.5413 63.8798 77.7867 64.1678 77.968C64.4664 78.1387 64.8078 78.224 65.1918 78.224ZM61.2718 83.232V72.272H63.3678V74.304L63.0158 76.176L63.3518 78.048V83.232H61.2718ZM74.374 80.16C73.5633 80.16 72.8433 79.9893 72.214 79.648C71.5847 79.296 71.0833 78.816 70.71 78.208C70.3473 77.6 70.166 76.9067 70.166 76.128C70.166 75.36 70.342 74.6773 70.694 74.08C71.0567 73.472 71.5473 72.992 72.166 72.64C72.7847 72.2773 73.4727 72.096 74.23 72.096C74.9767 72.096 75.6327 72.2667 76.198 72.608C76.774 72.9387 77.222 73.3973 77.542 73.984C77.8727 74.56 78.038 75.216 78.038 75.952C78.038 76.0907 78.0273 76.2347 78.006 76.384C77.9953 76.5227 77.9687 76.6827 77.926 76.864L71.43 76.88V75.312L76.95 75.296L76.102 75.952C76.0807 75.4933 75.9953 75.1093 75.846 74.8C75.7073 74.4907 75.4993 74.256 75.222 74.096C74.9553 73.9253 74.6247 73.84 74.23 73.84C73.814 73.84 73.4513 73.936 73.142 74.128C72.8327 74.3093 72.5927 74.5707 72.422 74.912C72.262 75.2427 72.182 75.6373 72.182 76.096C72.182 76.5653 72.2673 76.976 72.438 77.328C72.6193 77.6693 72.8753 77.936 73.206 78.128C73.5367 78.3093 73.9207 78.4 74.358 78.4C74.7527 78.4 75.11 78.336 75.43 78.208C75.75 78.0693 76.0273 77.8667 76.262 77.6L77.494 78.832C77.1207 79.2693 76.662 79.6 76.118 79.824C75.5847 80.048 75.0033 80.16 74.374 80.16ZM79.3343 80V72.272H81.4303V80H79.3343ZM81.4303 75.728L80.6143 75.184C80.7103 74.2347 80.9876 73.488 81.4463 72.944C81.9049 72.3893 82.5663 72.112 83.4303 72.112C83.8036 72.112 84.1396 72.176 84.4383 72.304C84.7369 72.4213 85.0089 72.6187 85.2543 72.896L83.9423 74.4C83.8249 74.272 83.6809 74.176 83.5103 74.112C83.3503 74.048 83.1636 74.016 82.9503 74.016C82.5023 74.016 82.1343 74.16 81.8463 74.448C81.5689 74.7253 81.4303 75.152 81.4303 75.728ZM88.4746 80.176C88.0373 80.176 87.6053 80.1173 87.1786 80C86.7626 79.8827 86.3786 79.7227 86.0266 79.52C85.6746 79.3067 85.3706 79.0507 85.1146 78.752L86.3626 77.488C86.6293 77.7867 86.9386 78.0107 87.2906 78.16C87.6426 78.3093 88.032 78.384 88.4586 78.384C88.8 78.384 89.056 78.336 89.2266 78.24C89.408 78.144 89.4986 78 89.4986 77.808C89.4986 77.5947 89.4026 77.4293 89.2106 77.312C89.0293 77.1947 88.7893 77.0987 88.4906 77.024C88.192 76.9387 87.8773 76.848 87.5466 76.752C87.2266 76.6453 86.9173 76.512 86.6186 76.352C86.32 76.1813 86.0746 75.952 85.8826 75.664C85.7013 75.3653 85.6106 74.9813 85.6106 74.512C85.6106 74.0213 85.728 73.5947 85.9626 73.232C86.208 72.8693 86.5546 72.5867 87.0026 72.384C87.4506 72.1813 87.9786 72.08 88.5866 72.08C89.2266 72.08 89.8026 72.192 90.3146 72.416C90.8373 72.64 91.2693 72.976 91.6106 73.424L90.3466 74.688C90.112 74.4 89.8453 74.192 89.5466 74.064C89.2586 73.936 88.944 73.872 88.6026 73.872C88.2933 73.872 88.0533 73.92 87.8826 74.016C87.7226 74.112 87.6426 74.2453 87.6426 74.416C87.6426 74.608 87.7333 74.7573 87.9146 74.864C88.1066 74.9707 88.352 75.0667 88.6506 75.152C88.9493 75.2267 89.2586 75.3173 89.5786 75.424C89.9093 75.52 90.2186 75.6587 90.5066 75.84C90.8053 76.0213 91.0453 76.2613 91.2266 76.56C91.4186 76.8587 91.5146 77.2427 91.5146 77.712C91.5146 78.4693 91.2426 79.072 90.6986 79.52C90.1546 79.9573 89.4133 80.176 88.4746 80.176Z" fill="black"/>
</svg>
