<svg width="102" height="92" viewBox="0 0 102 92" fill="none" xmlns="http://www.w3.org/2000/svg">
<circle cx="51" cy="30" r="29" stroke="#F9E8C3" strokeWidth="2"/>
<path d="M42.6666 36.6667C43.5833 36.6667 44.3333 37.4167 44.3333 38.3333C44.3333 40.1667 42.8333 41.6667 40.9999 41.6667C40.7166 41.6667 40.4499 41.6667 40.1666 41.5833C40.6833 40.6667 40.9999 39.5667 40.9999 38.3333C40.9999 37.4167 41.7499 36.6667 42.6666 36.6667ZM62.1166 15C61.6833 15 61.2666 15.1667 60.9333 15.4833L45.9999 30.4167L50.5833 35L65.5166 20.0667C66.1666 19.4167 66.1666 18.3333 65.5166 17.7167L63.2833 15.4833C62.9499 15.15 62.5333 15 62.1166 15ZM42.6666 33.3333C39.8999 33.3333 37.6666 35.5667 37.6666 38.3333C37.6666 40.5167 35.7333 41.6667 34.3333 41.6667C35.8666 43.7 38.4999 45 40.9999 45C44.6833 45 47.6666 42.0167 47.6666 38.3333C47.6666 35.5667 45.4333 33.3333 42.6666 33.3333Z" fill="#F9E8C3"/>
<path d="M17.804 82V80.624H20.892C21.7133 80.624 22.4333 80.448 23.052 80.096C23.6707 79.7333 24.1507 79.2373 24.492 78.608C24.844 77.9787 25.02 77.2533 25.02 76.432C25.02 75.6213 24.844 74.9013 24.492 74.272C24.14 73.6427 23.6547 73.152 23.036 72.8C22.4173 72.448 21.7027 72.272 20.892 72.272H17.82V70.896H20.924C21.7347 70.896 22.4813 71.0347 23.164 71.312C23.8573 71.5893 24.4547 71.9787 24.956 72.48C25.468 72.9813 25.8627 73.568 26.14 74.24C26.428 74.912 26.572 75.648 26.572 76.448C26.572 77.2373 26.428 77.9733 26.14 78.656C25.8627 79.328 25.4733 79.9147 24.972 80.416C24.4707 80.9173 23.8733 81.3067 23.18 81.584C22.4973 81.8613 21.756 82 20.956 82H17.804ZM16.812 82V70.896H18.316V82H16.812ZM31.9198 82.16C31.1624 82.16 30.4798 81.9893 29.8718 81.648C29.2638 81.296 28.7838 80.8213 28.4318 80.224C28.0798 79.6267 27.9038 78.9493 27.9038 78.192C27.9038 77.4453 28.0744 76.7733 28.4158 76.176C28.7678 75.5787 29.2371 75.1093 29.8238 74.768C30.4211 74.416 31.0878 74.24 31.8238 74.24C32.5278 74.24 33.1464 74.4 33.6798 74.72C34.2238 75.04 34.6451 75.4827 34.9438 76.048C35.2531 76.6133 35.4078 77.2533 35.4078 77.968C35.4078 78.0747 35.4024 78.192 35.3918 78.32C35.3811 78.4373 35.3598 78.576 35.3278 78.736H28.9118V77.536H34.5598L34.0318 78C34.0318 77.488 33.9411 77.056 33.7598 76.704C33.5784 76.3413 33.3224 76.064 32.9918 75.872C32.6611 75.6693 32.2611 75.568 31.7918 75.568C31.3011 75.568 30.8691 75.6747 30.4958 75.888C30.1224 76.1013 29.8344 76.4 29.6318 76.784C29.4291 77.168 29.3278 77.6213 29.3278 78.144C29.3278 78.6773 29.4344 79.1467 29.6478 79.552C29.8611 79.9467 30.1651 80.256 30.5598 80.48C30.9544 80.6933 31.4078 80.8 31.9198 80.8C32.3464 80.8 32.7358 80.7253 33.0878 80.576C33.4504 80.4267 33.7598 80.2027 34.0158 79.904L34.9438 80.848C34.5811 81.2747 34.1331 81.6 33.5998 81.824C33.0771 82.048 32.5171 82.16 31.9198 82.16ZM39.3939 82.16C38.9672 82.16 38.5619 82.1067 38.1779 82C37.8045 81.8827 37.4579 81.7227 37.1379 81.52C36.8179 81.3067 36.5405 81.056 36.3059 80.768L37.2339 79.84C37.5112 80.1813 37.8312 80.4373 38.1939 80.608C38.5565 80.768 38.9619 80.848 39.4099 80.848C39.8579 80.848 40.2045 80.7733 40.4499 80.624C40.6952 80.464 40.8179 80.2453 40.8179 79.968C40.8179 79.6907 40.7165 79.4773 40.5139 79.328C40.3219 79.168 40.0712 79.04 39.7619 78.944C39.4525 78.8373 39.1219 78.736 38.7699 78.64C38.4285 78.5333 38.1032 78.4 37.7939 78.24C37.4845 78.08 37.2285 77.8613 37.0259 77.584C36.8339 77.3067 36.7379 76.9387 36.7379 76.48C36.7379 76.0213 36.8499 75.6267 37.0739 75.296C37.2979 74.9547 37.6072 74.6933 38.0019 74.512C38.4072 74.3307 38.8925 74.24 39.4579 74.24C40.0552 74.24 40.5832 74.3467 41.0419 74.56C41.5112 74.7627 41.8952 75.072 42.1939 75.488L41.2659 76.416C41.0525 76.1387 40.7859 75.9253 40.4659 75.776C40.1565 75.6267 39.8045 75.552 39.4099 75.552C38.9939 75.552 38.6739 75.6267 38.4499 75.776C38.2365 75.9147 38.1299 76.112 38.1299 76.368C38.1299 76.624 38.2259 76.8213 38.4179 76.96C38.6099 77.0987 38.8605 77.216 39.1699 77.312C39.4899 77.408 39.8205 77.5093 40.1619 77.616C40.5032 77.712 40.8285 77.8453 41.1379 78.016C41.4472 78.1867 41.6979 78.416 41.8899 78.704C42.0925 78.992 42.1939 79.3707 42.1939 79.84C42.1939 80.5547 41.9379 81.12 41.4259 81.536C40.9245 81.952 40.2472 82.16 39.3939 82.16ZM43.822 82V74.4H45.262V82H43.822ZM44.542 72.88C44.2753 72.88 44.0567 72.7947 43.886 72.624C43.7153 72.4427 43.63 72.2187 43.63 71.952C43.63 71.696 43.7153 71.4827 43.886 71.312C44.0567 71.1307 44.2753 71.04 44.542 71.04C44.8087 71.04 45.0273 71.1307 45.198 71.312C45.3687 71.4827 45.454 71.696 45.454 71.952C45.454 72.2187 45.3687 72.4427 45.198 72.624C45.0273 72.7947 44.8087 72.88 44.542 72.88ZM50.5361 85.344C49.7575 85.344 49.0641 85.2 48.4561 84.912C47.8588 84.624 47.3788 84.2187 47.0161 83.696L47.9441 82.752C48.2535 83.1467 48.6215 83.4453 49.0481 83.648C49.4748 83.8613 49.9815 83.968 50.5681 83.968C51.3468 83.968 51.9601 83.76 52.4081 83.344C52.8668 82.9387 53.0961 82.3893 53.0961 81.696V79.808L53.3521 78.096L53.0961 76.4V74.4H54.5361V81.696C54.5361 82.4213 54.3655 83.056 54.0241 83.6C53.6935 84.144 53.2241 84.5707 52.6161 84.88C52.0188 85.1893 51.3255 85.344 50.5361 85.344ZM50.5361 81.872C49.8428 81.872 49.2188 81.7067 48.6641 81.376C48.1201 81.0453 47.6881 80.592 47.3681 80.016C47.0481 79.4293 46.8881 78.7733 46.8881 78.048C46.8881 77.3227 47.0481 76.6773 47.3681 76.112C47.6881 75.536 48.1201 75.0827 48.6641 74.752C49.2188 74.4107 49.8428 74.24 50.5361 74.24C51.1335 74.24 51.6615 74.3573 52.1201 74.592C52.5788 74.8267 52.9415 75.1573 53.2081 75.584C53.4855 76 53.6348 76.4907 53.6561 77.056V79.072C53.6241 79.6267 53.4695 80.1173 53.1921 80.544C52.9255 80.96 52.5628 81.2853 52.1041 81.52C51.6455 81.7547 51.1228 81.872 50.5361 81.872ZM50.8241 80.512C51.2935 80.512 51.7041 80.4107 52.0561 80.208C52.4188 80.0053 52.6961 79.7227 52.8881 79.36C53.0801 78.9867 53.1761 78.5547 53.1761 78.064C53.1761 77.5733 53.0748 77.1467 52.8721 76.784C52.6801 76.4107 52.4081 76.1227 52.0561 75.92C51.7041 75.7067 51.2881 75.6 50.8081 75.6C50.3281 75.6 49.9068 75.7067 49.5441 75.92C49.1815 76.1227 48.8935 76.4107 48.6801 76.784C48.4775 77.1467 48.3761 77.568 48.3761 78.048C48.3761 78.528 48.4775 78.9547 48.6801 79.328C48.8935 79.7013 49.1815 79.9947 49.5441 80.208C49.9175 80.4107 50.3441 80.512 50.8241 80.512ZM62.0258 82V77.568C62.0258 76.992 61.8444 76.5173 61.4818 76.144C61.1191 75.7707 60.6498 75.584 60.0738 75.584C59.6898 75.584 59.3484 75.6693 59.0498 75.84C58.7511 76.0107 58.5164 76.2453 58.3458 76.544C58.1751 76.8427 58.0898 77.184 58.0898 77.568L57.4978 77.232C57.4978 76.656 57.6258 76.144 57.8818 75.696C58.1378 75.248 58.4951 74.896 58.9538 74.64C59.4124 74.3733 59.9298 74.24 60.5058 74.24C61.0818 74.24 61.5884 74.384 62.0258 74.672C62.4738 74.96 62.8258 75.3387 63.0818 75.808C63.3378 76.2667 63.4658 76.7573 63.4658 77.28V82H62.0258ZM56.6497 82V74.4H58.0898V82H56.6497ZM68.9354 82.16C68.178 82.16 67.4954 81.9893 66.8874 81.648C66.2794 81.296 65.7994 80.8213 65.4474 80.224C65.0954 79.6267 64.9194 78.9493 64.9194 78.192C64.9194 77.4453 65.09 76.7733 65.4314 76.176C65.7834 75.5787 66.2527 75.1093 66.8394 74.768C67.4367 74.416 68.1034 74.24 68.8394 74.24C69.5434 74.24 70.162 74.4 70.6954 74.72C71.2394 75.04 71.6607 75.4827 71.9594 76.048C72.2687 76.6133 72.4234 77.2533 72.4234 77.968C72.4234 78.0747 72.418 78.192 72.4074 78.32C72.3967 78.4373 72.3754 78.576 72.3434 78.736H65.9274V77.536H71.5754L71.0474 78C71.0474 77.488 70.9567 77.056 70.7754 76.704C70.594 76.3413 70.338 76.064 70.0074 75.872C69.6767 75.6693 69.2767 75.568 68.8074 75.568C68.3167 75.568 67.8847 75.6747 67.5114 75.888C67.138 76.1013 66.85 76.4 66.6474 76.784C66.4447 77.168 66.3434 77.6213 66.3434 78.144C66.3434 78.6773 66.45 79.1467 66.6634 79.552C66.8767 79.9467 67.1807 80.256 67.5754 80.48C67.97 80.6933 68.4234 80.8 68.9354 80.8C69.362 80.8 69.7514 80.7253 70.1034 80.576C70.466 80.4267 70.7754 80.2027 71.0314 79.904L71.9594 80.848C71.5967 81.2747 71.1487 81.6 70.6154 81.824C70.0927 82.048 69.5327 82.16 68.9354 82.16ZM73.9935 82V74.4H75.4335V82H73.9935ZM75.4335 77.664L74.8895 77.424C74.8895 76.4533 75.1135 75.68 75.5615 75.104C76.0095 74.528 76.6548 74.24 77.4975 74.24C77.8815 74.24 78.2282 74.3093 78.5375 74.448C78.8468 74.576 79.1348 74.7947 79.4015 75.104L78.4575 76.08C78.2975 75.9093 78.1215 75.7867 77.9295 75.712C77.7375 75.6373 77.5135 75.6 77.2575 75.6C76.7242 75.6 76.2868 75.7707 75.9455 76.112C75.6042 76.4533 75.4335 76.9707 75.4335 77.664ZM82.6595 82.16C82.2328 82.16 81.8275 82.1067 81.4435 82C81.0702 81.8827 80.7235 81.7227 80.4035 81.52C80.0835 81.3067 79.8062 81.056 79.5715 80.768L80.4995 79.84C80.7768 80.1813 81.0968 80.4373 81.4595 80.608C81.8222 80.768 82.2275 80.848 82.6755 80.848C83.1235 80.848 83.4702 80.7733 83.7155 80.624C83.9608 80.464 84.0835 80.2453 84.0835 79.968C84.0835 79.6907 83.9822 79.4773 83.7795 79.328C83.5875 79.168 83.3368 79.04 83.0275 78.944C82.7182 78.8373 82.3875 78.736 82.0355 78.64C81.6942 78.5333 81.3688 78.4 81.0595 78.24C80.7502 78.08 80.4942 77.8613 80.2915 77.584C80.0995 77.3067 80.0035 76.9387 80.0035 76.48C80.0035 76.0213 80.1155 75.6267 80.3395 75.296C80.5635 74.9547 80.8728 74.6933 81.2675 74.512C81.6728 74.3307 82.1582 74.24 82.7235 74.24C83.3208 74.24 83.8488 74.3467 84.3075 74.56C84.7768 74.7627 85.1608 75.072 85.4595 75.488L84.5315 76.416C84.3182 76.1387 84.0515 75.9253 83.7315 75.776C83.4222 75.6267 83.0702 75.552 82.6755 75.552C82.2595 75.552 81.9395 75.6267 81.7155 75.776C81.5022 75.9147 81.3955 76.112 81.3955 76.368C81.3955 76.624 81.4915 76.8213 81.6835 76.96C81.8755 77.0987 82.1262 77.216 82.4355 77.312C82.7555 77.408 83.0862 77.5093 83.4275 77.616C83.7688 77.712 84.0942 77.8453 84.4035 78.016C84.7128 78.1867 84.9635 78.416 85.1555 78.704C85.3582 78.992 85.4595 79.3707 85.4595 79.84C85.4595 80.5547 85.2035 81.12 84.6915 81.536C84.1902 81.952 83.5128 82.16 82.6595 82.16Z" fill="black"/>
</svg>
