<svg width="96" height="92" viewBox="0 0 96 92" fill="none" xmlns="http://www.w3.org/2000/svg">
<path d="M35.5 22.5H58M35.5 32.5H58M35.5 42.5H48M73 30C73 43.8075 61.8075 55 48 55H23V30C23 16.1925 34.1925 5 48 5C61.8075 5 73 16.1925 73 30Z" stroke="#ECAFBD" strokeWidth="3" strokeLinecap="round" strokeLinejoin="round"/>
<path d="M14.312 82V70.896H15.368L20.072 78.624H19.352L24.056 70.896H25.112V82H23.608V73.536L23.96 73.632L20.248 79.728H19.192L15.48 73.632L15.816 73.536V82H14.312ZM30.9979 82.16C30.2405 82.16 29.5579 81.9893 28.9499 81.648C28.3419 81.296 27.8619 80.8213 27.5099 80.224C27.1579 79.6267 26.9819 78.9493 26.9819 78.192C26.9819 77.4453 27.1525 76.7733 27.4939 76.176C27.8459 75.5787 28.3152 75.1093 28.9019 74.768C29.4992 74.416 30.1659 74.24 30.9019 74.24C31.6059 74.24 32.2245 74.4 32.7579 74.72C33.3019 75.04 33.7232 75.4827 34.0219 76.048C34.3312 76.6133 34.4859 77.2533 34.4859 77.968C34.4859 78.0747 34.4805 78.192 34.4699 78.32C34.4592 78.4373 34.4379 78.576 34.4059 78.736H27.9899V77.536H33.6379L33.1099 78C33.1099 77.488 33.0192 77.056 32.8379 76.704C32.6565 76.3413 32.4005 76.064 32.0699 75.872C31.7392 75.6693 31.3392 75.568 30.8699 75.568C30.3792 75.568 29.9472 75.6747 29.5739 75.888C29.2005 76.1013 28.9125 76.4 28.7099 76.784C28.5072 77.168 28.4059 77.6213 28.4059 78.144C28.4059 78.6773 28.5125 79.1467 28.7259 79.552C28.9392 79.9467 29.2432 80.256 29.6379 80.48C30.0325 80.6933 30.4859 80.8 30.9979 80.8C31.4245 80.8 31.8139 80.7253 32.1659 80.576C32.5285 80.4267 32.8379 80.2027 33.0939 79.904L34.0219 80.848C33.6592 81.2747 33.2112 81.6 32.6779 81.824C32.1552 82.048 31.5952 82.16 30.9979 82.16ZM38.472 82.16C38.0453 82.16 37.64 82.1067 37.256 82C36.8827 81.8827 36.536 81.7227 36.216 81.52C35.896 81.3067 35.6187 81.056 35.384 80.768L36.312 79.84C36.5893 80.1813 36.9093 80.4373 37.272 80.608C37.6347 80.768 38.04 80.848 38.488 80.848C38.936 80.848 39.2827 80.7733 39.528 80.624C39.7733 80.464 39.896 80.2453 39.896 79.968C39.896 79.6907 39.7947 79.4773 39.592 79.328C39.4 79.168 39.1493 79.04 38.84 78.944C38.5307 78.8373 38.2 78.736 37.848 78.64C37.5067 78.5333 37.1813 78.4 36.872 78.24C36.5627 78.08 36.3067 77.8613 36.104 77.584C35.912 77.3067 35.816 76.9387 35.816 76.48C35.816 76.0213 35.928 75.6267 36.152 75.296C36.376 74.9547 36.6853 74.6933 37.08 74.512C37.4853 74.3307 37.9707 74.24 38.536 74.24C39.1333 74.24 39.6613 74.3467 40.12 74.56C40.5893 74.7627 40.9733 75.072 41.272 75.488L40.344 76.416C40.1307 76.1387 39.864 75.9253 39.544 75.776C39.2347 75.6267 38.8827 75.552 38.488 75.552C38.072 75.552 37.752 75.6267 37.528 75.776C37.3147 75.9147 37.208 76.112 37.208 76.368C37.208 76.624 37.304 76.8213 37.496 76.96C37.688 77.0987 37.9387 77.216 38.248 77.312C38.568 77.408 38.8987 77.5093 39.24 77.616C39.5813 77.712 39.9067 77.8453 40.216 78.016C40.5253 78.1867 40.776 78.416 40.968 78.704C41.1707 78.992 41.272 79.3707 41.272 79.84C41.272 80.5547 41.016 81.12 40.504 81.536C40.0027 81.952 39.3253 82.16 38.472 82.16ZM45.3001 82.16C44.8735 82.16 44.4681 82.1067 44.0841 82C43.7108 81.8827 43.3641 81.7227 43.0441 81.52C42.7241 81.3067 42.4468 81.056 42.2121 80.768L43.1401 79.84C43.4175 80.1813 43.7375 80.4373 44.1001 80.608C44.4628 80.768 44.8681 80.848 45.3161 80.848C45.7641 80.848 46.1108 80.7733 46.3561 80.624C46.6015 80.464 46.7241 80.2453 46.7241 79.968C46.7241 79.6907 46.6228 79.4773 46.4201 79.328C46.2281 79.168 45.9775 79.04 45.6681 78.944C45.3588 78.8373 45.0281 78.736 44.6761 78.64C44.3348 78.5333 44.0095 78.4 43.7001 78.24C43.3908 78.08 43.1348 77.8613 42.9321 77.584C42.7401 77.3067 42.6441 76.9387 42.6441 76.48C42.6441 76.0213 42.7561 75.6267 42.9801 75.296C43.2041 74.9547 43.5135 74.6933 43.9081 74.512C44.3135 74.3307 44.7988 74.24 45.3641 74.24C45.9615 74.24 46.4895 74.3467 46.9481 74.56C47.4175 74.7627 47.8015 75.072 48.1001 75.488L47.1721 76.416C46.9588 76.1387 46.6921 75.9253 46.3721 75.776C46.0628 75.6267 45.7108 75.552 45.3161 75.552C44.9001 75.552 44.5801 75.6267 44.3561 75.776C44.1428 75.9147 44.0361 76.112 44.0361 76.368C44.0361 76.624 44.1321 76.8213 44.3241 76.96C44.5161 77.0987 44.7668 77.216 45.0761 77.312C45.3961 77.408 45.7268 77.5093 46.0681 77.616C46.4095 77.712 46.7348 77.8453 47.0441 78.016C47.3535 78.1867 47.6041 78.416 47.7961 78.704C47.9988 78.992 48.1001 79.3707 48.1001 79.84C48.1001 80.5547 47.8441 81.12 47.3321 81.536C46.8308 81.952 46.1535 82.16 45.3001 82.16ZM52.9443 82.16C52.2509 82.16 51.6216 81.9893 51.0563 81.648C50.4909 81.296 50.0429 80.8213 49.7122 80.224C49.3923 79.6267 49.2323 78.9547 49.2323 78.208C49.2323 77.4613 49.3923 76.7893 49.7122 76.192C50.0429 75.5947 50.4856 75.12 51.0403 74.768C51.6056 74.416 52.2403 74.24 52.9443 74.24C53.5203 74.24 54.0323 74.3627 54.4803 74.608C54.9389 74.8427 55.3069 75.1733 55.5843 75.6C55.8616 76.016 56.0163 76.5013 56.0483 77.056V79.344C56.0163 79.888 55.8616 80.3733 55.5843 80.8C55.3176 81.2267 54.9549 81.5627 54.4963 81.808C54.0483 82.0427 53.5309 82.16 52.9443 82.16ZM53.1843 80.8C53.8989 80.8 54.4749 80.56 54.9123 80.08C55.3496 79.5893 55.5683 78.9653 55.5683 78.208C55.5683 77.6853 55.4669 77.232 55.2643 76.848C55.0723 76.4533 54.7949 76.1493 54.4323 75.936C54.0696 75.712 53.6483 75.6 53.1683 75.6C52.6883 75.6 52.2616 75.712 51.8883 75.936C51.5256 76.16 51.2376 76.4693 51.0243 76.864C50.8216 77.248 50.7203 77.6907 50.7203 78.192C50.7203 78.704 50.8216 79.1573 51.0243 79.552C51.2376 79.936 51.5309 80.24 51.9043 80.464C52.2776 80.688 52.7043 80.8 53.1843 80.8ZM55.4723 82V79.952L55.7443 78.096L55.4723 76.256V74.4H56.9283V82H55.4723ZM62.1768 85.344C61.3981 85.344 60.7048 85.2 60.0968 84.912C59.4994 84.624 59.0194 84.2187 58.6568 83.696L59.5848 82.752C59.8941 83.1467 60.2621 83.4453 60.6888 83.648C61.1154 83.8613 61.6221 83.968 62.2088 83.968C62.9874 83.968 63.6008 83.76 64.0488 83.344C64.5074 82.9387 64.7368 82.3893 64.7368 81.696V79.808L64.9928 78.096L64.7368 76.4V74.4H66.1768V81.696C66.1768 82.4213 66.0061 83.056 65.6648 83.6C65.3341 84.144 64.8648 84.5707 64.2568 84.88C63.6594 85.1893 62.9661 85.344 62.1768 85.344ZM62.1768 81.872C61.4834 81.872 60.8594 81.7067 60.3048 81.376C59.7608 81.0453 59.3288 80.592 59.0088 80.016C58.6888 79.4293 58.5288 78.7733 58.5288 78.048C58.5288 77.3227 58.6888 76.6773 59.0088 76.112C59.3288 75.536 59.7608 75.0827 60.3048 74.752C60.8594 74.4107 61.4834 74.24 62.1768 74.24C62.7741 74.24 63.3021 74.3573 63.7608 74.592C64.2194 74.8267 64.5821 75.1573 64.8488 75.584C65.1261 76 65.2754 76.4907 65.2968 77.056V79.072C65.2648 79.6267 65.1101 80.1173 64.8328 80.544C64.5661 80.96 64.2034 81.2853 63.7448 81.52C63.2861 81.7547 62.7634 81.872 62.1768 81.872ZM62.4648 80.512C62.9341 80.512 63.3448 80.4107 63.6968 80.208C64.0594 80.0053 64.3368 79.7227 64.5288 79.36C64.7208 78.9867 64.8168 78.5547 64.8168 78.064C64.8168 77.5733 64.7154 77.1467 64.5128 76.784C64.3208 76.4107 64.0488 76.1227 63.6968 75.92C63.3448 75.7067 62.9288 75.6 62.4488 75.6C61.9688 75.6 61.5474 75.7067 61.1848 75.92C60.8221 76.1227 60.5341 76.4107 60.3207 76.784C60.1181 77.1467 60.0168 77.568 60.0168 78.048C60.0168 78.528 60.1181 78.9547 60.3207 79.328C60.5341 79.7013 60.8221 79.9947 61.1848 80.208C61.5581 80.4107 61.9848 80.512 62.4648 80.512ZM71.8104 82.16C71.053 82.16 70.3704 81.9893 69.7624 81.648C69.1544 81.296 68.6744 80.8213 68.3224 80.224C67.9704 79.6267 67.7944 78.9493 67.7944 78.192C67.7944 77.4453 67.965 76.7733 68.3064 76.176C68.6584 75.5787 69.1277 75.1093 69.7144 74.768C70.3117 74.416 70.9784 74.24 71.7144 74.24C72.4184 74.24 73.037 74.4 73.5704 74.72C74.1144 75.04 74.5357 75.4827 74.8344 76.048C75.1437 76.6133 75.2984 77.2533 75.2984 77.968C75.2984 78.0747 75.293 78.192 75.2824 78.32C75.2717 78.4373 75.2504 78.576 75.2184 78.736H68.8024V77.536H74.4504L73.9224 78C73.9224 77.488 73.8317 77.056 73.6504 76.704C73.469 76.3413 73.213 76.064 72.8824 75.872C72.5517 75.6693 72.1517 75.568 71.6824 75.568C71.1917 75.568 70.7597 75.6747 70.3864 75.888C70.013 76.1013 69.725 76.4 69.5224 76.784C69.3197 77.168 69.2184 77.6213 69.2184 78.144C69.2184 78.6773 69.325 79.1467 69.5384 79.552C69.7517 79.9467 70.0557 80.256 70.4504 80.48C70.845 80.6933 71.2984 80.8 71.8104 80.8C72.237 80.8 72.6264 80.7253 72.9784 80.576C73.341 80.4267 73.6504 80.2027 73.9064 79.904L74.8344 80.848C74.4717 81.2747 74.0237 81.6 73.4904 81.824C72.9677 82.048 72.4077 82.16 71.8104 82.16ZM79.2845 82.16C78.8578 82.16 78.4525 82.1067 78.0685 82C77.6952 81.8827 77.3485 81.7227 77.0285 81.52C76.7085 81.3067 76.4312 81.056 76.1965 80.768L77.1245 79.84C77.4018 80.1813 77.7218 80.4373 78.0845 80.608C78.4472 80.768 78.8525 80.848 79.3005 80.848C79.7485 80.848 80.0952 80.7733 80.3405 80.624C80.5858 80.464 80.7085 80.2453 80.7085 79.968C80.7085 79.6907 80.6072 79.4773 80.4045 79.328C80.2125 79.168 79.9618 79.04 79.6525 78.944C79.3432 78.8373 79.0125 78.736 78.6605 78.64C78.3192 78.5333 77.9938 78.4 77.6845 78.24C77.3752 78.08 77.1192 77.8613 76.9165 77.584C76.7245 77.3067 76.6285 76.9387 76.6285 76.48C76.6285 76.0213 76.7405 75.6267 76.9645 75.296C77.1885 74.9547 77.4978 74.6933 77.8925 74.512C78.2978 74.3307 78.7832 74.24 79.3485 74.24C79.9458 74.24 80.4738 74.3467 80.9325 74.56C81.4018 74.7627 81.7858 75.072 82.0845 75.488L81.1565 76.416C80.9432 76.1387 80.6765 75.9253 80.3565 75.776C80.0472 75.6267 79.6952 75.552 79.3005 75.552C78.8845 75.552 78.5645 75.6267 78.3405 75.776C78.1272 75.9147 78.0205 76.112 78.0205 76.368C78.0205 76.624 78.1165 76.8213 78.3085 76.96C78.5005 77.0987 78.7512 77.216 79.0605 77.312C79.3805 77.408 79.7112 77.5093 80.0525 77.616C80.3938 77.712 80.7192 77.8453 81.0285 78.016C81.3378 78.1867 81.5885 78.416 81.7805 78.704C81.9832 78.992 82.0845 79.3707 82.0845 79.84C82.0845 80.5547 81.8285 81.12 81.3165 81.536C80.8152 81.952 80.1378 82.16 79.2845 82.16Z" fill="white"/>
</svg>
