<svg width="96" height="92" viewBox="0 0 96 92" fill="none" xmlns="http://www.w3.org/2000/svg">
<path d="M71.125 30C71.125 36.1331 68.6886 42.0151 64.3518 46.3518C60.0151 50.6886 54.1331 53.125 48 53.125V56.875C62.8425 56.875 74.875 44.8425 74.875 30H71.125ZM48 53.125C41.8669 53.125 35.9849 50.6886 31.6482 46.3518C27.3114 42.0151 24.875 36.1331 24.875 30H21.125C21.125 44.8425 33.1575 56.875 48 56.875V53.125ZM24.875 30C24.875 23.8669 27.3114 17.9849 31.6482 13.6482C35.9849 9.31138 41.8669 6.875 48 6.875V3.125C33.1575 3.125 21.125 15.1575 21.125 30H24.875ZM56.75 35.625C52.9375 35.625 49.2812 34.1105 46.5853 31.4147C43.8895 28.7188 42.375 25.0625 42.375 21.25H38.625C38.625 26.057 40.5346 30.6672 43.9337 34.0663C47.3328 37.4654 51.943 39.375 56.75 39.375V35.625ZM69.0625 28.6725C67.784 30.7948 65.9783 32.5503 63.8209 33.7686C61.6635 34.9868 59.2276 35.6263 56.75 35.625V39.375C59.8736 39.3767 62.9446 38.5707 65.6648 37.0354C68.385 35.5 70.6621 33.2875 72.275 30.6125L69.0625 28.6725ZM42.375 21.25C42.3739 18.7724 43.0135 16.3367 44.2318 14.1793C45.45 12.0219 47.2054 10.2162 49.3275 8.9375L47.3875 5.7275C44.7127 7.33998 42.5003 9.61662 40.9649 12.3364C39.4296 15.0562 38.6235 18.1268 38.625 21.25H42.375ZM48 6.875C47.7465 6.86902 47.5056 6.76297 47.33 6.58C47.2226 6.47559 47.1509 6.34 47.125 6.1925C47.115 6.115 47.12 5.89 47.3875 5.7275L49.3275 8.9375C50.585 8.1775 50.99 6.785 50.8425 5.69C50.6875 4.5525 49.7925 3.125 48 3.125V6.875ZM72.275 30.6125C72.11 30.88 71.885 30.885 71.8075 30.875C71.66 30.8491 71.5244 30.7774 71.42 30.67C71.237 30.4944 71.131 30.2535 71.125 30H74.875C74.875 28.2075 73.4475 27.3125 72.31 27.1575C71.215 27.01 69.8225 27.415 69.0625 28.6725L72.275 30.6125Z" fill="#ECAFBD"/>
<path d="M27.32 77.68V76.368H30.344C30.76 76.368 31.128 76.2827 31.448 76.112C31.7787 75.9413 32.0347 75.7013 32.216 75.392C32.408 75.0827 32.504 74.7147 32.504 74.288C32.504 73.8613 32.408 73.4933 32.216 73.184C32.0347 72.8747 31.7787 72.6347 31.448 72.464C31.128 72.2933 30.76 72.208 30.344 72.208H27.32V70.896H30.44C31.1227 70.896 31.7307 71.0347 32.264 71.312C32.808 71.5893 33.2347 71.984 33.544 72.496C33.864 72.9973 34.024 73.5947 34.024 74.288C34.024 74.9707 33.864 75.568 33.544 76.08C33.2347 76.5813 32.808 76.976 32.264 77.264C31.7307 77.5413 31.1227 77.68 30.44 77.68H27.32ZM26.312 82V70.896H27.816V82H26.312ZM35.7591 82V74.4H37.1991V82H35.7591ZM37.1991 77.664L36.6551 77.424C36.6551 76.4533 36.8791 75.68 37.3271 75.104C37.7751 74.528 38.4205 74.24 39.2631 74.24C39.6471 74.24 39.9938 74.3093 40.3031 74.448C40.6125 74.576 40.9005 74.7947 41.1671 75.104L40.2231 76.08C40.0631 75.9093 39.8871 75.7867 39.6951 75.712C39.5031 75.6373 39.2791 75.6 39.0231 75.6C38.4898 75.6 38.0525 75.7707 37.7111 76.112C37.3698 76.4533 37.1991 76.9707 37.1991 77.664ZM45.403 82.16C44.6563 82.16 43.9843 81.984 43.387 81.632C42.7897 81.28 42.315 80.8053 41.963 80.208C41.611 79.6 41.435 78.9227 41.435 78.176C41.435 77.44 41.611 76.7787 41.963 76.192C42.315 75.5947 42.7897 75.12 43.387 74.768C43.9843 74.416 44.6563 74.24 45.403 74.24C46.139 74.24 46.8057 74.416 47.403 74.768C48.011 75.1093 48.491 75.5787 48.843 76.176C49.195 76.7733 49.371 77.44 49.371 78.176C49.371 78.9227 49.195 79.6 48.843 80.208C48.491 80.8053 48.011 81.28 47.403 81.632C46.8057 81.984 46.139 82.16 45.403 82.16ZM45.403 80.768C45.883 80.768 46.3097 80.656 46.683 80.432C47.0563 80.208 47.3497 79.904 47.563 79.52C47.7763 79.1253 47.883 78.6773 47.883 78.176C47.883 77.6853 47.771 77.248 47.547 76.864C47.3337 76.48 47.0403 76.1813 46.667 75.968C46.3043 75.744 45.883 75.632 45.403 75.632C44.923 75.632 44.4963 75.744 44.123 75.968C43.7497 76.1813 43.4563 76.48 43.243 76.864C43.0297 77.248 42.923 77.6853 42.923 78.176C42.923 78.6773 43.0297 79.1253 43.243 79.52C43.4563 79.904 43.7497 80.208 44.123 80.432C44.4963 80.656 44.923 80.768 45.403 80.768ZM51.8471 82V73.024C51.8471 72.5227 51.9538 72.08 52.1671 71.696C52.3911 71.3013 52.7005 70.992 53.0951 70.768C53.4898 70.5333 53.9431 70.416 54.4551 70.416C54.8498 70.416 55.1965 70.4853 55.4951 70.624C55.7938 70.752 56.0711 70.9333 56.3271 71.168L55.3831 72.112C55.2445 71.9947 55.1005 71.9093 54.9511 71.856C54.8018 71.792 54.6365 71.76 54.4551 71.76C54.0818 71.76 53.7938 71.8773 53.5911 72.112C53.3885 72.336 53.2871 72.64 53.2871 73.024V82H51.8471ZM49.9751 75.712V74.4H57.1911V75.712H49.9751ZM56.3591 82V74.4H57.8151V82H56.3591ZM57.0791 73.6C56.8231 73.6 56.6098 73.5147 56.4391 73.344C56.2685 73.1627 56.1831 72.9387 56.1831 72.672C56.1831 72.416 56.2685 72.2027 56.4391 72.032C56.6098 71.8507 56.8231 71.76 57.0791 71.76C57.3565 71.76 57.5751 71.8507 57.7351 72.032C57.9058 72.2027 57.9911 72.416 57.9911 72.672C57.9911 72.9387 57.9058 73.1627 57.7351 73.344C57.5751 73.5147 57.3565 73.6 57.0791 73.6ZM59.931 82V70.576H61.371V82H59.931ZM66.9979 82.16C66.2405 82.16 65.5579 81.9893 64.9499 81.648C64.3419 81.296 63.8619 80.8213 63.5099 80.224C63.1579 79.6267 62.9819 78.9493 62.9819 78.192C62.9819 77.4453 63.1525 76.7733 63.4939 76.176C63.8459 75.5787 64.3152 75.1093 64.9019 74.768C65.4992 74.416 66.1659 74.24 66.9019 74.24C67.6059 74.24 68.2245 74.4 68.7579 74.72C69.3019 75.04 69.7232 75.4827 70.0219 76.048C70.3312 76.6133 70.4859 77.2533 70.4859 77.968C70.4859 78.0747 70.4805 78.192 70.4699 78.32C70.4592 78.4373 70.4379 78.576 70.4059 78.736H63.9899V77.536H69.6379L69.1099 78C69.1099 77.488 69.0192 77.056 68.8379 76.704C68.6565 76.3413 68.4005 76.064 68.0699 75.872C67.7392 75.6693 67.3392 75.568 66.8699 75.568C66.3792 75.568 65.9472 75.6747 65.5739 75.888C65.2005 76.1013 64.9125 76.4 64.7099 76.784C64.5072 77.168 64.4059 77.6213 64.4059 78.144C64.4059 78.6773 64.5125 79.1467 64.7259 79.552C64.9392 79.9467 65.2432 80.256 65.6379 80.48C66.0325 80.6933 66.4859 80.8 66.9979 80.8C67.4245 80.8 67.8139 80.7253 68.1659 80.576C68.5285 80.4267 68.8379 80.2027 69.0939 79.904L70.0219 80.848C69.6592 81.2747 69.2112 81.6 68.6779 81.824C68.1552 82.048 67.5952 82.16 66.9979 82.16Z" fill="white"/>
</svg>
