<svg width="96" height="88" viewBox="0 0 96 88" fill="none" xmlns="http://www.w3.org/2000/svg">
<circle cx="48" cy="30" r="30" fill="#1F1D34"/>
<mask id="mask0_440_758" style="mask-type:luminance" maskUnits="userSpaceOnUse" x="28" y="10" width="40" height="40">
<path d="M28 10H68V50H28V10Z" fill="white"/>
</mask>
<g mask="url(#mask0_440_758)">
<path d="M52.4533 41.9283L47.7383 37.2133M52.4533 41.9283L54.7866 46.6183C55.9716 45.4633 59.99 40.0867 57.1416 37.2383M52.4533 41.9283L57.1416 37.2383M47.7383 37.2133L52.4533 32.5L52.4766 32.475M47.7383 37.2133L43 34.8333C44.2033 33.6617 49.6683 29.6667 52.4766 32.475M57.1416 37.2383L57.1666 37.2133M57.1416 37.2383L61.3116 33.07C63.0914 31.2897 64.3309 29.0419 64.8866 26.5867L65.4166 24.25L63.08 24.78C60.6247 25.3357 58.3769 26.5752 56.5966 28.355L52.4766 32.475M33.69 32.1883C31.4583 35.7167 30.6066 38.5317 31.7033 39.63C32.68 40.6067 35.015 40.04 38 38.3333M50.1883 15.69C53.7166 13.4583 56.5316 12.6067 57.63 13.7033C59.1066 15.1783 57.055 19.76 52.8733 25M35.09 33.3333C33.5278 31.0861 32.8051 28.3613 33.0482 25.6353C33.2914 22.9093 34.4849 20.3554 36.4202 18.4202C38.3554 16.4849 40.9093 15.2914 43.6353 15.0483C46.3613 14.8051 49.0861 15.5278 51.3333 17.09" stroke="#ECAFBD" strokeWidth="3.33333" strokeLinecap="round" strokeLinejoin="round"/>
</g>
<path d="M9.64 84V82.064H12.504C13.2293 82.064 13.864 81.9147 14.408 81.616C14.952 81.3067 15.3733 80.8747 15.672 80.32C15.9813 79.7653 16.136 79.1093 16.136 78.352C16.136 77.616 15.9813 76.976 15.672 76.432C15.3627 75.8773 14.936 75.4507 14.392 75.152C13.848 74.8427 13.2187 74.688 12.504 74.688H9.592V72.752H12.536C13.368 72.752 14.136 72.8907 14.84 73.168C15.5547 73.4453 16.1733 73.84 16.696 74.352C17.2293 74.8533 17.64 75.4453 17.928 76.128C18.2267 76.8107 18.376 77.5573 18.376 78.368C18.376 79.1787 18.2267 79.9307 17.928 80.624C17.64 81.3067 17.2347 81.904 16.712 82.416C16.1893 82.9173 15.5707 83.3067 14.856 83.584C14.152 83.8613 13.3893 84 12.568 84H9.64ZM8.152 84V72.752H10.328V84H8.152ZM23.1131 84.16C22.4091 84.16 21.7745 83.984 21.2091 83.632C20.6438 83.28 20.2011 82.8 19.8811 82.192C19.5611 81.584 19.4011 80.9013 19.4011 80.144C19.4011 79.376 19.5611 78.688 19.8811 78.08C20.2011 77.472 20.6438 76.992 21.2091 76.64C21.7745 76.288 22.4091 76.112 23.1131 76.112C23.6678 76.112 24.1638 76.224 24.6011 76.448C25.0385 76.672 25.3851 76.9867 25.6411 77.392C25.9078 77.7867 26.0518 78.2347 26.0731 78.736V81.52C26.0518 82.032 25.9078 82.4853 25.6411 82.88C25.3851 83.2747 25.0385 83.5893 24.6011 83.824C24.1638 84.048 23.6678 84.16 23.1131 84.16ZM23.4971 82.224C24.0838 82.224 24.5585 82.032 24.9211 81.648C25.2838 81.2533 25.4651 80.7467 25.4651 80.128C25.4651 79.7227 25.3798 79.3653 25.2091 79.056C25.0491 78.736 24.8198 78.4907 24.5211 78.32C24.2331 78.1387 23.8918 78.048 23.4971 78.048C23.1131 78.048 22.7718 78.1387 22.4731 78.32C22.1851 78.4907 21.9558 78.736 21.7851 79.056C21.6251 79.3653 21.5451 79.7227 21.5451 80.128C21.5451 80.544 21.6251 80.912 21.7851 81.232C21.9558 81.5413 22.1851 81.7867 22.4731 81.968C22.7718 82.1387 23.1131 82.224 23.4971 82.224ZM25.3531 84V81.92L25.6891 80.032L25.3531 78.176V76.272H27.4331V84H25.3531ZM31.9434 84.176C31.506 84.176 31.074 84.1173 30.6474 84C30.2314 83.8827 29.8474 83.7227 29.4954 83.52C29.1434 83.3067 28.8394 83.0507 28.5834 82.752L29.8314 81.488C30.098 81.7867 30.4074 82.0107 30.7594 82.16C31.1114 82.3093 31.5007 82.384 31.9274 82.384C32.2687 82.384 32.5247 82.336 32.6954 82.24C32.8767 82.144 32.9674 82 32.9674 81.808C32.9674 81.5947 32.8714 81.4293 32.6794 81.312C32.498 81.1947 32.258 81.0987 31.9594 81.024C31.6607 80.9387 31.346 80.848 31.0154 80.752C30.6954 80.6453 30.386 80.512 30.0874 80.352C29.7887 80.1813 29.5434 79.952 29.3514 79.664C29.17 79.3653 29.0794 78.9813 29.0794 78.512C29.0794 78.0213 29.1967 77.5947 29.4314 77.232C29.6767 76.8693 30.0234 76.5867 30.4714 76.384C30.9194 76.1813 31.4474 76.08 32.0554 76.08C32.6954 76.08 33.2714 76.192 33.7834 76.416C34.306 76.64 34.738 76.976 35.0794 77.424L33.8154 78.688C33.5807 78.4 33.314 78.192 33.0154 78.064C32.7274 77.936 32.4127 77.872 32.0714 77.872C31.762 77.872 31.522 77.92 31.3514 78.016C31.1914 78.112 31.1114 78.2453 31.1114 78.416C31.1114 78.608 31.202 78.7573 31.3834 78.864C31.5754 78.9707 31.8207 79.0667 32.1194 79.152C32.418 79.2267 32.7274 79.3173 33.0474 79.424C33.378 79.52 33.6874 79.6587 33.9754 79.84C34.274 80.0213 34.514 80.2613 34.6954 80.56C34.8874 80.8587 34.9834 81.2427 34.9834 81.712C34.9834 82.4693 34.7114 83.072 34.1674 83.52C33.6234 83.9573 32.882 84.176 31.9434 84.176ZM41.5968 84V79.568C41.5968 79.1093 41.4528 78.736 41.1648 78.448C40.8768 78.16 40.5034 78.016 40.0448 78.016C39.7461 78.016 39.4794 78.08 39.2448 78.208C39.0101 78.336 38.8234 78.5173 38.6848 78.752C38.5568 78.9867 38.4928 79.2587 38.4928 79.568L37.6768 79.152C37.6768 78.544 37.8048 78.016 38.0608 77.568C38.3168 77.1093 38.6688 76.752 39.1168 76.496C39.5754 76.24 40.0981 76.112 40.6848 76.112C41.2714 76.112 41.7888 76.24 42.2368 76.496C42.6954 76.752 43.0528 77.104 43.3088 77.552C43.5648 78 43.6927 78.5173 43.6927 79.104V84H41.5968ZM36.3968 84V72.432H38.4928V84H36.3968ZM49.6691 84.16C49.1145 84.16 48.6131 84.0427 48.1651 83.808C47.7171 83.5733 47.3598 83.2533 47.0931 82.848C46.8265 82.4427 46.6825 81.9893 46.6611 81.488V78.736C46.6825 78.2347 46.8265 77.7867 47.0931 77.392C47.3705 76.9867 47.7331 76.672 48.1811 76.448C48.6291 76.224 49.1251 76.112 49.6691 76.112C50.3838 76.112 51.0238 76.288 51.5891 76.64C52.1545 76.992 52.5971 77.472 52.9171 78.08C53.2478 78.688 53.4131 79.376 53.4131 80.144C53.4131 80.9013 53.2478 81.584 52.9171 82.192C52.5971 82.8 52.1545 83.28 51.5891 83.632C51.0238 83.984 50.3838 84.16 49.6691 84.16ZM49.3171 82.224C49.7011 82.224 50.0371 82.1387 50.3251 81.968C50.6238 81.7867 50.8531 81.5413 51.0131 81.232C51.1838 80.912 51.2691 80.544 51.2691 80.128C51.2691 79.7227 51.1838 79.3653 51.0131 79.056C50.8531 78.736 50.6238 78.4907 50.3251 78.32C50.0265 78.1387 49.6851 78.048 49.3011 78.048C48.9171 78.048 48.5758 78.1387 48.2771 78.32C47.9891 78.4907 47.7598 78.736 47.5891 79.056C47.4291 79.3653 47.3491 79.7227 47.3491 80.128C47.3491 80.544 47.4291 80.912 47.5891 81.232C47.7598 81.5413 47.9945 81.7867 48.2931 81.968C48.5918 82.1387 48.9331 82.224 49.3171 82.224ZM45.3811 84V72.432H47.4771V78.176L47.1251 80.032L47.4611 81.92V84H45.3811ZM58.4194 84.16C57.6407 84.16 56.9367 83.984 56.3074 83.632C55.6887 83.2693 55.1927 82.784 54.8194 82.176C54.4567 81.5573 54.2754 80.8693 54.2754 80.112C54.2754 79.3547 54.4567 78.6773 54.8194 78.08C55.182 77.472 55.678 76.992 56.3074 76.64C56.9367 76.2773 57.6354 76.096 58.4034 76.096C59.1927 76.096 59.8967 76.2773 60.5154 76.64C61.1447 76.992 61.6407 77.472 62.0034 78.08C62.366 78.6773 62.5474 79.3547 62.5474 80.112C62.5474 80.8693 62.366 81.5573 62.0034 82.176C61.6407 82.784 61.1447 83.2693 60.5154 83.632C59.8967 83.984 59.198 84.16 58.4194 84.16ZM58.4034 82.208C58.798 82.208 59.1447 82.1227 59.4434 81.952C59.7527 81.7707 59.9874 81.5253 60.1474 81.216C60.318 80.896 60.4034 80.5333 60.4034 80.128C60.4034 79.7227 60.318 79.3653 60.1474 79.056C59.9767 78.7467 59.742 78.5067 59.4434 78.336C59.1447 78.1547 58.798 78.064 58.4034 78.064C58.0194 78.064 57.678 78.1547 57.3794 78.336C57.0807 78.5067 56.846 78.7467 56.6754 79.056C56.5047 79.3653 56.4194 79.7227 56.4194 80.128C56.4194 80.5333 56.5047 80.896 56.6754 81.216C56.846 81.5253 57.0807 81.7707 57.3794 81.952C57.678 82.1227 58.0194 82.208 58.4034 82.208ZM67.1288 84.16C66.4248 84.16 65.7901 83.984 65.2248 83.632C64.6594 83.28 64.2168 82.8 63.8968 82.192C63.5768 81.584 63.4168 80.9013 63.4168 80.144C63.4168 79.376 63.5768 78.688 63.8968 78.08C64.2168 77.472 64.6594 76.992 65.2248 76.64C65.7901 76.288 66.4248 76.112 67.1288 76.112C67.6834 76.112 68.1794 76.224 68.6168 76.448C69.0541 76.672 69.4008 76.9867 69.6568 77.392C69.9234 77.7867 70.0674 78.2347 70.0888 78.736V81.52C70.0674 82.032 69.9234 82.4853 69.6568 82.88C69.4008 83.2747 69.0541 83.5893 68.6168 83.824C68.1794 84.048 67.6834 84.16 67.1288 84.16ZM67.5128 82.224C68.0994 82.224 68.5741 82.032 68.9368 81.648C69.2994 81.2533 69.4808 80.7467 69.4808 80.128C69.4808 79.7227 69.3954 79.3653 69.2248 79.056C69.0648 78.736 68.8354 78.4907 68.5368 78.32C68.2488 78.1387 67.9074 78.048 67.5128 78.048C67.1288 78.048 66.7874 78.1387 66.4888 78.32C66.2008 78.4907 65.9714 78.736 65.8008 79.056C65.6408 79.3653 65.5608 79.7227 65.5608 80.128C65.5608 80.544 65.6408 80.912 65.8008 81.232C65.9714 81.5413 66.2008 81.7867 66.4888 81.968C66.7874 82.1387 67.1288 82.224 67.5128 82.224ZM69.3688 84V81.92L69.7048 80.032L69.3688 78.176V76.272H71.4488V84H69.3688ZM73.303 84V76.272H75.399V84H73.303ZM75.399 79.728L74.583 79.184C74.679 78.2347 74.9563 77.488 75.415 76.944C75.8737 76.3893 76.535 76.112 77.399 76.112C77.7723 76.112 78.1083 76.176 78.407 76.304C78.7057 76.4213 78.9777 76.6187 79.223 76.896L77.911 78.4C77.7937 78.272 77.6497 78.176 77.479 78.112C77.319 78.048 77.1323 78.016 76.919 78.016C76.471 78.016 76.103 78.16 75.815 78.448C75.5377 78.7253 75.399 79.152 75.399 79.728ZM83.0045 84.16C82.2898 84.16 81.6498 83.984 81.0845 83.632C80.5192 83.28 80.0712 82.8 79.7405 82.192C79.4205 81.584 79.2605 80.9013 79.2605 80.144C79.2605 79.376 79.4205 78.688 79.7405 78.08C80.0712 77.472 80.5138 76.992 81.0685 76.64C81.6338 76.288 82.2792 76.112 83.0045 76.112C83.5592 76.112 84.0552 76.224 84.4925 76.448C84.9405 76.672 85.2978 76.9867 85.5645 77.392C85.8418 77.7867 85.9912 78.2347 86.0125 78.736V81.488C85.9912 81.9893 85.8472 82.4427 85.5805 82.848C85.3138 83.2533 84.9565 83.5733 84.5085 83.808C84.0605 84.0427 83.5592 84.16 83.0045 84.16ZM83.3565 82.224C83.7512 82.224 84.0925 82.1387 84.3805 81.968C84.6792 81.7867 84.9085 81.5413 85.0685 81.232C85.2392 80.912 85.3245 80.544 85.3245 80.128C85.3245 79.7227 85.2392 79.3653 85.0685 79.056C84.9085 78.736 84.6792 78.4907 84.3805 78.32C84.0925 78.1387 83.7565 78.048 83.3725 78.048C82.9778 78.048 82.6312 78.1387 82.3325 78.32C82.0445 78.5013 81.8152 78.7467 81.6445 79.056C81.4845 79.3653 81.4045 79.7227 81.4045 80.128C81.4045 80.544 81.4845 80.912 81.6445 81.232C81.8152 81.5413 82.0498 81.7867 82.3485 81.968C82.6472 82.1387 82.9832 82.224 83.3565 82.224ZM87.2925 84H85.2125V81.92L85.5485 80.032L85.1965 78.176V72.432H87.2925V84Z" fill="white"/>
</svg>
