<svg width="96" height="92" viewBox="0 0 96 92" fill="none" xmlns="http://www.w3.org/2000/svg">
<path d="M28 32.5C32.4577 33.0298 36.6076 35.0438 39.7819 38.2181C42.9562 41.3924 44.9702 45.5423 45.5 50C47.7098 48.726 49.5582 46.9096 50.8706 44.7223C52.1829 42.5351 52.9158 40.0493 53 37.5C57.1978 36.0233 60.8634 33.335 63.5334 29.775C66.2033 26.2151 67.7577 21.9433 68 17.5C68 15.5109 67.2098 13.6032 65.8033 12.1967C64.3968 10.7902 62.4891 10 60.5 10C56.0567 10.2423 51.7849 11.7967 48.225 14.4666C44.665 17.1366 41.9767 20.8022 40.5 25C37.9507 25.0842 35.4649 25.8171 33.2777 27.1294C31.0904 28.4418 29.274 30.2902 28 32.5Z" stroke="#ECAFBD" strokeWidth="3.33333" strokeLinecap="round" strokeLinejoin="round"/>
<path d="M35.5 35C32.8981 36.4689 30.7941 38.6815 29.4579 41.3539C28.1216 44.0264 27.614 47.0371 28 50C30.9629 50.386 33.9735 49.8784 36.646 48.5421C39.3185 47.2059 41.5311 45.1019 43 42.5M53 22.5C53 23.163 53.2634 23.7989 53.7322 24.2678C54.2011 24.7366 54.8369 25 55.5 25C56.163 25 56.7989 24.7366 57.2677 24.2678C57.7366 23.7989 58 23.163 58 22.5C58 21.837 57.7366 21.2011 57.2677 20.7322C56.7989 20.2634 56.163 20 55.5 20C54.8369 20 54.2011 20.2634 53.7322 20.7322C53.2634 21.2011 53 21.837 53 22.5Z" stroke="#ECAFBD" strokeWidth="3.33333" strokeLinecap="round" strokeLinejoin="round"/>
<path d="M28.756 82V71.216H30.26V82H28.756ZM24.98 72.272V70.896H34.02V72.272H24.98ZM36.9666 82.16C36.2093 82.16 35.5266 81.9893 34.9186 81.648C34.3106 81.296 33.8306 80.8213 33.4786 80.224C33.1266 79.6267 32.9506 78.9493 32.9506 78.192C32.9506 77.4453 33.1213 76.7733 33.4626 76.176C33.8146 75.5787 34.284 75.1093 34.8706 74.768C35.468 74.416 36.1346 74.24 36.8706 74.24C37.5746 74.24 38.1933 74.4 38.7266 74.72C39.2706 75.04 39.692 75.4827 39.9906 76.048C40.3 76.6133 40.4546 77.2533 40.4546 77.968C40.4546 78.0747 40.4493 78.192 40.4386 78.32C40.428 78.4373 40.4066 78.576 40.3746 78.736H33.9586V77.536H39.6066L39.0786 78C39.0786 77.488 38.988 77.056 38.8066 76.704C38.6253 76.3413 38.3693 76.064 38.0386 75.872C37.708 75.6693 37.308 75.568 36.8386 75.568C36.348 75.568 35.916 75.6747 35.5426 75.888C35.1693 76.1013 34.8813 76.4 34.6786 76.784C34.476 77.168 34.3746 77.6213 34.3746 78.144C34.3746 78.6773 34.4813 79.1467 34.6946 79.552C34.908 79.9467 35.212 80.256 35.6066 80.48C36.0013 80.6933 36.4546 80.8 36.9666 80.8C37.3933 80.8 37.7826 80.7253 38.1346 80.576C38.4973 80.4267 38.8066 80.2027 39.0626 79.904L39.9906 80.848C39.628 81.2747 39.18 81.6 38.6466 81.824C38.124 82.048 37.564 82.16 36.9666 82.16ZM45.2568 82.16C44.5634 82.16 43.9341 81.9893 43.3688 81.648C42.8034 81.296 42.3554 80.8213 42.0247 80.224C41.7048 79.6267 41.5448 78.9547 41.5448 78.208C41.5448 77.4613 41.7048 76.7893 42.0247 76.192C42.3554 75.5947 42.7981 75.12 43.3528 74.768C43.9181 74.416 44.5528 74.24 45.2568 74.24C45.8328 74.24 46.3448 74.3627 46.7928 74.608C47.2514 74.8427 47.6194 75.1733 47.8968 75.6C48.1741 76.016 48.3288 76.5013 48.3608 77.056V79.344C48.3288 79.888 48.1741 80.3733 47.8968 80.8C47.6301 81.2267 47.2674 81.5627 46.8088 81.808C46.3608 82.0427 45.8434 82.16 45.2568 82.16ZM45.4968 80.8C46.2114 80.8 46.7874 80.56 47.2248 80.08C47.6621 79.5893 47.8808 78.9653 47.8808 78.208C47.8808 77.6853 47.7794 77.232 47.5768 76.848C47.3848 76.4533 47.1074 76.1493 46.7448 75.936C46.3821 75.712 45.9608 75.6 45.4808 75.6C45.0008 75.6 44.5741 75.712 44.2008 75.936C43.8381 76.16 43.5501 76.4693 43.3368 76.864C43.1341 77.248 43.0328 77.6907 43.0328 78.192C43.0328 78.704 43.1341 79.1573 43.3368 79.552C43.5501 79.936 43.8434 80.24 44.2168 80.464C44.5901 80.688 45.0168 80.8 45.4968 80.8ZM47.7848 82V79.952L48.0568 78.096L47.7848 76.256V74.4H49.2408V82H47.7848ZM51.3372 82V74.4H52.7773V82H51.3372ZM56.4733 82V77.408C56.4733 76.8427 56.2973 76.4 55.9453 76.08C55.6039 75.7493 55.1719 75.584 54.6493 75.584C54.2973 75.584 53.9826 75.6587 53.7053 75.808C53.4279 75.9573 53.2039 76.1653 53.0333 76.432C52.8626 76.6987 52.7773 77.0187 52.7773 77.392L52.1853 77.104C52.1853 76.528 52.3079 76.0267 52.5533 75.6C52.8093 75.1733 53.1559 74.8427 53.5933 74.608C54.0306 74.3627 54.5213 74.24 55.0653 74.24C55.5986 74.24 56.0786 74.3573 56.5053 74.592C56.9426 74.8267 57.2839 75.1573 57.5293 75.584C57.7853 76.0107 57.9133 76.5173 57.9133 77.104V82H56.4733ZM61.6093 82V77.408C61.6093 76.8427 61.4333 76.4 61.0813 76.08C60.7399 75.7493 60.3133 75.584 59.8013 75.584C59.4493 75.584 59.1293 75.6587 58.8413 75.808C58.5639 75.9573 58.3399 76.1653 58.1693 76.432C57.9986 76.6987 57.9133 77.0187 57.9133 77.392L57.0973 77.104C57.1293 76.5173 57.2839 76.016 57.5613 75.6C57.8493 75.1733 58.2173 74.8427 58.6653 74.608C59.1133 74.3627 59.6039 74.24 60.1373 74.24C60.6919 74.24 61.1879 74.3573 61.6253 74.592C62.0626 74.8267 62.4093 75.1573 62.6653 75.584C62.9319 76.0107 63.0653 76.5227 63.0653 77.12V82H61.6093ZM67.4408 82.16C67.0141 82.16 66.6088 82.1067 66.2248 82C65.8514 81.8827 65.5048 81.7227 65.1848 81.52C64.8648 81.3067 64.5874 81.056 64.3528 80.768L65.2808 79.84C65.5581 80.1813 65.8781 80.4373 66.2408 80.608C66.6034 80.768 67.0088 80.848 67.4568 80.848C67.9048 80.848 68.2514 80.7733 68.4968 80.624C68.7421 80.464 68.8648 80.2453 68.8648 79.968C68.8648 79.6907 68.7634 79.4773 68.5608 79.328C68.3688 79.168 68.1181 79.04 67.8088 78.944C67.4994 78.8373 67.1688 78.736 66.8168 78.64C66.4754 78.5333 66.1501 78.4 65.8408 78.24C65.5314 78.08 65.2754 77.8613 65.0728 77.584C64.8808 77.3067 64.7848 76.9387 64.7848 76.48C64.7848 76.0213 64.8968 75.6267 65.1208 75.296C65.3448 74.9547 65.6541 74.6933 66.0488 74.512C66.4541 74.3307 66.9394 74.24 67.5048 74.24C68.1021 74.24 68.6301 74.3467 69.0888 74.56C69.5581 74.7627 69.9421 75.072 70.2408 75.488L69.3128 76.416C69.0994 76.1387 68.8328 75.9253 68.5128 75.776C68.2034 75.6267 67.8514 75.552 67.4568 75.552C67.0408 75.552 66.7208 75.6267 66.4968 75.776C66.2834 75.9147 66.1768 76.112 66.1768 76.368C66.1768 76.624 66.2728 76.8213 66.4648 76.96C66.6568 77.0987 66.9074 77.216 67.2168 77.312C67.5368 77.408 67.8674 77.5093 68.2088 77.616C68.5501 77.712 68.8754 77.8453 69.1848 78.016C69.4941 78.1867 69.7448 78.416 69.9368 78.704C70.1394 78.992 70.2408 79.3707 70.2408 79.84C70.2408 80.5547 69.9848 81.12 69.4728 81.536C68.9714 81.952 68.2941 82.16 67.4408 82.16Z" fill="white"/>
</svg>
