<svg width="96" height="84" viewBox="0 0 96 84" fill="none" xmlns="http://www.w3.org/2000/svg">
<circle cx="48" cy="30" r="30" fill="#D7F7F9"/>
<path d="M45.1833 28.2167C46.8833 30.95 46.6333 34.1667 44.5999 35.4667C42.5666 36.7333 39.5333 35.55 37.8166 32.8167C36.1166 30.0833 36.3833 26.8333 38.4166 25.5667C40.4499 24.3 43.4833 25.4833 45.1833 28.2167ZM47.9999 39.5833C51.3333 39.5833 52.1666 38.3333 52.1666 38.3333C52.1666 38.3333 51.3333 41.6667 47.9999 41.6667C44.6666 41.6667 43.8333 38.3833 43.8333 38.3333C43.8333 38.3333 44.6666 39.5833 47.9999 39.5833ZM57.5833 25.5667C59.6166 26.8333 59.8833 30.0833 58.1833 32.8167C56.4666 35.55 53.4333 36.7333 51.3999 35.4667C49.3666 34.1667 49.1166 30.95 50.8166 28.2167C52.5166 25.4833 55.5499 24.3 57.5833 25.5667ZM47.9999 43.3333C52.1666 43.3333 61.3333 34.7667 61.3333 28.3333C61.3333 21.9 55.3499 16.6667 47.9999 16.6667C40.6499 16.6667 34.6666 21.9 34.6666 28.3333C34.6666 34.7667 43.8333 43.3333 47.9999 43.3333ZM47.9999 13.3333C57.1666 13.3333 64.6666 20.0667 64.6666 28.3333C64.6666 35.1333 55.1999 46.6667 47.9999 46.6667C40.7999 46.6667 31.3333 35.1333 31.3333 28.3333C31.3333 20.0667 38.8333 13.3333 47.9999 13.3333Z" fill="#135279"/>
<path d="M25.752 75.824V74.048H28.36C28.7013 74.048 29.0107 73.9787 29.288 73.84C29.5653 73.7013 29.784 73.504 29.944 73.248C30.104 72.9813 30.184 72.6613 30.184 72.288C30.184 71.9253 30.104 71.6107 29.944 71.344C29.784 71.0773 29.5653 70.8747 29.288 70.736C29.0107 70.5973 28.7013 70.528 28.36 70.528H25.752V68.752H28.584C29.2987 68.752 29.9387 68.896 30.504 69.184C31.08 69.472 31.5333 69.8827 31.864 70.416C32.1947 70.9387 32.36 71.5627 32.36 72.288C32.36 73.0133 32.1947 73.6427 31.864 74.176C31.5333 74.6987 31.08 75.104 30.504 75.392C29.9387 75.68 29.2987 75.824 28.584 75.824H25.752ZM24.152 80V68.752H26.328V80H24.152ZM37.124 80.16C36.3133 80.16 35.5933 79.9893 34.964 79.648C34.3347 79.296 33.8333 78.816 33.46 78.208C33.0973 77.6 32.916 76.9067 32.916 76.128C32.916 75.36 33.092 74.6773 33.444 74.08C33.8067 73.472 34.2973 72.992 34.916 72.64C35.5347 72.2773 36.2227 72.096 36.98 72.096C37.7267 72.096 38.3827 72.2667 38.948 72.608C39.524 72.9387 39.972 73.3973 40.292 73.984C40.6227 74.56 40.788 75.216 40.788 75.952C40.788 76.0907 40.7773 76.2347 40.756 76.384C40.7453 76.5227 40.7187 76.6827 40.676 76.864L34.18 76.88V75.312L39.7 75.296L38.852 75.952C38.8307 75.4933 38.7453 75.1093 38.596 74.8C38.4573 74.4907 38.2493 74.256 37.972 74.096C37.7053 73.9253 37.3747 73.84 36.98 73.84C36.564 73.84 36.2013 73.936 35.892 74.128C35.5827 74.3093 35.3427 74.5707 35.172 74.912C35.012 75.2427 34.932 75.6373 34.932 76.096C34.932 76.5653 35.0173 76.976 35.188 77.328C35.3693 77.6693 35.6253 77.936 35.956 78.128C36.2867 78.3093 36.6707 78.4 37.108 78.4C37.5027 78.4 37.86 78.336 38.18 78.208C38.5 78.0693 38.7773 77.8667 39.012 77.6L40.244 78.832C39.8707 79.2693 39.412 79.6 38.868 79.824C38.3347 80.048 37.7533 80.16 37.124 80.16ZM45.7163 80.16C44.9376 80.16 44.2336 79.984 43.6043 79.632C42.9856 79.2693 42.4896 78.784 42.1163 78.176C41.7536 77.5573 41.5723 76.8693 41.5723 76.112C41.5723 75.3547 41.7536 74.6773 42.1163 74.08C42.4789 73.472 42.9749 72.992 43.6043 72.64C44.2336 72.2773 44.9323 72.096 45.7003 72.096C46.4896 72.096 47.1936 72.2773 47.8123 72.64C48.4416 72.992 48.9376 73.472 49.3003 74.08C49.6629 74.6773 49.8443 75.3547 49.8443 76.112C49.8443 76.8693 49.6629 77.5573 49.3003 78.176C48.9376 78.784 48.4416 79.2693 47.8123 79.632C47.1936 79.984 46.4949 80.16 45.7163 80.16ZM45.7003 78.208C46.0949 78.208 46.4416 78.1227 46.7403 77.952C47.0496 77.7707 47.2843 77.5253 47.4443 77.216C47.6149 76.896 47.7003 76.5333 47.7003 76.128C47.7003 75.7227 47.6149 75.3653 47.4443 75.056C47.2736 74.7467 47.0389 74.5067 46.7403 74.336C46.4416 74.1547 46.0949 74.064 45.7003 74.064C45.3163 74.064 44.9749 74.1547 44.6763 74.336C44.3776 74.5067 44.1429 74.7467 43.9723 75.056C43.8016 75.3653 43.7163 75.7227 43.7163 76.128C43.7163 76.5333 43.8016 76.896 43.9723 77.216C44.1429 77.5253 44.3776 77.7707 44.6763 77.952C44.9749 78.1227 45.3163 78.208 45.7003 78.208ZM55.4816 80.16C54.927 80.16 54.4256 80.048 53.9776 79.824C53.5296 79.5893 53.1723 79.2747 52.9056 78.88C52.639 78.4853 52.495 78.032 52.4736 77.52V74.784C52.495 74.272 52.639 73.8187 52.9056 73.424C53.183 73.0187 53.5403 72.6987 53.9776 72.464C54.4256 72.2293 54.927 72.112 55.4816 72.112C56.1963 72.112 56.8363 72.288 57.4016 72.64C57.967 72.992 58.4096 73.472 58.7296 74.08C59.0603 74.688 59.2256 75.376 59.2256 76.144C59.2256 76.9013 59.0603 77.584 58.7296 78.192C58.4096 78.8 57.967 79.28 57.4016 79.632C56.8363 79.984 56.1963 80.16 55.4816 80.16ZM55.1136 78.224C55.4976 78.224 55.839 78.1387 56.1376 77.968C56.4363 77.7867 56.6656 77.5413 56.8256 77.232C56.9963 76.912 57.0816 76.544 57.0816 76.128C57.0816 75.7227 56.9963 75.3653 56.8256 75.056C56.6656 74.736 56.4363 74.4907 56.1376 74.32C55.839 74.1387 55.4976 74.048 55.1136 74.048C54.7403 74.048 54.4043 74.1387 54.1056 74.32C53.807 74.4907 53.5723 74.736 53.4016 75.056C53.2416 75.3653 53.1616 75.7227 53.1616 76.128C53.1616 76.544 53.2416 76.912 53.4016 77.232C53.5723 77.5413 53.8016 77.7867 54.0896 77.968C54.3883 78.1387 54.7296 78.224 55.1136 78.224ZM51.1936 83.232V72.272H53.2896V74.304L52.9376 76.176L53.2736 78.048V83.232H51.1936ZM60.5999 80V68.432H62.6959V80H60.5999ZM68.249 80.16C67.4383 80.16 66.7183 79.9893 66.089 79.648C65.4597 79.296 64.9583 78.816 64.585 78.208C64.2223 77.6 64.041 76.9067 64.041 76.128C64.041 75.36 64.217 74.6773 64.569 74.08C64.9317 73.472 65.4223 72.992 66.041 72.64C66.6597 72.2773 67.3477 72.096 68.105 72.096C68.8517 72.096 69.5077 72.2667 70.073 72.608C70.649 72.9387 71.097 73.3973 71.417 73.984C71.7477 74.56 71.913 75.216 71.913 75.952C71.913 76.0907 71.9023 76.2347 71.881 76.384C71.8703 76.5227 71.8437 76.6827 71.801 76.864L65.305 76.88V75.312L70.825 75.296L69.977 75.952C69.9557 75.4933 69.8703 75.1093 69.721 74.8C69.5823 74.4907 69.3743 74.256 69.097 74.096C68.8303 73.9253 68.4997 73.84 68.105 73.84C67.689 73.84 67.3263 73.936 67.017 74.128C66.7077 74.3093 66.4677 74.5707 66.297 74.912C66.137 75.2427 66.057 75.6373 66.057 76.096C66.057 76.5653 66.1423 76.976 66.313 77.328C66.4943 77.6693 66.7503 77.936 67.081 78.128C67.4117 78.3093 67.7957 78.4 68.233 78.4C68.6277 78.4 68.985 78.336 69.305 78.208C69.625 78.0693 69.9023 77.8667 70.137 77.6L71.369 78.832C70.9957 79.2693 70.537 79.6 69.993 79.824C69.4597 80.048 68.8783 80.16 68.249 80.16Z" fill="black"/>
</svg>
