<svg width="173" height="96" viewBox="0 0 173 96" fill="none" xmlns="http://www.w3.org/2000/svg">
<circle cx="48" cy="48" r="46.5" stroke="#D7F7F9" stroke-width="3"/>
<path d="M42.3667 44.4333C45.7667 49.9 45.2667 56.3333 41.2001 58.9333C37.1334 61.4666 31.0667 59.1 27.6334 53.6333C24.2334 48.1666 24.7667 41.6666 28.8334 39.1333C32.9001 36.6 38.9667 38.9666 42.3667 44.4333ZM48.0001 67.1666C54.6667 67.1666 56.3334 64.6666 56.3334 64.6666C56.3334 64.6666 54.6667 71.3333 48.0001 71.3333C41.3334 71.3333 39.6667 64.7666 39.6667 64.6666C39.6667 64.6666 41.3334 67.1666 48.0001 67.1666ZM67.1667 39.1333C71.2334 41.6666 71.7668 48.1666 68.3667 53.6333C64.9334 59.1 58.8667 61.4666 54.8001 58.9333C50.7334 56.3333 50.2334 49.9 53.6334 44.4333C57.0334 38.9666 63.1001 36.6 67.1667 39.1333ZM48.0001 74.6666C56.3334 74.6666 74.6667 57.5333 74.6667 44.6666C74.6667 31.8 62.7001 21.3333 48.0001 21.3333C33.3001 21.3333 21.3334 31.8 21.3334 44.6666C21.3334 57.5333 39.6667 74.6666 48.0001 74.6666ZM48.0001 14.6666C66.3334 14.6666 81.3334 28.1333 81.3334 44.6666C81.3334 58.2666 62.4001 81.3333 48.0001 81.3333C33.6001 81.3333 14.6667 58.2666 14.6667 44.6666C14.6667 28.1333 29.6667 14.6666 48.0001 14.6666Z" fill="#D7F7F9"/>
<path d="M103.48 50.52V48.552H108.016C108.64 48.552 109.192 48.424 109.672 48.168C110.168 47.912 110.552 47.552 110.824 47.088C111.112 46.624 111.256 46.072 111.256 45.432C111.256 44.792 111.112 44.24 110.824 43.776C110.552 43.312 110.168 42.952 109.672 42.696C109.192 42.44 108.64 42.312 108.016 42.312H103.48V40.344H108.16C109.184 40.344 110.096 40.552 110.896 40.968C111.712 41.384 112.352 41.976 112.816 42.744C113.296 43.496 113.536 44.392 113.536 45.432C113.536 46.456 113.296 47.352 112.816 48.12C112.352 48.872 111.712 49.464 110.896 49.896C110.096 50.312 109.184 50.52 108.16 50.52H103.48ZM101.968 57V40.344H104.224V57H101.968ZM120.762 57.24C119.626 57.24 118.602 56.984 117.69 56.472C116.778 55.944 116.058 55.232 115.53 54.336C115.002 53.44 114.738 52.424 114.738 51.288C114.738 50.168 114.994 49.16 115.506 48.264C116.034 47.368 116.738 46.664 117.618 46.152C118.514 45.624 119.514 45.36 120.618 45.36C121.674 45.36 122.602 45.6 123.402 46.08C124.218 46.56 124.85 47.224 125.298 48.072C125.762 48.92 125.994 49.88 125.994 50.952C125.994 51.112 125.986 51.288 125.97 51.48C125.954 51.656 125.922 51.864 125.874 52.104H116.25V50.304H124.722L123.93 51C123.93 50.232 123.794 49.584 123.522 49.056C123.25 48.512 122.866 48.096 122.37 47.808C121.874 47.504 121.274 47.352 120.57 47.352C119.834 47.352 119.186 47.512 118.626 47.832C118.066 48.152 117.634 48.6 117.33 49.176C117.026 49.752 116.874 50.432 116.874 51.216C116.874 52.016 117.034 52.72 117.354 53.328C117.674 53.92 118.13 54.384 118.722 54.72C119.314 55.04 119.994 55.2 120.762 55.2C121.402 55.2 121.986 55.088 122.514 54.864C123.058 54.64 123.522 54.304 123.906 53.856L125.298 55.272C124.754 55.912 124.082 56.4 123.282 56.736C122.498 57.072 121.658 57.24 120.762 57.24ZM133.558 57.24C132.438 57.24 131.43 56.976 130.534 56.448C129.638 55.92 128.926 55.208 128.398 54.312C127.87 53.4 127.606 52.384 127.606 51.264C127.606 50.16 127.87 49.168 128.398 48.288C128.926 47.392 129.638 46.68 130.534 46.152C131.43 45.624 132.438 45.36 133.558 45.36C134.662 45.36 135.662 45.624 136.558 46.152C137.47 46.664 138.19 47.368 138.718 48.264C139.246 49.16 139.51 50.16 139.51 51.264C139.51 52.384 139.246 53.4 138.718 54.312C138.19 55.208 137.47 55.92 136.558 56.448C135.662 56.976 134.662 57.24 133.558 57.24ZM133.558 55.152C134.278 55.152 134.918 54.984 135.478 54.648C136.038 54.312 136.478 53.856 136.798 53.28C137.118 52.688 137.278 52.016 137.278 51.264C137.278 50.528 137.11 49.872 136.774 49.296C136.454 48.72 136.014 48.272 135.454 47.952C134.91 47.616 134.278 47.448 133.558 47.448C132.838 47.448 132.198 47.616 131.638 47.952C131.078 48.272 130.638 48.72 130.318 49.296C129.998 49.872 129.838 50.528 129.838 51.264C129.838 52.016 129.998 52.688 130.318 53.28C130.638 53.856 131.078 54.312 131.638 54.648C132.198 54.984 132.838 55.152 133.558 55.152ZM147.943 57.24C147.079 57.24 146.295 57.064 145.591 56.712C144.903 56.344 144.351 55.84 143.935 55.2C143.519 54.56 143.287 53.832 143.239 53.016V49.584C143.287 48.752 143.519 48.024 143.935 47.4C144.367 46.76 144.927 46.264 145.615 45.912C146.319 45.544 147.095 45.36 147.943 45.36C148.983 45.36 149.919 45.624 150.751 46.152C151.599 46.68 152.263 47.392 152.743 48.288C153.223 49.184 153.463 50.192 153.463 51.312C153.463 52.432 153.223 53.44 152.743 54.336C152.263 55.232 151.599 55.944 150.751 56.472C149.919 56.984 148.983 57.24 147.943 57.24ZM147.583 55.2C148.303 55.2 148.935 55.032 149.479 54.696C150.023 54.36 150.455 53.904 150.775 53.328C151.095 52.736 151.255 52.056 151.255 51.288C151.255 50.536 151.095 49.864 150.775 49.272C150.455 48.68 150.023 48.224 149.479 47.904C148.935 47.568 148.311 47.4 147.607 47.4C146.887 47.4 146.255 47.568 145.711 47.904C145.167 48.224 144.743 48.68 144.439 49.272C144.135 49.864 143.983 50.544 143.983 51.312C143.983 52.064 144.127 52.736 144.415 53.328C144.719 53.904 145.143 54.36 145.687 54.696C146.247 55.032 146.879 55.2 147.583 55.2ZM141.943 61.776V45.6H144.103V48.6L143.695 51.36L144.103 54.144V61.776H141.943ZM155.912 57V39.864H158.072V57H155.912ZM166.512 57.24C165.376 57.24 164.352 56.984 163.44 56.472C162.528 55.944 161.808 55.232 161.28 54.336C160.752 53.44 160.488 52.424 160.488 51.288C160.488 50.168 160.744 49.16 161.256 48.264C161.784 47.368 162.488 46.664 163.368 46.152C164.264 45.624 165.264 45.36 166.368 45.36C167.424 45.36 168.352 45.6 169.152 46.08C169.968 46.56 170.6 47.224 171.048 48.072C171.512 48.92 171.744 49.88 171.744 50.952C171.744 51.112 171.736 51.288 171.72 51.48C171.704 51.656 171.672 51.864 171.624 52.104H162V50.304H170.472L169.68 51C169.68 50.232 169.544 49.584 169.272 49.056C169 48.512 168.616 48.096 168.12 47.808C167.624 47.504 167.024 47.352 166.32 47.352C165.584 47.352 164.936 47.512 164.376 47.832C163.816 48.152 163.384 48.6 163.08 49.176C162.776 49.752 162.624 50.432 162.624 51.216C162.624 52.016 162.784 52.72 163.104 53.328C163.424 53.92 163.88 54.384 164.472 54.72C165.064 55.04 165.744 55.2 166.512 55.2C167.152 55.2 167.736 55.088 168.264 54.864C168.808 54.64 169.272 54.304 169.656 53.856L171.048 55.272C170.504 55.912 169.832 56.4 169.032 56.736C168.248 57.072 167.408 57.24 166.512 57.24Z" fill="black"/>
</svg>
