<svg width="173" height="80" viewBox="0 0 173 80" fill="none" xmlns="http://www.w3.org/2000/svg">
<circle cx="48" cy="40" r="38.5" fill="#D7F7F9" stroke="#D7F7F9" stroke-width="3"/>
<path d="M43.775 37.325C46.325 41.425 45.95 46.25 42.9 48.2C39.85 50.1 35.3 48.325 32.725 44.225C30.175 40.125 30.575 35.25 33.625 33.35C36.675 31.45 41.225 33.225 43.775 37.325ZM48 54.375C53 54.375 54.25 52.5 54.25 52.5C54.25 52.5 53 57.5 48 57.5C43 57.5 41.75 52.575 41.75 52.5C41.75 52.5 43 54.375 48 54.375ZM62.375 33.35C65.425 35.25 65.825 40.125 63.275 44.225C60.7 48.325 56.15 50.1 53.1 48.2C50.05 46.25 49.675 41.425 52.225 37.325C54.775 33.225 59.325 31.45 62.375 33.35ZM48 60C54.25 60 68 47.15 68 37.5C68 27.85 59.025 20 48 20C36.975 20 28 27.85 28 37.5C28 47.15 41.75 60 48 60ZM48 15C61.75 15 73 25.1 73 37.5C73 47.7 58.8 65 48 65C37.2 65 23 47.7 23 37.5C23 25.1 34.25 15 48 15Z" fill="#135279"/>
<path d="M95.48 42.52V40.552H100.016C100.64 40.552 101.192 40.424 101.672 40.168C102.168 39.912 102.552 39.552 102.824 39.088C103.112 38.624 103.256 38.072 103.256 37.432C103.256 36.792 103.112 36.24 102.824 35.776C102.552 35.312 102.168 34.952 101.672 34.696C101.192 34.44 100.64 34.312 100.016 34.312H95.48V32.344H100.16C101.184 32.344 102.096 32.552 102.896 32.968C103.712 33.384 104.352 33.976 104.816 34.744C105.296 35.496 105.536 36.392 105.536 37.432C105.536 38.456 105.296 39.352 104.816 40.12C104.352 40.872 103.712 41.464 102.896 41.896C102.096 42.312 101.184 42.52 100.16 42.52H95.48ZM93.968 49V32.344H96.224V49H93.968ZM112.762 49.24C111.626 49.24 110.602 48.984 109.69 48.472C108.778 47.944 108.058 47.232 107.53 46.336C107.002 45.44 106.738 44.424 106.738 43.288C106.738 42.168 106.994 41.16 107.506 40.264C108.034 39.368 108.738 38.664 109.618 38.152C110.514 37.624 111.514 37.36 112.618 37.36C113.674 37.36 114.602 37.6 115.402 38.08C116.218 38.56 116.85 39.224 117.298 40.072C117.762 40.92 117.994 41.88 117.994 42.952C117.994 43.112 117.986 43.288 117.97 43.48C117.954 43.656 117.922 43.864 117.874 44.104H108.25V42.304H116.722L115.93 43C115.93 42.232 115.794 41.584 115.522 41.056C115.25 40.512 114.866 40.096 114.37 39.808C113.874 39.504 113.274 39.352 112.57 39.352C111.834 39.352 111.186 39.512 110.626 39.832C110.066 40.152 109.634 40.6 109.33 41.176C109.026 41.752 108.874 42.432 108.874 43.216C108.874 44.016 109.034 44.72 109.354 45.328C109.674 45.92 110.13 46.384 110.722 46.72C111.314 47.04 111.994 47.2 112.762 47.2C113.402 47.2 113.986 47.088 114.514 46.864C115.058 46.64 115.522 46.304 115.906 45.856L117.298 47.272C116.754 47.912 116.082 48.4 115.282 48.736C114.498 49.072 113.658 49.24 112.762 49.24ZM125.558 49.24C124.438 49.24 123.43 48.976 122.534 48.448C121.638 47.92 120.926 47.208 120.398 46.312C119.87 45.4 119.606 44.384 119.606 43.264C119.606 42.16 119.87 41.168 120.398 40.288C120.926 39.392 121.638 38.68 122.534 38.152C123.43 37.624 124.438 37.36 125.558 37.36C126.662 37.36 127.662 37.624 128.558 38.152C129.47 38.664 130.19 39.368 130.718 40.264C131.246 41.16 131.51 42.16 131.51 43.264C131.51 44.384 131.246 45.4 130.718 46.312C130.19 47.208 129.47 47.92 128.558 48.448C127.662 48.976 126.662 49.24 125.558 49.24ZM125.558 47.152C126.278 47.152 126.918 46.984 127.478 46.648C128.038 46.312 128.478 45.856 128.798 45.28C129.118 44.688 129.278 44.016 129.278 43.264C129.278 42.528 129.11 41.872 128.774 41.296C128.454 40.72 128.014 40.272 127.454 39.952C126.91 39.616 126.278 39.448 125.558 39.448C124.838 39.448 124.198 39.616 123.638 39.952C123.078 40.272 122.638 40.72 122.318 41.296C121.998 41.872 121.838 42.528 121.838 43.264C121.838 44.016 121.998 44.688 122.318 45.28C122.638 45.856 123.078 46.312 123.638 46.648C124.198 46.984 124.838 47.152 125.558 47.152ZM139.943 49.24C139.079 49.24 138.295 49.064 137.591 48.712C136.903 48.344 136.351 47.84 135.935 47.2C135.519 46.56 135.287 45.832 135.239 45.016V41.584C135.287 40.752 135.519 40.024 135.935 39.4C136.367 38.76 136.927 38.264 137.615 37.912C138.319 37.544 139.095 37.36 139.943 37.36C140.983 37.36 141.919 37.624 142.751 38.152C143.599 38.68 144.263 39.392 144.743 40.288C145.223 41.184 145.463 42.192 145.463 43.312C145.463 44.432 145.223 45.44 144.743 46.336C144.263 47.232 143.599 47.944 142.751 48.472C141.919 48.984 140.983 49.24 139.943 49.24ZM139.583 47.2C140.303 47.2 140.935 47.032 141.479 46.696C142.023 46.36 142.455 45.904 142.775 45.328C143.095 44.736 143.255 44.056 143.255 43.288C143.255 42.536 143.095 41.864 142.775 41.272C142.455 40.68 142.023 40.224 141.479 39.904C140.935 39.568 140.311 39.4 139.607 39.4C138.887 39.4 138.255 39.568 137.711 39.904C137.167 40.224 136.743 40.68 136.439 41.272C136.135 41.864 135.983 42.544 135.983 43.312C135.983 44.064 136.127 44.736 136.415 45.328C136.719 45.904 137.143 46.36 137.687 46.696C138.247 47.032 138.879 47.2 139.583 47.2ZM133.943 53.776V37.6H136.103V40.6L135.695 43.36L136.103 46.144V53.776H133.943ZM147.912 49V31.864H150.072V49H147.912ZM158.512 49.24C157.376 49.24 156.352 48.984 155.44 48.472C154.528 47.944 153.808 47.232 153.28 46.336C152.752 45.44 152.488 44.424 152.488 43.288C152.488 42.168 152.744 41.16 153.256 40.264C153.784 39.368 154.488 38.664 155.368 38.152C156.264 37.624 157.264 37.36 158.368 37.36C159.424 37.36 160.352 37.6 161.152 38.08C161.968 38.56 162.6 39.224 163.048 40.072C163.512 40.92 163.744 41.88 163.744 42.952C163.744 43.112 163.736 43.288 163.72 43.48C163.704 43.656 163.672 43.864 163.624 44.104H154V42.304H162.472L161.68 43C161.68 42.232 161.544 41.584 161.272 41.056C161 40.512 160.616 40.096 160.12 39.808C159.624 39.504 159.024 39.352 158.32 39.352C157.584 39.352 156.936 39.512 156.376 39.832C155.816 40.152 155.384 40.6 155.08 41.176C154.776 41.752 154.624 42.432 154.624 43.216C154.624 44.016 154.784 44.72 155.104 45.328C155.424 45.92 155.88 46.384 156.472 46.72C157.064 47.04 157.744 47.2 158.512 47.2C159.152 47.2 159.736 47.088 160.264 46.864C160.808 46.64 161.272 46.304 161.656 45.856L163.048 47.272C162.504 47.912 161.832 48.4 161.032 48.736C160.248 49.072 159.408 49.24 158.512 49.24Z" fill="black"/>
</svg>
