<svg width="96" height="92" viewBox="0 0 96 92" fill="none" xmlns="http://www.w3.org/2000/svg">
<circle cx="48" cy="30" r="29" stroke="#D7F7F9" strokeWidth="2"/>
<path d="M45.1835 28.2166C46.8835 30.95 46.6335 34.1666 44.6002 35.4666C42.5668 36.7333 39.5335 35.55 37.8168 32.8166C36.1168 30.0833 36.3835 26.8333 38.4168 25.5666C40.4502 24.3 43.4835 25.4833 45.1835 28.2166ZM48.0002 39.5833C51.3335 39.5833 52.1668 38.3333 52.1668 38.3333C52.1668 38.3333 51.3335 41.6666 48.0002 41.6666C44.6668 41.6666 43.8335 38.3833 43.8335 38.3333C43.8335 38.3333 44.6668 39.5833 48.0002 39.5833ZM57.5835 25.5666C59.6168 26.8333 59.8835 30.0833 58.1835 32.8166C56.4668 35.55 53.4335 36.7333 51.4002 35.4666C49.3668 34.1666 49.1168 30.95 50.8168 28.2166C52.5168 25.4833 55.5502 24.3 57.5835 25.5666ZM48.0002 43.3333C52.1668 43.3333 61.3335 34.7666 61.3335 28.3333C61.3335 21.9 55.3502 16.6666 48.0002 16.6666C40.6502 16.6666 34.6668 21.9 34.6668 28.3333C34.6668 34.7666 43.8335 43.3333 48.0002 43.3333ZM48.0002 13.3333C57.1668 13.3333 64.6668 20.0666 64.6668 28.3333C64.6668 35.1333 55.2002 46.6666 48.0002 46.6666C40.8002 46.6666 31.3335 35.1333 31.3335 28.3333C31.3335 20.0666 38.8335 13.3333 48.0002 13.3333Z" fill="#D7F7F9"/>
<path d="M25.82 77.68V76.368H28.844C29.26 76.368 29.628 76.2827 29.948 76.112C30.2787 75.9413 30.5347 75.7013 30.716 75.392C30.908 75.0827 31.004 74.7147 31.004 74.288C31.004 73.8613 30.908 73.4933 30.716 73.184C30.5347 72.8747 30.2787 72.6347 29.948 72.464C29.628 72.2933 29.26 72.208 28.844 72.208H25.82V70.896H28.94C29.6227 70.896 30.2307 71.0347 30.764 71.312C31.308 71.5893 31.7347 71.984 32.044 72.496C32.364 72.9973 32.524 73.5947 32.524 74.288C32.524 74.9707 32.364 75.568 32.044 76.08C31.7347 76.5813 31.308 76.976 30.764 77.264C30.2307 77.5413 29.6227 77.68 28.94 77.68H25.82ZM24.812 82V70.896H26.316V82H24.812ZM37.3416 82.16C36.5843 82.16 35.9016 81.9893 35.2936 81.648C34.6856 81.296 34.2056 80.8213 33.8536 80.224C33.5016 79.6267 33.3256 78.9493 33.3256 78.192C33.3256 77.4453 33.4963 76.7733 33.8376 76.176C34.1896 75.5787 34.659 75.1093 35.2456 74.768C35.843 74.416 36.5096 74.24 37.2456 74.24C37.9496 74.24 38.5683 74.4 39.1016 74.72C39.6456 75.04 40.067 75.4827 40.3656 76.048C40.675 76.6133 40.8296 77.2533 40.8296 77.968C40.8296 78.0747 40.8243 78.192 40.8136 78.32C40.803 78.4373 40.7816 78.576 40.7496 78.736H34.3336V77.536H39.9816L39.4536 78C39.4536 77.488 39.363 77.056 39.1816 76.704C39.0003 76.3413 38.7443 76.064 38.4136 75.872C38.083 75.6693 37.683 75.568 37.2136 75.568C36.723 75.568 36.291 75.6747 35.9176 75.888C35.5443 76.1013 35.2563 76.4 35.0536 76.784C34.851 77.168 34.7496 77.6213 34.7496 78.144C34.7496 78.6773 34.8563 79.1467 35.0696 79.552C35.283 79.9467 35.587 80.256 35.9816 80.48C36.3763 80.6933 36.8296 80.8 37.3416 80.8C37.7683 80.8 38.1576 80.7253 38.5096 80.576C38.8723 80.4267 39.1816 80.2027 39.4376 79.904L40.3656 80.848C40.003 81.2747 39.555 81.6 39.0216 81.824C38.499 82.048 37.939 82.16 37.3416 82.16ZM45.8718 82.16C45.1251 82.16 44.4531 81.984 43.8558 81.632C43.2584 81.28 42.7838 80.8053 42.4318 80.208C42.0798 79.6 41.9038 78.9227 41.9038 78.176C41.9038 77.44 42.0798 76.7787 42.4318 76.192C42.7838 75.5947 43.2584 75.12 43.8558 74.768C44.4531 74.416 45.1251 74.24 45.8718 74.24C46.6078 74.24 47.2744 74.416 47.8718 74.768C48.4798 75.1093 48.9598 75.5787 49.3118 76.176C49.6638 76.7733 49.8398 77.44 49.8398 78.176C49.8398 78.9227 49.6638 79.6 49.3118 80.208C48.9598 80.8053 48.4798 81.28 47.8718 81.632C47.2744 81.984 46.6078 82.16 45.8718 82.16ZM45.8718 80.768C46.3518 80.768 46.7784 80.656 47.1518 80.432C47.5251 80.208 47.8184 79.904 48.0318 79.52C48.2451 79.1253 48.3518 78.6773 48.3518 78.176C48.3518 77.6853 48.2398 77.248 48.0158 76.864C47.8024 76.48 47.5091 76.1813 47.1358 75.968C46.7731 75.744 46.3518 75.632 45.8718 75.632C45.3918 75.632 44.9651 75.744 44.5918 75.968C44.2184 76.1813 43.9251 76.48 43.7118 76.864C43.4984 77.248 43.3918 77.6853 43.3918 78.176C43.3918 78.6773 43.4984 79.1253 43.7118 79.52C43.9251 79.904 44.2184 80.208 44.5918 80.432C44.9651 80.656 45.3918 80.768 45.8718 80.768ZM55.4623 82.16C54.8863 82.16 54.3636 82.0427 53.8943 81.808C53.4356 81.5627 53.0676 81.2267 52.7903 80.8C52.5129 80.3733 52.3583 79.888 52.3263 79.344V77.056C52.3583 76.5013 52.5129 76.016 52.7903 75.6C53.0783 75.1733 53.4516 74.8427 53.9103 74.608C54.3796 74.3627 54.8969 74.24 55.4623 74.24C56.1556 74.24 56.7796 74.416 57.3343 74.768C57.8996 75.12 58.3423 75.5947 58.6623 76.192C58.9823 76.7893 59.1423 77.4613 59.1423 78.208C59.1423 78.9547 58.9823 79.6267 58.6623 80.224C58.3423 80.8213 57.8996 81.296 57.3343 81.648C56.7796 81.9893 56.1556 82.16 55.4623 82.16ZM55.2223 80.8C55.7023 80.8 56.1236 80.688 56.4863 80.464C56.8489 80.24 57.1369 79.936 57.3503 79.552C57.5636 79.1573 57.6703 78.704 57.6703 78.192C57.6703 77.6907 57.5636 77.2427 57.3503 76.848C57.1369 76.4533 56.8489 76.1493 56.4863 75.936C56.1236 75.712 55.7076 75.6 55.2383 75.6C54.7583 75.6 54.3369 75.712 53.9743 75.936C53.6116 76.1493 53.3289 76.4533 53.1263 76.848C52.9236 77.2427 52.8223 77.696 52.8223 78.208C52.8223 78.7093 52.9183 79.1573 53.1103 79.552C53.3129 79.936 53.5956 80.24 53.9583 80.464C54.3316 80.688 54.7529 80.8 55.2223 80.8ZM51.4622 85.184V74.4H52.9023V76.4L52.6303 78.24L52.9023 80.096V85.184H51.4622ZM60.7747 82V70.576H62.2148V82H60.7747ZM67.8416 82.16C67.0843 82.16 66.4016 81.9893 65.7936 81.648C65.1856 81.296 64.7056 80.8213 64.3536 80.224C64.0016 79.6267 63.8256 78.9493 63.8256 78.192C63.8256 77.4453 63.9963 76.7733 64.3376 76.176C64.6896 75.5787 65.159 75.1093 65.7456 74.768C66.343 74.416 67.0096 74.24 67.7456 74.24C68.4496 74.24 69.0683 74.4 69.6016 74.72C70.1456 75.04 70.567 75.4827 70.8656 76.048C71.175 76.6133 71.3296 77.2533 71.3296 77.968C71.3296 78.0747 71.3243 78.192 71.3136 78.32C71.303 78.4373 71.2816 78.576 71.2496 78.736H64.8336V77.536H70.4816L69.9536 78C69.9536 77.488 69.863 77.056 69.6816 76.704C69.5003 76.3413 69.2443 76.064 68.9136 75.872C68.583 75.6693 68.183 75.568 67.7136 75.568C67.223 75.568 66.791 75.6747 66.4176 75.888C66.0443 76.1013 65.7563 76.4 65.5536 76.784C65.351 77.168 65.2496 77.6213 65.2496 78.144C65.2496 78.6773 65.3563 79.1467 65.5696 79.552C65.783 79.9467 66.087 80.256 66.4816 80.48C66.8763 80.6933 67.3296 80.8 67.8416 80.8C68.2683 80.8 68.6576 80.7253 69.0096 80.576C69.3723 80.4267 69.6816 80.2027 69.9376 79.904L70.8656 80.848C70.503 81.2747 70.055 81.6 69.5216 81.824C68.999 82.048 68.439 82.16 67.8416 82.16Z" fill="black"/>
</svg>
