<svg width="80" height="93" viewBox="0 0 80 93" fill="none" xmlns="http://www.w3.org/2000/svg">
<circle cx="40" cy="20.8" r="19" stroke="#EBB237" stroke-width="2"/>
<path d="M35.2917 25.4667C35.8646 25.4667 36.3334 25.9355 36.3334 26.5084C36.3334 27.6542 35.3959 28.5917 34.25 28.5917C34.073 28.5917 33.9063 28.5917 33.7292 28.5396C34.0521 27.9667 34.25 27.2792 34.25 26.5084C34.25 25.9355 34.7188 25.4667 35.2917 25.4667ZM47.448 11.925C47.1771 11.925 46.9167 12.0292 46.7084 12.2271L37.375 21.5605L40.2396 24.425L49.573 15.0917C49.9792 14.6855 49.9792 14.0084 49.573 13.623L48.1771 12.2271C47.9688 12.0188 47.7084 11.925 47.448 11.925ZM35.2917 23.3834C33.5625 23.3834 32.1667 24.7792 32.1667 26.5084C32.1667 27.873 30.9584 28.5917 30.0834 28.5917C31.0417 29.8625 32.6875 30.675 34.25 30.675C36.5521 30.675 38.4167 28.8105 38.4167 26.5084C38.4167 24.7792 37.0209 23.3834 35.2917 23.3834Z" fill="#EBB237"/>
<path d="M10.2337 62.8V61.424H13.3217C14.143 61.424 14.863 61.248 15.4817 60.896C16.1004 60.5334 16.5804 60.0374 16.9217 59.408C17.2737 58.7787 17.4497 58.0534 17.4497 57.232C17.4497 56.4214 17.2737 55.7014 16.9217 55.072C16.5697 54.4427 16.0844 53.952 15.4657 53.6C14.847 53.248 14.1324 53.072 13.3217 53.072H10.2497V51.696H13.3537C14.1644 51.696 14.911 51.8347 15.5937 52.112C16.287 52.3894 16.8844 52.7787 17.3857 53.28C17.8977 53.7814 18.2924 54.368 18.5697 55.04C18.8577 55.712 19.0017 56.448 19.0017 57.248C19.0017 58.0374 18.8577 58.7734 18.5697 59.456C18.2924 60.128 17.903 60.7147 17.4017 61.216C16.9004 61.7174 16.303 62.1067 15.6097 62.384C14.927 62.6614 14.1857 62.8 13.3857 62.8H10.2337ZM9.24169 62.8V51.696H10.7457V62.8H9.24169ZM24.3494 62.96C23.5921 62.96 22.9094 62.7894 22.3014 62.448C21.6934 62.096 21.2134 61.6214 20.8614 61.024C20.5094 60.4267 20.3334 59.7494 20.3334 58.992C20.3334 58.2454 20.5041 57.5734 20.8454 56.976C21.1974 56.3787 21.6668 55.9094 22.2534 55.568C22.8508 55.216 23.5174 55.04 24.2534 55.04C24.9574 55.04 25.5761 55.2 26.1094 55.52C26.6534 55.84 27.0748 56.2827 27.3734 56.848C27.6828 57.4134 27.8374 58.0534 27.8374 58.768C27.8374 58.8747 27.8321 58.992 27.8214 59.12C27.8108 59.2374 27.7894 59.376 27.7574 59.536H21.3414V58.336H26.9894L26.4614 58.8C26.4614 58.288 26.3708 57.856 26.1894 57.504C26.0081 57.1414 25.7521 56.864 25.4214 56.672C25.0908 56.4694 24.6908 56.368 24.2214 56.368C23.7308 56.368 23.2988 56.4747 22.9254 56.688C22.5521 56.9014 22.2641 57.2 22.0614 57.584C21.8588 57.968 21.7574 58.4214 21.7574 58.944C21.7574 59.4774 21.8641 59.9467 22.0774 60.352C22.2908 60.7467 22.5948 61.056 22.9894 61.28C23.3841 61.4934 23.8374 61.6 24.3494 61.6C24.7761 61.6 25.1654 61.5254 25.5174 61.376C25.8801 61.2267 26.1894 61.0027 26.4454 60.704L27.3734 61.648C27.0108 62.0747 26.5628 62.4 26.0294 62.624C25.5068 62.848 24.9468 62.96 24.3494 62.96ZM31.8236 62.96C31.3969 62.96 30.9916 62.9067 30.6076 62.8C30.2342 62.6827 29.8876 62.5227 29.5676 62.32C29.2476 62.1067 28.9702 61.856 28.7356 61.568L29.6636 60.64C29.9409 60.9814 30.2609 61.2374 30.6236 61.408C30.9862 61.568 31.3916 61.648 31.8396 61.648C32.2876 61.648 32.6342 61.5734 32.8796 61.424C33.1249 61.264 33.2476 61.0454 33.2476 60.768C33.2476 60.4907 33.1462 60.2774 32.9436 60.128C32.7516 59.968 32.5009 59.84 32.1916 59.744C31.8822 59.6374 31.5516 59.536 31.1996 59.44C30.8582 59.3334 30.5329 59.2 30.2236 59.04C29.9142 58.88 29.6582 58.6614 29.4556 58.384C29.2636 58.1067 29.1676 57.7387 29.1676 57.28C29.1676 56.8214 29.2796 56.4267 29.5036 56.096C29.7276 55.7547 30.0369 55.4934 30.4316 55.312C30.8369 55.1307 31.3222 55.04 31.8876 55.04C32.4849 55.04 33.0129 55.1467 33.4716 55.36C33.9409 55.5627 34.3249 55.872 34.6236 56.288L33.6956 57.216C33.4822 56.9387 33.2156 56.7254 32.8956 56.576C32.5862 56.4267 32.2342 56.352 31.8396 56.352C31.4236 56.352 31.1036 56.4267 30.8796 56.576C30.6662 56.7147 30.5596 56.912 30.5596 57.168C30.5596 57.424 30.6556 57.6214 30.8476 57.76C31.0396 57.8987 31.2902 58.016 31.5996 58.112C31.9196 58.208 32.2502 58.3094 32.5916 58.416C32.9329 58.512 33.2582 58.6454 33.5676 58.816C33.8769 58.9867 34.1276 59.216 34.3196 59.504C34.5222 59.792 34.6236 60.1707 34.6236 60.64C34.6236 61.3547 34.3676 61.92 33.8556 62.336C33.3542 62.752 32.6769 62.96 31.8236 62.96ZM36.2517 62.8V55.2H37.6917V62.8H36.2517ZM36.9717 53.68C36.705 53.68 36.4864 53.5947 36.3157 53.424C36.145 53.2427 36.0597 53.0187 36.0597 52.752C36.0597 52.496 36.145 52.2827 36.3157 52.112C36.4864 51.9307 36.705 51.84 36.9717 51.84C37.2384 51.84 37.457 51.9307 37.6277 52.112C37.7984 52.2827 37.8837 52.496 37.8837 52.752C37.8837 53.0187 37.7984 53.2427 37.6277 53.424C37.457 53.5947 37.2384 53.68 36.9717 53.68ZM42.9658 66.144C42.1871 66.144 41.4938 66 40.8858 65.712C40.2885 65.424 39.8085 65.0187 39.4458 64.496L40.3738 63.552C40.6831 63.9467 41.0511 64.2454 41.4778 64.448C41.9045 64.6614 42.4111 64.768 42.9978 64.768C43.7765 64.768 44.3898 64.56 44.8378 64.144C45.2965 63.7387 45.5258 63.1894 45.5258 62.496V60.608L45.7818 58.896L45.5258 57.2V55.2H46.9658V62.496C46.9658 63.2214 46.7951 63.856 46.4538 64.4C46.1231 64.944 45.6538 65.3707 45.0458 65.68C44.4485 65.9894 43.7551 66.144 42.9658 66.144ZM42.9658 62.672C42.2725 62.672 41.6485 62.5067 41.0938 62.176C40.5498 61.8454 40.1178 61.392 39.7978 60.816C39.4778 60.2294 39.3178 59.5734 39.3178 58.848C39.3178 58.1227 39.4778 57.4774 39.7978 56.912C40.1178 56.336 40.5498 55.8827 41.0938 55.552C41.6485 55.2107 42.2725 55.04 42.9658 55.04C43.5631 55.04 44.0911 55.1574 44.5498 55.392C45.0085 55.6267 45.3711 55.9574 45.6378 56.384C45.9151 56.8 46.0645 57.2907 46.0858 57.856V59.872C46.0538 60.4267 45.8991 60.9174 45.6218 61.344C45.3551 61.76 44.9925 62.0854 44.5338 62.32C44.0751 62.5547 43.5525 62.672 42.9658 62.672ZM43.2538 61.312C43.7231 61.312 44.1338 61.2107 44.4858 61.008C44.8485 60.8054 45.1258 60.5227 45.3178 60.16C45.5098 59.7867 45.6058 59.3547 45.6058 58.864C45.6058 58.3734 45.5045 57.9467 45.3018 57.584C45.1098 57.2107 44.8378 56.9227 44.4858 56.72C44.1338 56.5067 43.7178 56.4 43.2378 56.4C42.7578 56.4 42.3365 56.5067 41.9738 56.72C41.6111 56.9227 41.3231 57.2107 41.1098 57.584C40.9071 57.9467 40.8058 58.368 40.8058 58.848C40.8058 59.328 40.9071 59.7547 41.1098 60.128C41.3231 60.5014 41.6111 60.7947 41.9738 61.008C42.3471 61.2107 42.7738 61.312 43.2538 61.312ZM54.4554 62.8V58.368C54.4554 57.792 54.2741 57.3174 53.9114 56.944C53.5488 56.5707 53.0794 56.384 52.5034 56.384C52.1194 56.384 51.7781 56.4694 51.4794 56.64C51.1808 56.8107 50.9461 57.0454 50.7754 57.344C50.6048 57.6427 50.5194 57.984 50.5194 58.368L49.9274 58.032C49.9274 57.456 50.0554 56.944 50.3114 56.496C50.5674 56.048 50.9248 55.696 51.3834 55.44C51.8421 55.1734 52.3594 55.04 52.9354 55.04C53.5114 55.04 54.0181 55.184 54.4554 55.472C54.9034 55.76 55.2554 56.1387 55.5114 56.608C55.7674 57.0667 55.8954 57.5574 55.8954 58.08V62.8H54.4554ZM49.0794 62.8V55.2H50.5194V62.8H49.0794ZM61.3651 62.96C60.6077 62.96 59.9251 62.7894 59.3171 62.448C58.7091 62.096 58.2291 61.6214 57.8771 61.024C57.5251 60.4267 57.3491 59.7494 57.3491 58.992C57.3491 58.2454 57.5197 57.5734 57.8611 56.976C58.2131 56.3787 58.6824 55.9094 59.2691 55.568C59.8664 55.216 60.5331 55.04 61.2691 55.04C61.9731 55.04 62.5917 55.2 63.1251 55.52C63.6691 55.84 64.0904 56.2827 64.3891 56.848C64.6984 57.4134 64.8531 58.0534 64.8531 58.768C64.8531 58.8747 64.8477 58.992 64.8371 59.12C64.8264 59.2374 64.8051 59.376 64.7731 59.536H58.3571V58.336H64.0051L63.4771 58.8C63.4771 58.288 63.3864 57.856 63.2051 57.504C63.0237 57.1414 62.7677 56.864 62.4371 56.672C62.1064 56.4694 61.7064 56.368 61.2371 56.368C60.7464 56.368 60.3144 56.4747 59.9411 56.688C59.5677 56.9014 59.2797 57.2 59.0771 57.584C58.8744 57.968 58.7731 58.4214 58.7731 58.944C58.7731 59.4774 58.8797 59.9467 59.0931 60.352C59.3064 60.7467 59.6104 61.056 60.0051 61.28C60.3997 61.4934 60.8531 61.6 61.3651 61.6C61.7917 61.6 62.1811 61.5254 62.5331 61.376C62.8957 61.2267 63.2051 61.0027 63.4611 60.704L64.3891 61.648C64.0264 62.0747 63.5784 62.4 63.0451 62.624C62.5224 62.848 61.9624 62.96 61.3651 62.96ZM66.4232 62.8V55.2H67.8632V62.8H66.4232ZM67.8632 58.464L67.3192 58.224C67.3192 57.2534 67.5432 56.48 67.9912 55.904C68.4392 55.328 69.0845 55.04 69.9272 55.04C70.3112 55.04 70.6579 55.1094 70.9672 55.248C71.2765 55.376 71.5645 55.5947 71.8312 55.904L70.8872 56.88C70.7272 56.7094 70.5512 56.5867 70.3592 56.512C70.1672 56.4374 69.9432 56.4 69.6872 56.4C69.1539 56.4 68.7165 56.5707 68.3752 56.912C68.0339 57.2534 67.8632 57.7707 67.8632 58.464Z" fill="black"/>
</svg>
