<svg width="171" height="80" viewBox="0 0 171 80" fill="none" xmlns="http://www.w3.org/2000/svg">
<circle cx="40" cy="40" r="39" stroke="#626171" stroke-width="2"/>
<path d="M68.2632 23.7508C66.7843 21.2031 62.8726 18.8148 52.7569 21.475C49.3807 19.1452 45.4315 17.7834 41.3369 17.5369C37.2423 17.2904 33.1582 18.1687 29.527 20.0767C25.8957 21.9847 22.8555 24.8496 20.7355 28.3614C18.6156 31.8732 17.4967 35.898 17.4999 40C17.4999 40.5625 17.5202 41.1203 17.5609 41.6734C10.1312 49.1078 10.2577 53.6875 11.7437 56.2492C13.1405 58.6586 15.9296 59.6875 19.5343 59.6875C21.8288 59.6875 24.4562 59.2703 27.2569 58.5367C30.6339 60.8632 34.5827 62.222 38.6762 62.4659C42.7697 62.7099 46.852 61.8298 50.4813 59.9209C54.1107 58.012 57.1489 55.1469 59.2673 51.6357C61.3857 48.1244 62.5035 44.1008 62.4999 40C62.4999 39.4352 62.4788 38.8773 62.4366 38.3219C65.7905 34.9516 68.0288 31.7102 68.7648 28.9469C69.4257 26.5047 68.8562 24.7656 68.2632 23.7508ZM39.9999 23.125C43.8221 23.1302 47.5297 24.4308 50.5175 26.8145C53.5052 29.1983 55.5968 32.5244 56.4507 36.25C53.1249 39.2336 48.6718 42.482 43.2624 45.5922C38.1671 48.5195 33.0554 50.8328 28.4757 52.307C26.0095 49.9934 24.2952 46.9921 23.5553 43.6925C22.8154 40.3928 23.0838 36.947 24.3259 33.8017C25.568 30.6565 27.7264 27.957 30.5212 26.0532C33.316 24.1495 36.6183 23.1293 39.9999 23.125ZM16.6069 53.4273C16.464 53.1766 16.5671 51.5008 19.1077 48.3391C19.8969 50.309 20.9614 52.1571 22.2694 53.8281C18.2312 54.4398 16.7616 53.6898 16.6069 53.4273ZM39.9999 56.875C38.2031 56.8753 36.4179 56.5873 34.7124 56.0219C38.6175 54.4323 42.4092 52.5772 46.0608 50.4695C49.6988 48.3948 53.1891 46.0713 56.5069 43.5156C55.6969 47.2937 53.6168 50.6803 50.6132 53.1111C47.6096 55.5419 43.8639 56.8703 39.9999 56.875ZM63.3366 27.4961C63.0366 28.6164 62.2093 30.0437 60.9015 31.668C60.1123 29.6954 59.047 27.8449 57.7374 26.1719C61.4476 25.6164 63.1679 26.1719 63.3976 26.5727C63.4374 26.6406 63.4866 26.9406 63.3366 27.4961Z" fill="#626171"/>
<path d="M87.48 42.52V40.552H92.016C92.64 40.552 93.192 40.424 93.672 40.168C94.168 39.912 94.552 39.552 94.824 39.088C95.112 38.624 95.256 38.072 95.256 37.432C95.256 36.792 95.112 36.24 94.824 35.776C94.552 35.312 94.168 34.952 93.672 34.696C93.192 34.44 92.64 34.312 92.016 34.312H87.48V32.344H92.16C93.184 32.344 94.096 32.552 94.896 32.968C95.712 33.384 96.352 33.976 96.816 34.744C97.296 35.496 97.536 36.392 97.536 37.432C97.536 38.456 97.296 39.352 96.816 40.12C96.352 40.872 95.712 41.464 94.896 41.896C94.096 42.312 93.184 42.52 92.16 42.52H87.48ZM85.968 49V32.344H88.224V49H85.968ZM100.139 49V37.6H102.299V49H100.139ZM102.299 42.496L101.483 42.136C101.483 40.68 101.819 39.52 102.491 38.656C103.163 37.792 104.131 37.36 105.395 37.36C105.971 37.36 106.491 37.464 106.955 37.672C107.419 37.864 107.851 38.192 108.251 38.656L106.835 40.12C106.595 39.864 106.331 39.68 106.043 39.568C105.755 39.456 105.419 39.4 105.035 39.4C104.235 39.4 103.579 39.656 103.067 40.168C102.555 40.68 102.299 41.456 102.299 42.496ZM114.605 49.24C113.485 49.24 112.477 48.976 111.581 48.448C110.685 47.92 109.973 47.208 109.445 46.312C108.917 45.4 108.653 44.384 108.653 43.264C108.653 42.16 108.917 41.168 109.445 40.288C109.973 39.392 110.685 38.68 111.581 38.152C112.477 37.624 113.485 37.36 114.605 37.36C115.709 37.36 116.709 37.624 117.605 38.152C118.517 38.664 119.237 39.368 119.765 40.264C120.293 41.16 120.557 42.16 120.557 43.264C120.557 44.384 120.293 45.4 119.765 46.312C119.237 47.208 118.517 47.92 117.605 48.448C116.709 48.976 115.709 49.24 114.605 49.24ZM114.605 47.152C115.325 47.152 115.965 46.984 116.525 46.648C117.085 46.312 117.525 45.856 117.845 45.28C118.165 44.688 118.325 44.016 118.325 43.264C118.325 42.528 118.157 41.872 117.821 41.296C117.501 40.72 117.061 40.272 116.501 39.952C115.957 39.616 115.325 39.448 114.605 39.448C113.885 39.448 113.245 39.616 112.685 39.952C112.125 40.272 111.685 40.72 111.365 41.296C111.045 41.872 110.885 42.528 110.885 43.264C110.885 44.016 111.045 44.688 111.365 45.28C111.685 45.856 112.125 46.312 112.685 46.648C113.245 46.984 113.885 47.152 114.605 47.152ZM121.55 54.016C120.814 54.016 120.198 53.896 119.702 53.656C119.19 53.416 118.734 53.072 118.334 52.624L119.726 51.208C119.95 51.48 120.198 51.68 120.47 51.808C120.726 51.936 121.038 52 121.406 52C121.886 52 122.302 51.848 122.654 51.544C123.006 51.256 123.182 50.816 123.182 50.224V37.6H125.342V50.2C125.342 51.032 125.166 51.728 124.814 52.288C124.462 52.848 123.998 53.272 123.422 53.56C122.846 53.864 122.222 54.016 121.55 54.016ZM124.286 35.32C123.902 35.32 123.582 35.192 123.326 34.936C123.07 34.664 122.942 34.328 122.942 33.928C122.942 33.544 123.07 33.224 123.326 32.968C123.582 32.696 123.902 32.56 124.286 32.56C124.686 32.56 125.014 32.696 125.27 32.968C125.526 33.224 125.654 33.544 125.654 33.928C125.654 34.328 125.526 34.664 125.27 34.936C125.014 35.192 124.686 35.32 124.286 35.32ZM133.802 49.24C132.666 49.24 131.642 48.984 130.73 48.472C129.818 47.944 129.098 47.232 128.57 46.336C128.042 45.44 127.778 44.424 127.778 43.288C127.778 42.168 128.034 41.16 128.546 40.264C129.074 39.368 129.778 38.664 130.658 38.152C131.554 37.624 132.554 37.36 133.658 37.36C134.714 37.36 135.642 37.6 136.442 38.08C137.258 38.56 137.89 39.224 138.338 40.072C138.802 40.92 139.034 41.88 139.034 42.952C139.034 43.112 139.026 43.288 139.01 43.48C138.994 43.656 138.962 43.864 138.914 44.104H129.29V42.304H137.762L136.97 43C136.97 42.232 136.834 41.584 136.562 41.056C136.29 40.512 135.906 40.096 135.41 39.808C134.914 39.504 134.314 39.352 133.61 39.352C132.874 39.352 132.226 39.512 131.666 39.832C131.106 40.152 130.674 40.6 130.37 41.176C130.066 41.752 129.914 42.432 129.914 43.216C129.914 44.016 130.074 44.72 130.394 45.328C130.714 45.92 131.17 46.384 131.762 46.72C132.354 47.04 133.034 47.2 133.802 47.2C134.442 47.2 135.026 47.088 135.554 46.864C136.098 46.64 136.562 46.304 136.946 45.856L138.338 47.272C137.794 47.912 137.122 48.4 136.322 48.736C135.538 49.072 134.698 49.24 133.802 49.24ZM146.597 49.24C145.477 49.24 144.461 48.976 143.549 48.448C142.653 47.92 141.941 47.208 141.413 46.312C140.901 45.4 140.645 44.392 140.645 43.288C140.645 42.168 140.901 41.16 141.413 40.264C141.941 39.368 142.653 38.664 143.549 38.152C144.461 37.624 145.477 37.36 146.597 37.36C147.477 37.36 148.293 37.528 149.045 37.864C149.797 38.184 150.445 38.656 150.989 39.28L149.549 40.72C149.197 40.304 148.765 39.992 148.253 39.784C147.757 39.56 147.205 39.448 146.597 39.448C145.877 39.448 145.237 39.616 144.677 39.952C144.117 40.272 143.677 40.72 143.357 41.296C143.037 41.872 142.877 42.536 142.877 43.288C142.877 44.04 143.037 44.704 143.357 45.28C143.677 45.856 144.117 46.312 144.677 46.648C145.237 46.984 145.877 47.152 146.597 47.152C147.205 47.152 147.757 47.048 148.253 46.84C148.765 46.616 149.205 46.296 149.573 45.88L150.989 47.32C150.461 47.928 149.813 48.4 149.045 48.736C148.293 49.072 147.477 49.24 146.597 49.24ZM154.742 49V32.824H156.902V49H154.742ZM151.934 39.568V37.6H159.71V39.568H151.934ZM165.216 49.24C164.576 49.24 163.968 49.16 163.392 49C162.832 48.824 162.312 48.584 161.832 48.28C161.352 47.96 160.936 47.584 160.584 47.152L161.976 45.76C162.392 46.272 162.872 46.656 163.416 46.912C163.96 47.152 164.568 47.272 165.24 47.272C165.912 47.272 166.432 47.16 166.8 46.936C167.168 46.696 167.352 46.368 167.352 45.952C167.352 45.536 167.2 45.216 166.896 44.992C166.608 44.752 166.232 44.56 165.768 44.416C165.304 44.256 164.808 44.104 164.28 43.96C163.768 43.8 163.28 43.6 162.816 43.36C162.352 43.12 161.968 42.792 161.664 42.376C161.376 41.96 161.232 41.408 161.232 40.72C161.232 40.032 161.4 39.44 161.736 38.944C162.072 38.432 162.536 38.04 163.128 37.768C163.736 37.496 164.464 37.36 165.312 37.36C166.208 37.36 167 37.52 167.688 37.84C168.392 38.144 168.968 38.608 169.416 39.232L168.024 40.624C167.704 40.208 167.304 39.888 166.824 39.664C166.36 39.44 165.832 39.328 165.24 39.328C164.616 39.328 164.136 39.44 163.8 39.664C163.48 39.872 163.32 40.168 163.32 40.552C163.32 40.936 163.464 41.232 163.752 41.44C164.04 41.648 164.416 41.824 164.88 41.968C165.36 42.112 165.856 42.264 166.368 42.424C166.88 42.568 167.368 42.768 167.832 43.024C168.296 43.28 168.672 43.624 168.96 44.056C169.264 44.488 169.416 45.056 169.416 45.76C169.416 46.832 169.032 47.68 168.264 48.304C167.512 48.928 166.496 49.24 165.216 49.24Z" fill="#626171"/>
</svg>
