<svg width="96" height="92" viewBox="0 0 96 92" fill="none" xmlns="http://www.w3.org/2000/svg">
<circle cx="48" cy="30" r="29" stroke="#135279" strokeWidth="2"/>
<path d="M66.842 19.1672C65.856 17.4687 63.2482 15.8766 56.5045 17.65C54.2537 16.0968 51.6209 15.1889 48.8911 15.0246C46.1614 14.8603 43.4387 15.4458 41.0178 16.7178C38.5969 17.9898 36.5701 19.8998 35.1569 22.2409C33.7436 24.5821 32.9976 27.2653 32.9998 30C32.9998 30.375 33.0133 30.7469 33.0404 31.1156C28.0873 36.0719 28.1717 39.125 29.1623 40.8328C30.0935 42.4391 31.9529 43.125 34.356 43.125C35.8857 43.125 37.6373 42.8469 39.5045 42.3578C41.7557 43.9088 44.3883 44.8146 47.1173 44.9773C49.8463 45.1399 52.5678 44.5532 54.9874 43.2806C57.407 42.008 59.4324 40.0979 60.8447 37.7571C62.257 35.4163 63.0022 32.7338 62.9998 30C62.9998 29.6234 62.9857 29.2516 62.9576 28.8812C65.1935 26.6344 66.6857 24.4734 67.1763 22.6312C67.617 21.0031 67.2373 19.8437 66.842 19.1672ZM47.9998 18.75C50.5479 18.7534 53.0196 19.6205 55.0115 21.2097C57.0033 22.7989 58.3977 25.0163 58.967 27.5C56.7498 29.4891 53.781 31.6547 50.1748 33.7281C46.7779 35.6797 43.3701 37.2219 40.317 38.2047C38.6728 36.6622 37.53 34.6614 37.0367 32.4616C36.5434 30.2619 36.7224 27.9646 37.5504 25.8678C38.3785 23.771 39.8174 21.9713 41.6806 20.7021C43.5438 19.433 45.7454 18.7529 47.9998 18.75ZM32.4045 38.9516C32.3092 38.7844 32.3779 37.6672 34.0717 35.5594C34.5977 36.8727 35.3074 38.1047 36.1795 39.2187C33.4873 39.6266 32.5076 39.1266 32.4045 38.9516ZM47.9998 41.25C46.8019 41.2502 45.6118 41.0582 44.4748 40.6812C47.0782 39.6215 49.606 38.3848 52.0404 36.9797C54.4657 35.5965 56.7926 34.0475 59.0045 32.3437C58.4644 34.8625 57.0777 37.1202 55.0753 38.7407C53.0729 40.3613 50.5758 41.2469 47.9998 41.25ZM63.5576 21.6641C63.3576 22.4109 62.806 23.3625 61.9342 24.4453C61.408 23.1303 60.6978 21.8966 59.8248 20.7812C62.2982 20.4109 63.4451 20.7812 63.5982 21.0484C63.6248 21.0937 63.6576 21.2937 63.5576 21.6641Z" fill="#135279"/>
<path d="M21.32 77.68V76.368H24.344C24.76 76.368 25.128 76.2827 25.448 76.112C25.7787 75.9413 26.0347 75.7013 26.216 75.392C26.408 75.0827 26.504 74.7147 26.504 74.288C26.504 73.8613 26.408 73.4933 26.216 73.184C26.0347 72.8747 25.7787 72.6347 25.448 72.464C25.128 72.2933 24.76 72.208 24.344 72.208H21.32V70.896H24.44C25.1227 70.896 25.7307 71.0347 26.264 71.312C26.808 71.5893 27.2347 71.984 27.544 72.496C27.864 72.9973 28.024 73.5947 28.024 74.288C28.024 74.9707 27.864 75.568 27.544 76.08C27.2347 76.5813 26.808 76.976 26.264 77.264C25.7307 77.5413 25.1227 77.68 24.44 77.68H21.32ZM20.312 82V70.896H21.816V82H20.312ZM29.7591 82V74.4H31.1991V82H29.7591ZM31.1991 77.664L30.6551 77.424C30.6551 76.4533 30.8791 75.68 31.3271 75.104C31.7751 74.528 32.4205 74.24 33.2631 74.24C33.6471 74.24 33.9938 74.3093 34.3031 74.448C34.6125 74.576 34.9005 74.7947 35.1671 75.104L34.2231 76.08C34.0631 75.9093 33.8871 75.7867 33.6951 75.712C33.5031 75.6373 33.2791 75.6 33.0231 75.6C32.4898 75.6 32.0525 75.7707 31.7111 76.112C31.3698 76.4533 31.1991 76.9707 31.1991 77.664ZM39.403 82.16C38.6563 82.16 37.9843 81.984 37.387 81.632C36.7897 81.28 36.315 80.8053 35.963 80.208C35.611 79.6 35.435 78.9227 35.435 78.176C35.435 77.44 35.611 76.7787 35.963 76.192C36.315 75.5947 36.7897 75.12 37.387 74.768C37.9843 74.416 38.6563 74.24 39.403 74.24C40.139 74.24 40.8057 74.416 41.403 74.768C42.011 75.1093 42.491 75.5787 42.843 76.176C43.195 76.7733 43.371 77.44 43.371 78.176C43.371 78.9227 43.195 79.6 42.843 80.208C42.491 80.8053 42.011 81.28 41.403 81.632C40.8057 81.984 40.139 82.16 39.403 82.16ZM39.403 80.768C39.883 80.768 40.3097 80.656 40.683 80.432C41.0563 80.208 41.3497 79.904 41.563 79.52C41.7763 79.1253 41.883 78.6773 41.883 78.176C41.883 77.6853 41.771 77.248 41.547 76.864C41.3337 76.48 41.0403 76.1813 40.667 75.968C40.3043 75.744 39.883 75.632 39.403 75.632C38.923 75.632 38.4963 75.744 38.123 75.968C37.7497 76.1813 37.4563 76.48 37.243 76.864C37.0297 77.248 36.923 77.6853 36.923 78.176C36.923 78.6773 37.0297 79.1253 37.243 79.52C37.4563 79.904 37.7497 80.208 38.123 80.432C38.4963 80.656 38.923 80.768 39.403 80.768ZM44.0335 85.344C43.5428 85.344 43.1322 85.264 42.8015 85.104C42.4602 84.944 42.1562 84.7147 41.8895 84.416L42.8175 83.472C42.9668 83.6533 43.1322 83.7867 43.3135 83.872C43.4842 83.9573 43.6922 84 43.9375 84C44.2575 84 44.5348 83.8987 44.7695 83.696C45.0042 83.504 45.1215 83.2107 45.1215 82.816V74.4H46.5615V82.8C46.5615 83.3547 46.4442 83.8187 46.2095 84.192C45.9748 84.5653 45.6655 84.848 45.2815 85.04C44.8975 85.2427 44.4815 85.344 44.0335 85.344ZM45.8575 72.88C45.6015 72.88 45.3882 72.7947 45.2175 72.624C45.0468 72.4427 44.9615 72.2187 44.9615 71.952C44.9615 71.696 45.0468 71.4827 45.2175 71.312C45.3882 71.1307 45.6015 71.04 45.8575 71.04C46.1242 71.04 46.3428 71.1307 46.5135 71.312C46.6842 71.4827 46.7695 71.696 46.7695 71.952C46.7695 72.2187 46.6842 72.4427 46.5135 72.624C46.3428 72.7947 46.1242 72.88 45.8575 72.88ZM52.201 82.16C51.4437 82.16 50.761 81.9893 50.153 81.648C49.545 81.296 49.065 80.8213 48.713 80.224C48.361 79.6267 48.185 78.9493 48.185 78.192C48.185 77.4453 48.3557 76.7733 48.697 76.176C49.049 75.5787 49.5183 75.1093 50.105 74.768C50.7023 74.416 51.369 74.24 52.105 74.24C52.809 74.24 53.4277 74.4 53.961 74.72C54.505 75.04 54.9263 75.4827 55.225 76.048C55.5343 76.6133 55.689 77.2533 55.689 77.968C55.689 78.0747 55.6837 78.192 55.673 78.32C55.6623 78.4373 55.641 78.576 55.609 78.736H49.193V77.536H54.841L54.313 78C54.313 77.488 54.2223 77.056 54.041 76.704C53.8597 76.3413 53.6037 76.064 53.273 75.872C52.9423 75.6693 52.5423 75.568 52.073 75.568C51.5823 75.568 51.1503 75.6747 50.777 75.888C50.4037 76.1013 50.1157 76.4 49.913 76.784C49.7103 77.168 49.609 77.6213 49.609 78.144C49.609 78.6773 49.7157 79.1467 49.929 79.552C50.1423 79.9467 50.4463 80.256 50.841 80.48C51.2357 80.6933 51.689 80.8 52.201 80.8C52.6277 80.8 53.017 80.7253 53.369 80.576C53.7317 80.4267 54.041 80.2027 54.297 79.904L55.225 80.848C54.8623 81.2747 54.4143 81.6 53.881 81.824C53.3583 82.048 52.7983 82.16 52.201 82.16ZM60.7311 82.16C59.9845 82.16 59.3071 81.984 58.6991 81.632C58.1018 81.28 57.6271 80.8053 57.2751 80.208C56.9338 79.6 56.7631 78.928 56.7631 78.192C56.7631 77.4453 56.9338 76.7733 57.2751 76.176C57.6271 75.5787 58.1018 75.1093 58.6991 74.768C59.3071 74.416 59.9845 74.24 60.7311 74.24C61.3178 74.24 61.8618 74.352 62.3631 74.576C62.8645 74.7893 63.2965 75.104 63.6591 75.52L62.6991 76.48C62.4645 76.2027 62.1765 75.9947 61.8351 75.856C61.5045 75.7067 61.1365 75.632 60.7311 75.632C60.2511 75.632 59.8245 75.744 59.4511 75.968C59.0778 76.1813 58.7845 76.48 58.5711 76.864C58.3578 77.248 58.2511 77.6907 58.2511 78.192C58.2511 78.6933 58.3578 79.136 58.5711 79.52C58.7845 79.904 59.0778 80.208 59.4511 80.432C59.8245 80.656 60.2511 80.768 60.7311 80.768C61.1365 80.768 61.5045 80.6987 61.8351 80.56C62.1765 80.4107 62.4698 80.1973 62.7151 79.92L63.6591 80.88C63.3071 81.2853 62.8751 81.6 62.3631 81.824C61.8618 82.048 61.3178 82.16 60.7311 82.16ZM66.1615 82V71.216H67.6015V82H66.1615ZM64.2895 75.712V74.4H69.4735V75.712H64.2895ZM73.1439 82.16C72.7172 82.16 72.3119 82.1067 71.9279 82C71.5545 81.8827 71.2079 81.7227 70.8879 81.52C70.5679 81.3067 70.2905 81.056 70.0559 80.768L70.9839 79.84C71.2612 80.1813 71.5812 80.4373 71.9439 80.608C72.3065 80.768 72.7119 80.848 73.1599 80.848C73.6079 80.848 73.9545 80.7733 74.1999 80.624C74.4452 80.464 74.5679 80.2453 74.5679 79.968C74.5679 79.6907 74.4665 79.4773 74.2639 79.328C74.0719 79.168 73.8212 79.04 73.5119 78.944C73.2025 78.8373 72.8719 78.736 72.5199 78.64C72.1785 78.5333 71.8532 78.4 71.5439 78.24C71.2345 78.08 70.9785 77.8613 70.7759 77.584C70.5839 77.3067 70.4879 76.9387 70.4879 76.48C70.4879 76.0213 70.5999 75.6267 70.8239 75.296C71.0479 74.9547 71.3572 74.6933 71.7519 74.512C72.1572 74.3307 72.6425 74.24 73.2079 74.24C73.8052 74.24 74.3332 74.3467 74.7919 74.56C75.2612 74.7627 75.6452 75.072 75.9439 75.488L75.0159 76.416C74.8025 76.1387 74.5359 75.9253 74.2159 75.776C73.9065 75.6267 73.5545 75.552 73.1599 75.552C72.7439 75.552 72.4239 75.6267 72.1999 75.776C71.9865 75.9147 71.8799 76.112 71.8799 76.368C71.8799 76.624 71.9759 76.8213 72.1679 76.96C72.3599 77.0987 72.6105 77.216 72.9199 77.312C73.2399 77.408 73.5705 77.5093 73.9119 77.616C74.2532 77.712 74.5785 77.8453 74.8879 78.016C75.1972 78.1867 75.4479 78.416 75.6399 78.704C75.8425 78.992 75.9439 79.3707 75.9439 79.84C75.9439 80.5547 75.6879 81.12 75.1759 81.536C74.6745 81.952 73.9972 82.16 73.1439 82.16Z" fill="black"/>
</svg>
