<svg width="80" height="93" viewBox="0 0 80 93" fill="none" xmlns="http://www.w3.org/2000/svg">
<circle cx="40" cy="20.6001" r="19" stroke="#ED4068" stroke-width="2"/>
<path d="M32.1666 29.4335C31.5937 29.4335 31.103 29.2293 30.6947 28.821C30.2864 28.4127 30.0826 27.9224 30.0833 27.3502V14.8502C30.0833 14.2773 30.2874 13.7866 30.6958 13.3783C31.1041 12.97 31.5944 12.7662 32.1666 12.7668H38.4166L40.4999 14.8502H48.8333C49.4062 14.8502 49.8968 15.0543 50.3051 15.4627C50.7135 15.871 50.9173 16.3613 50.9166 16.9335V20.371C50.5867 20.2321 50.2437 20.1408 49.8874 20.0971C49.5312 20.0533 49.1798 20.0578 48.8333 20.1106V16.9335H39.6405L37.5572 14.8502H32.1666V27.3502H40.6041L40.4999 27.4543V29.4335H32.1666ZM42.5833 31.5168V28.3137L48.3385 22.5846C48.4947 22.4283 48.6683 22.3155 48.8593 22.246C49.0503 22.1766 49.2412 22.1418 49.4322 22.1418C49.6405 22.1418 49.8402 22.1811 50.0312 22.2596C50.2221 22.338 50.3958 22.455 50.552 22.6106L51.5155 23.5741C51.6544 23.7304 51.7631 23.904 51.8416 24.095C51.9201 24.2859 51.9589 24.4769 51.9583 24.6679C51.9583 24.8589 51.9235 25.0543 51.8541 25.2543C51.7846 25.4543 51.6718 25.6321 51.5155 25.7877L45.7864 31.5168H42.5833ZM44.1458 29.9543H45.1353L48.2864 26.7773L47.8176 26.2825L47.3228 25.8137L44.1458 28.9648V29.9543ZM47.8176 26.2825L47.3228 25.8137L48.2864 26.7773L47.8176 26.2825Z" fill="#ED4068"/>
<path d="M14.2575 58.2801V56.9681H17.2815C17.6975 56.9681 18.0655 56.8828 18.3855 56.7121C18.7162 56.5414 18.9722 56.3014 19.1535 55.9921C19.3455 55.6828 19.4415 55.3148 19.4415 54.8881C19.4415 54.4614 19.3455 54.0934 19.1535 53.7841C18.9722 53.4748 18.7162 53.2348 18.3855 53.0641C18.0655 52.8934 17.6975 52.8081 17.2815 52.8081H14.2575V51.4961H17.3775C18.0602 51.4961 18.6682 51.6348 19.2015 51.9121C19.7455 52.1894 20.1722 52.5841 20.4815 53.0961C20.8015 53.5974 20.9615 54.1948 20.9615 54.8881C20.9615 55.5708 20.8015 56.1681 20.4815 56.6801C20.1722 57.1814 19.7455 57.5761 19.2015 57.8641C18.6682 58.1414 18.0602 58.2801 17.3775 58.2801H14.2575ZM13.2495 62.6001V51.4961H14.7535V62.6001H13.2495ZM22.6966 62.6001V55.0001H24.1366V62.6001H22.6966ZM24.1366 58.2641L23.5926 58.0241C23.5926 57.0534 23.8166 56.2801 24.2646 55.7041C24.7126 55.1281 25.358 54.8401 26.2006 54.8401C26.5846 54.8401 26.9313 54.9094 27.2406 55.0481C27.55 55.1761 27.838 55.3948 28.1046 55.7041L27.1606 56.6801C27.0006 56.5094 26.8246 56.3868 26.6326 56.3121C26.4406 56.2374 26.2166 56.2001 25.9606 56.2001C25.4273 56.2001 24.99 56.3708 24.6486 56.7121C24.3073 57.0534 24.1366 57.5708 24.1366 58.2641ZM32.3405 62.7601C31.5938 62.7601 30.9218 62.5841 30.3245 62.2321C29.7272 61.8801 29.2525 61.4054 28.9005 60.8081C28.5485 60.2001 28.3725 59.5228 28.3725 58.7761C28.3725 58.0401 28.5485 57.3788 28.9005 56.7921C29.2525 56.1948 29.7272 55.7201 30.3245 55.3681C30.9218 55.0161 31.5938 54.8401 32.3405 54.8401C33.0765 54.8401 33.7432 55.0161 34.3405 55.3681C34.9485 55.7094 35.4285 56.1788 35.7805 56.7761C36.1325 57.3734 36.3085 58.0401 36.3085 58.7761C36.3085 59.5228 36.1325 60.2001 35.7805 60.8081C35.4285 61.4054 34.9485 61.8801 34.3405 62.2321C33.7432 62.5841 33.0765 62.7601 32.3405 62.7601ZM32.3405 61.3681C32.8205 61.3681 33.2472 61.2561 33.6205 61.0321C33.9938 60.8081 34.2872 60.5041 34.5005 60.1201C34.7138 59.7254 34.8205 59.2774 34.8205 58.7761C34.8205 58.2854 34.7085 57.8481 34.4845 57.4641C34.2712 57.0801 33.9778 56.7814 33.6045 56.5681C33.2418 56.3441 32.8205 56.2321 32.3405 56.2321C31.8605 56.2321 31.4338 56.3441 31.0605 56.5681C30.6872 56.7814 30.3938 57.0801 30.1805 57.4641C29.9672 57.8481 29.8605 58.2854 29.8605 58.7761C29.8605 59.2774 29.9672 59.7254 30.1805 60.1201C30.3938 60.5041 30.6872 60.8081 31.0605 61.0321C31.4338 61.2561 31.8605 61.3681 32.3405 61.3681ZM41.147 62.7601C40.443 62.7601 39.8137 62.5894 39.259 62.2481C38.7043 61.8961 38.2617 61.4214 37.931 60.8241C37.611 60.2268 37.451 59.5548 37.451 58.8081C37.451 58.0614 37.611 57.3894 37.931 56.7921C38.2617 56.1948 38.7043 55.7201 39.259 55.3681C39.8137 55.0161 40.443 54.8401 41.147 54.8401C41.7123 54.8401 42.2243 54.9628 42.683 55.2081C43.1417 55.4428 43.5097 55.7734 43.787 56.2001C44.075 56.6161 44.235 57.1014 44.267 57.6561V59.9441C44.235 60.4881 44.0803 60.9734 43.803 61.4001C43.5257 61.8268 43.1577 62.1628 42.699 62.4081C42.2403 62.6428 41.723 62.7601 41.147 62.7601ZM41.387 61.4001C41.867 61.4001 42.283 61.2881 42.635 61.0641C42.9977 60.8401 43.2803 60.5361 43.483 60.1521C43.6857 59.7574 43.787 59.3094 43.787 58.8081C43.787 58.2854 43.6803 57.8321 43.467 57.4481C43.2643 57.0641 42.9817 56.7601 42.619 56.5361C42.267 56.3121 41.851 56.2001 41.371 56.2001C40.891 56.2001 40.4697 56.3121 40.107 56.5361C39.7443 56.7601 39.4563 57.0694 39.243 57.4641C39.0403 57.8481 38.939 58.2908 38.939 58.7921C38.939 59.3041 39.0403 59.7574 39.243 60.1521C39.4563 60.5361 39.7443 60.8401 40.107 61.0641C40.4803 61.2881 40.907 61.4001 41.387 61.4001ZM45.147 62.6001H43.691V60.5521L43.963 58.6961L43.691 56.8561V51.1761H45.147V62.6001ZM50.2995 62.7601C49.6808 62.7601 49.1208 62.6214 48.6195 62.3441C48.1288 62.0561 47.7448 61.6614 47.4675 61.1601C47.1902 60.6588 47.0515 60.0774 47.0515 59.4161V55.0001H48.4915V59.3521C48.4915 59.7681 48.5608 60.1308 48.6995 60.4401C48.8488 60.7388 49.0622 60.9681 49.3395 61.1281C49.6168 61.2881 49.9422 61.3681 50.3155 61.3681C50.8808 61.3681 51.3235 61.1921 51.6435 60.8401C51.9635 60.4774 52.1235 59.9814 52.1235 59.3521V55.0001H53.5635V59.4161C53.5635 60.0774 53.4248 60.6588 53.1475 61.1601C52.8702 61.6614 52.4862 62.0561 51.9955 62.3441C51.5155 62.6214 50.9502 62.7601 50.2995 62.7601ZM58.9655 62.7601C58.2188 62.7601 57.5415 62.5841 56.9335 62.2321C56.3362 61.8801 55.8615 61.4054 55.5095 60.8081C55.1682 60.2001 54.9975 59.5281 54.9975 58.7921C54.9975 58.0454 55.1682 57.3734 55.5095 56.7761C55.8615 56.1788 56.3362 55.7094 56.9335 55.3681C57.5415 55.0161 58.2188 54.8401 58.9655 54.8401C59.5522 54.8401 60.0962 54.9521 60.5975 55.1761C61.0988 55.3894 61.5308 55.7041 61.8935 56.1201L60.9335 57.0801C60.6988 56.8028 60.4108 56.5948 60.0695 56.4561C59.7388 56.3068 59.3708 56.2321 58.9655 56.2321C58.4855 56.2321 58.0588 56.3441 57.6855 56.5681C57.3122 56.7814 57.0188 57.0801 56.8055 57.4641C56.5922 57.8481 56.4855 58.2908 56.4855 58.7921C56.4855 59.2934 56.5922 59.7361 56.8055 60.1201C57.0188 60.5041 57.3122 60.8081 57.6855 61.0321C58.0588 61.2561 58.4855 61.3681 58.9655 61.3681C59.3708 61.3681 59.7388 61.2988 60.0695 61.1601C60.4108 61.0108 60.7042 60.7974 60.9495 60.5201L61.8935 61.4801C61.5415 61.8854 61.1095 62.2001 60.5975 62.4241C60.0962 62.6481 59.5522 62.7601 58.9655 62.7601ZM64.3959 62.6001V51.8161H65.8359V62.6001H64.3959ZM62.5239 56.3121V55.0001H67.7079V56.3121H62.5239ZM8.63231 86.6001V75.4961H9.68831L14.3923 83.2241H13.6723L18.3763 75.4961H19.4323V86.6001H17.9283V78.1361L18.2803 78.2321L14.5683 84.3281H13.5123L9.80031 78.2321L10.1363 78.1361V86.6001H8.63231ZM25.0302 86.7601C24.3369 86.7601 23.7075 86.5894 23.1422 86.2481C22.5769 85.8961 22.1289 85.4214 21.7982 84.8241C21.4782 84.2268 21.3182 83.5548 21.3182 82.8081C21.3182 82.0614 21.4782 81.3894 21.7982 80.7921C22.1289 80.1948 22.5715 79.7201 23.1262 79.3681C23.6915 79.0161 24.3262 78.8401 25.0302 78.8401C25.6062 78.8401 26.1182 78.9628 26.5662 79.2081C27.0249 79.4428 27.3929 79.7734 27.6702 80.2001C27.9475 80.6161 28.1022 81.1014 28.1342 81.6561V83.9441C28.1022 84.4881 27.9475 84.9734 27.6702 85.4001C27.4035 85.8268 27.0409 86.1628 26.5822 86.4081C26.1342 86.6428 25.6169 86.7601 25.0302 86.7601ZM25.2702 85.4001C25.9849 85.4001 26.5609 85.1601 26.9982 84.6801C27.4355 84.1894 27.6542 83.5654 27.6542 82.8081C27.6542 82.2854 27.5529 81.8321 27.3502 81.4481C27.1582 81.0534 26.8809 80.7494 26.5182 80.5361C26.1555 80.3121 25.7342 80.2001 25.2542 80.2001C24.7742 80.2001 24.3475 80.3121 23.9742 80.5361C23.6115 80.7601 23.3235 81.0694 23.1102 81.4641C22.9075 81.8481 22.8062 82.2908 22.8062 82.7921C22.8062 83.3041 22.9075 83.7574 23.1102 84.1521C23.3235 84.5361 23.6169 84.8401 23.9902 85.0641C24.3635 85.2881 24.7902 85.4001 25.2702 85.4001ZM27.5582 86.6001V84.5521L27.8302 82.6961L27.5582 80.8561V79.0001H29.0142V86.6001H27.5582ZM36.4867 86.6001V82.1681C36.4867 81.5921 36.3054 81.1174 35.9427 80.7441C35.58 80.3708 35.1107 80.1841 34.5347 80.1841C34.1507 80.1841 33.8094 80.2694 33.5107 80.4401C33.212 80.6108 32.9774 80.8454 32.8067 81.1441C32.636 81.4428 32.5507 81.7841 32.5507 82.1681L31.9587 81.8321C31.9587 81.2561 32.0867 80.7441 32.3427 80.2961C32.5987 79.8481 32.956 79.4961 33.4147 79.2401C33.8734 78.9734 34.3907 78.8401 34.9667 78.8401C35.5427 78.8401 36.0494 78.9841 36.4867 79.2721C36.9347 79.5601 37.2867 79.9388 37.5427 80.4081C37.7987 80.8668 37.9267 81.3574 37.9267 81.8801V86.6001H36.4867ZM31.1107 86.6001V79.0001H32.5507V86.6001H31.1107ZM43.1083 86.7601C42.415 86.7601 41.7856 86.5894 41.2203 86.2481C40.655 85.8961 40.207 85.4214 39.8763 84.8241C39.5563 84.2268 39.3963 83.5548 39.3963 82.8081C39.3963 82.0614 39.5563 81.3894 39.8763 80.7921C40.207 80.1948 40.6496 79.7201 41.2043 79.3681C41.7696 79.0161 42.4043 78.8401 43.1083 78.8401C43.6843 78.8401 44.1963 78.9628 44.6443 79.2081C45.103 79.4428 45.471 79.7734 45.7483 80.2001C46.0256 80.6161 46.1803 81.1014 46.2123 81.6561V83.9441C46.1803 84.4881 46.0256 84.9734 45.7483 85.4001C45.4816 85.8268 45.119 86.1628 44.6603 86.4081C44.2123 86.6428 43.695 86.7601 43.1083 86.7601ZM43.3483 85.4001C44.063 85.4001 44.639 85.1601 45.0763 84.6801C45.5136 84.1894 45.7323 83.5654 45.7323 82.8081C45.7323 82.2854 45.631 81.8321 45.4283 81.4481C45.2363 81.0534 44.959 80.7494 44.5963 80.5361C44.2336 80.3121 43.8123 80.2001 43.3323 80.2001C42.8523 80.2001 42.4256 80.3121 42.0523 80.5361C41.6896 80.7601 41.4016 81.0694 41.1883 81.4641C40.9856 81.8481 40.8843 82.2908 40.8843 82.7921C40.8843 83.3041 40.9856 83.7574 41.1883 84.1521C41.4016 84.5361 41.695 84.8401 42.0683 85.0641C42.4416 85.2881 42.8683 85.4001 43.3483 85.4001ZM45.6363 86.6001V84.5521L45.9083 82.6961L45.6363 80.8561V79.0001H47.0923V86.6001H45.6363ZM52.3408 89.9441C51.5621 89.9441 50.8688 89.8001 50.2608 89.5121C49.6635 89.2241 49.1835 88.8188 48.8208 88.2961L49.7488 87.3521C50.0581 87.7468 50.4261 88.0454 50.8528 88.2481C51.2795 88.4614 51.7861 88.5681 52.3728 88.5681C53.1515 88.5681 53.7648 88.3601 54.2128 87.9441C54.6715 87.5388 54.9008 86.9894 54.9008 86.2961V84.4081L55.1568 82.6961L54.9008 81.0001V79.0001H56.3408V86.2961C56.3408 87.0214 56.1701 87.6561 55.8288 88.2001C55.4981 88.7441 55.0288 89.1708 54.4208 89.4801C53.8235 89.7894 53.1301 89.9441 52.3408 89.9441ZM52.3408 86.4721C51.6475 86.4721 51.0235 86.3068 50.4688 85.9761C49.9248 85.6454 49.4928 85.1921 49.1728 84.6161C48.8528 84.0294 48.6928 83.3734 48.6928 82.6481C48.6928 81.9228 48.8528 81.2774 49.1728 80.7121C49.4928 80.1361 49.9248 79.6828 50.4688 79.3521C51.0235 79.0108 51.6475 78.8401 52.3408 78.8401C52.9381 78.8401 53.4661 78.9574 53.9248 79.1921C54.3835 79.4268 54.7461 79.7574 55.0128 80.1841C55.2901 80.6001 55.4395 81.0908 55.4608 81.6561V83.6721C55.4288 84.2268 55.2741 84.7174 54.9968 85.1441C54.7301 85.5601 54.3675 85.8854 53.9088 86.1201C53.4501 86.3548 52.9275 86.4721 52.3408 86.4721ZM52.6288 85.1121C53.0981 85.1121 53.5088 85.0108 53.8608 84.8081C54.2235 84.6054 54.5008 84.3228 54.6928 83.9601C54.8848 83.5868 54.9808 83.1548 54.9808 82.6641C54.9808 82.1734 54.8795 81.7468 54.6768 81.3841C54.4848 81.0108 54.2128 80.7228 53.8608 80.5201C53.5088 80.3068 53.0928 80.2001 52.6128 80.2001C52.1328 80.2001 51.7115 80.3068 51.3488 80.5201C50.9861 80.7228 50.6981 81.0108 50.4848 81.3841C50.2821 81.7468 50.1808 82.1681 50.1808 82.6481C50.1808 83.1281 50.2821 83.5548 50.4848 83.9281C50.6981 84.3014 50.9861 84.5948 51.3488 84.8081C51.7221 85.0108 52.1488 85.1121 52.6288 85.1121ZM61.9744 86.7601C61.2171 86.7601 60.5344 86.5894 59.9264 86.2481C59.3184 85.8961 58.8384 85.4214 58.4864 84.8241C58.1344 84.2268 57.9584 83.5494 57.9584 82.7921C57.9584 82.0454 58.1291 81.3734 58.4704 80.7761C58.8224 80.1788 59.2918 79.7094 59.8784 79.3681C60.4758 79.0161 61.1424 78.8401 61.8784 78.8401C62.5824 78.8401 63.2011 79.0001 63.7344 79.3201C64.2784 79.6401 64.6998 80.0828 64.9984 80.6481C65.3078 81.2134 65.4624 81.8534 65.4624 82.5681C65.4624 82.6748 65.4571 82.7921 65.4464 82.9201C65.4358 83.0374 65.4144 83.1761 65.3824 83.3361H58.9664V82.1361H64.6144L64.0864 82.6001C64.0864 82.0881 63.9958 81.6561 63.8144 81.3041C63.6331 80.9414 63.3771 80.6641 63.0464 80.4721C62.7158 80.2694 62.3158 80.1681 61.8464 80.1681C61.3558 80.1681 60.9238 80.2748 60.5504 80.4881C60.1771 80.7014 59.8891 81.0001 59.6864 81.3841C59.4838 81.7681 59.3824 82.2214 59.3824 82.7441C59.3824 83.2774 59.4891 83.7468 59.7024 84.1521C59.9158 84.5468 60.2198 84.8561 60.6144 85.0801C61.0091 85.2934 61.4624 85.4001 61.9744 85.4001C62.4011 85.4001 62.7904 85.3254 63.1424 85.1761C63.5051 85.0268 63.8144 84.8028 64.0704 84.5041L64.9984 85.4481C64.6358 85.8748 64.1878 86.2001 63.6544 86.4241C63.1318 86.6481 62.5718 86.7601 61.9744 86.7601ZM67.0326 86.6001V79.0001H68.4726V86.6001H67.0326ZM68.4726 82.2641L67.9286 82.0241C67.9286 81.0534 68.1526 80.2801 68.6006 79.7041C69.0486 79.1281 69.6939 78.8401 70.5366 78.8401C70.9206 78.8401 71.2672 78.9094 71.5766 79.0481C71.8859 79.1761 72.1739 79.3948 72.4406 79.7041L71.4966 80.6801C71.3366 80.5094 71.1606 80.3868 70.9686 80.3121C70.7766 80.2374 70.5526 80.2001 70.2966 80.2001C69.7632 80.2001 69.3259 80.3708 68.9846 80.7121C68.6432 81.0534 68.4726 81.5708 68.4726 82.2641Z" fill="black"/>
</svg>
