<svg width="80" height="93" viewBox="0 0 80 93" fill="none" xmlns="http://www.w3.org/2000/svg">
<circle cx="40" cy="20.8" r="19" stroke="#135279" stroke-width="2"/>
<path d="M30.0833 16.0917V11.925H50.9166V16.0917H48.8333V14.0084H32.1666V16.0917H30.0833ZM36.3333 30.675V28.5917H30.0833V24.425H32.1666V26.5084H48.8333V24.425H50.9166V28.5917H44.6666V30.675H36.3333ZM32.9999 20.2584L35.7083 17.55L34.2499 16.0917L30.0833 20.2584L34.2499 24.425L35.7083 22.9667L32.9999 20.2584ZM47.9999 20.2584L45.2916 22.9667L46.7499 24.425L50.9166 20.2584L46.7499 16.0917L45.2916 17.55L47.9999 20.2584Z" fill="#135279"/>
<path d="M5.32744 62.8V61.424H8.41544C9.23677 61.424 9.95677 61.248 10.5754 60.896C11.1941 60.5334 11.6741 60.0374 12.0154 59.408C12.3674 58.7787 12.5434 58.0534 12.5434 57.232C12.5434 56.4214 12.3674 55.7014 12.0154 55.072C11.6634 54.4427 11.1781 53.952 10.5594 53.6C9.94077 53.248 9.2261 53.072 8.41544 53.072H5.34344V51.696H8.44744C9.2581 51.696 10.0048 51.8347 10.6874 52.112C11.3808 52.3894 11.9781 52.7787 12.4794 53.28C12.9914 53.7814 13.3861 54.368 13.6634 55.04C13.9514 55.712 14.0954 56.448 14.0954 57.248C14.0954 58.0374 13.9514 58.7734 13.6634 59.456C13.3861 60.128 12.9968 60.7147 12.4954 61.216C11.9941 61.7174 11.3968 62.1067 10.7034 62.384C10.0208 62.6614 9.27944 62.8 8.47944 62.8H5.32744ZM4.33544 62.8V51.696H5.83944V62.8H4.33544ZM19.4432 62.96C18.6859 62.96 18.0032 62.7894 17.3952 62.448C16.7872 62.096 16.3072 61.6214 15.9552 61.024C15.6032 60.4267 15.4272 59.7494 15.4272 58.992C15.4272 58.2454 15.5979 57.5734 15.9392 56.976C16.2912 56.3787 16.7605 55.9094 17.3472 55.568C17.9445 55.216 18.6112 55.04 19.3472 55.04C20.0512 55.04 20.6699 55.2 21.2032 55.52C21.7472 55.84 22.1685 56.2827 22.4672 56.848C22.7765 57.4134 22.9312 58.0534 22.9312 58.768C22.9312 58.8747 22.9259 58.992 22.9152 59.12C22.9045 59.2374 22.8832 59.376 22.8512 59.536H16.4352V58.336H22.0832L21.5552 58.8C21.5552 58.288 21.4645 57.856 21.2832 57.504C21.1019 57.1414 20.8459 56.864 20.5152 56.672C20.1845 56.4694 19.7845 56.368 19.3152 56.368C18.8245 56.368 18.3925 56.4747 18.0192 56.688C17.6459 56.9014 17.3579 57.2 17.1552 57.584C16.9525 57.968 16.8512 58.4214 16.8512 58.944C16.8512 59.4774 16.9579 59.9467 17.1712 60.352C17.3845 60.7467 17.6885 61.056 18.0832 61.28C18.4779 61.4934 18.9312 61.6 19.4432 61.6C19.8699 61.6 20.2592 61.5254 20.6112 61.376C20.9739 61.2267 21.2832 61.0027 21.5392 60.704L22.4672 61.648C22.1045 62.0747 21.6565 62.4 21.1232 62.624C20.6005 62.848 20.0405 62.96 19.4432 62.96ZM26.9843 62.8L23.4963 55.2H25.0963L27.8963 61.616H26.9683L29.7843 55.2H31.3203L27.8323 62.8H26.9843ZM35.7713 62.96C35.014 62.96 34.3313 62.7894 33.7233 62.448C33.1153 62.096 32.6353 61.6214 32.2833 61.024C31.9313 60.4267 31.7553 59.7494 31.7553 58.992C31.7553 58.2454 31.926 57.5734 32.2673 56.976C32.6193 56.3787 33.0886 55.9094 33.6753 55.568C34.2726 55.216 34.9393 55.04 35.6753 55.04C36.3793 55.04 36.998 55.2 37.5313 55.52C38.0753 55.84 38.4966 56.2827 38.7953 56.848C39.1046 57.4134 39.2593 58.0534 39.2593 58.768C39.2593 58.8747 39.254 58.992 39.2433 59.12C39.2326 59.2374 39.2113 59.376 39.1793 59.536H32.7633V58.336H38.4113L37.8833 58.8C37.8833 58.288 37.7926 57.856 37.6113 57.504C37.43 57.1414 37.174 56.864 36.8433 56.672C36.5126 56.4694 36.1126 56.368 35.6433 56.368C35.1526 56.368 34.7206 56.4747 34.3473 56.688C33.974 56.9014 33.686 57.2 33.4833 57.584C33.2806 57.968 33.1793 58.4214 33.1793 58.944C33.1793 59.4774 33.286 59.9467 33.4993 60.352C33.7126 60.7467 34.0166 61.056 34.4113 61.28C34.806 61.4934 35.2593 61.6 35.7713 61.6C36.198 61.6 36.5873 61.5254 36.9393 61.376C37.302 61.2267 37.6113 61.0027 37.8673 60.704L38.7953 61.648C38.4326 62.0747 37.9846 62.4 37.4513 62.624C36.9286 62.848 36.3686 62.96 35.7713 62.96ZM40.8294 62.8V51.376H42.2694V62.8H40.8294ZM47.8483 62.96C47.1016 62.96 46.4296 62.784 45.8323 62.432C45.235 62.08 44.7603 61.6054 44.4083 61.008C44.0563 60.4 43.8803 59.7227 43.8803 58.976C43.8803 58.24 44.0563 57.5787 44.4083 56.992C44.7603 56.3947 45.235 55.92 45.8323 55.568C46.4296 55.216 47.1016 55.04 47.8483 55.04C48.5843 55.04 49.251 55.216 49.8483 55.568C50.4563 55.9094 50.9363 56.3787 51.2883 56.976C51.6403 57.5734 51.8163 58.24 51.8163 58.976C51.8163 59.7227 51.6403 60.4 51.2883 61.008C50.9363 61.6054 50.4563 62.08 49.8483 62.432C49.251 62.784 48.5843 62.96 47.8483 62.96ZM47.8483 61.568C48.3283 61.568 48.755 61.456 49.1283 61.232C49.5016 61.008 49.795 60.704 50.0083 60.32C50.2216 59.9254 50.3283 59.4774 50.3283 58.976C50.3283 58.4854 50.2163 58.048 49.9923 57.664C49.779 57.28 49.4856 56.9814 49.1123 56.768C48.7496 56.544 48.3283 56.432 47.8483 56.432C47.3683 56.432 46.9416 56.544 46.5683 56.768C46.195 56.9814 45.9016 57.28 45.6883 57.664C45.475 58.048 45.3683 58.4854 45.3683 58.976C45.3683 59.4774 45.475 59.9254 45.6883 60.32C45.9016 60.704 46.195 61.008 46.5683 61.232C46.9416 61.456 47.3683 61.568 47.8483 61.568ZM57.4388 62.96C56.8628 62.96 56.3401 62.8427 55.8708 62.608C55.4121 62.3627 55.0441 62.0267 54.7668 61.6C54.4895 61.1734 54.3348 60.688 54.3028 60.144V57.856C54.3348 57.3014 54.4895 56.816 54.7668 56.4C55.0548 55.9734 55.4281 55.6427 55.8868 55.408C56.3561 55.1627 56.8735 55.04 57.4388 55.04C58.1321 55.04 58.7561 55.216 59.3108 55.568C59.8761 55.92 60.3188 56.3947 60.6388 56.992C60.9588 57.5894 61.1188 58.2614 61.1188 59.008C61.1188 59.7547 60.9588 60.4267 60.6388 61.024C60.3188 61.6214 59.8761 62.096 59.3108 62.448C58.7561 62.7894 58.1321 62.96 57.4388 62.96ZM57.1988 61.6C57.6788 61.6 58.1001 61.488 58.4628 61.264C58.8255 61.04 59.1135 60.736 59.3268 60.352C59.5401 59.9574 59.6468 59.504 59.6468 58.992C59.6468 58.4907 59.5401 58.0427 59.3268 57.648C59.1135 57.2534 58.8255 56.9494 58.4628 56.736C58.1001 56.512 57.6841 56.4 57.2148 56.4C56.7348 56.4 56.3135 56.512 55.9508 56.736C55.5881 56.9494 55.3055 57.2534 55.1028 57.648C54.9001 58.0427 54.7988 58.496 54.7988 59.008C54.7988 59.5094 54.8948 59.9574 55.0868 60.352C55.2895 60.736 55.5721 61.04 55.9348 61.264C56.3081 61.488 56.7295 61.6 57.1988 61.6ZM53.4388 65.984V55.2H54.8788V57.2L54.6068 59.04L54.8788 60.896V65.984H53.4388ZM66.2713 62.96C65.514 62.96 64.8313 62.7894 64.2233 62.448C63.6153 62.096 63.1353 61.6214 62.7833 61.024C62.4313 60.4267 62.2553 59.7494 62.2553 58.992C62.2553 58.2454 62.426 57.5734 62.7673 56.976C63.1193 56.3787 63.5886 55.9094 64.1753 55.568C64.7726 55.216 65.4393 55.04 66.1753 55.04C66.8793 55.04 67.498 55.2 68.0313 55.52C68.5753 55.84 68.9966 56.2827 69.2953 56.848C69.6046 57.4134 69.7593 58.0534 69.7593 58.768C69.7593 58.8747 69.754 58.992 69.7433 59.12C69.7326 59.2374 69.7113 59.376 69.6793 59.536H63.2633V58.336H68.9113L68.3833 58.8C68.3833 58.288 68.2926 57.856 68.1113 57.504C67.93 57.1414 67.674 56.864 67.3433 56.672C67.0126 56.4694 66.6126 56.368 66.1433 56.368C65.6526 56.368 65.2206 56.4747 64.8473 56.688C64.474 56.9014 64.186 57.2 63.9833 57.584C63.7806 57.968 63.6793 58.4214 63.6793 58.944C63.6793 59.4774 63.786 59.9467 63.9993 60.352C64.2126 60.7467 64.5166 61.056 64.9113 61.28C65.306 61.4934 65.7593 61.6 66.2713 61.6C66.698 61.6 67.0873 61.5254 67.4393 61.376C67.802 61.2267 68.1113 61.0027 68.3673 60.704L69.2953 61.648C68.9326 62.0747 68.4846 62.4 67.9513 62.624C67.4286 62.848 66.8686 62.96 66.2713 62.96ZM71.3294 62.8V55.2H72.7694V62.8H71.3294ZM72.7694 58.464L72.2254 58.224C72.2254 57.2534 72.4494 56.48 72.8974 55.904C73.3454 55.328 73.9908 55.04 74.8334 55.04C75.2174 55.04 75.5641 55.1094 75.8734 55.248C76.1828 55.376 76.4708 55.5947 76.7374 55.904L75.7934 56.88C75.6334 56.7094 75.4574 56.5867 75.2654 56.512C75.0734 56.4374 74.8494 56.4 74.5934 56.4C74.0601 56.4 73.6228 56.5707 73.2814 56.912C72.9401 57.2534 72.7694 57.7707 72.7694 58.464Z" fill="black"/>
</svg>
