<svg width="102" height="110" viewBox="0 0 102 110" fill="none" xmlns="http://www.w3.org/2000/svg">
<circle cx="51" cy="30" r="29" stroke="#ED4068" stroke-width="2"/>
<path d="M37.6666 43.3333C36.7499 43.3333 35.9649 43.0067 35.3116 42.3533C34.6583 41.7 34.3321 40.9156 34.3333 40V20C34.3333 19.0833 34.6599 18.2983 35.3133 17.645C35.9666 16.9917 36.751 16.6656 37.6666 16.6667H47.6666L50.9999 20H64.3333C65.2499 20 66.0349 20.3267 66.6883 20.98C67.3416 21.6333 67.6677 22.4178 67.6666 23.3333V28.8333C67.1388 28.6111 66.5899 28.465 66.0199 28.395C65.4499 28.325 64.8877 28.3322 64.3333 28.4167V23.3333H49.6249L46.2916 20H37.6666V40H51.1666L50.9999 40.1667V43.3333H37.6666ZM54.3333 46.6667V41.5417L63.5416 32.375C63.7916 32.125 64.0694 31.9444 64.3749 31.8333C64.6805 31.7222 64.986 31.6667 65.2916 31.6667C65.6249 31.6667 65.9444 31.7294 66.2499 31.855C66.5555 31.9806 66.8333 32.1678 67.0833 32.4167L68.6249 33.9583C68.8471 34.2083 69.021 34.4861 69.1466 34.7917C69.2721 35.0972 69.3344 35.4028 69.3333 35.7083C69.3333 36.0139 69.2777 36.3267 69.1666 36.6467C69.0555 36.9667 68.8749 37.2511 68.6249 37.5L59.4583 46.6667H54.3333ZM56.8333 44.1667H58.4166L63.4583 39.0833L62.7083 38.2917L61.9166 37.5417L56.8333 42.5833V44.1667ZM62.7083 38.2917L61.9166 37.5417L63.4583 39.0833L62.7083 38.2917Z" fill="#ED4068"/>
<path d="M25.2575 77.68V76.368H28.2815C28.6975 76.368 29.0655 76.2827 29.3855 76.112C29.7162 75.9413 29.9722 75.7013 30.1535 75.392C30.3455 75.0827 30.4415 74.7147 30.4415 74.288C30.4415 73.8613 30.3455 73.4933 30.1535 73.184C29.9722 72.8747 29.7162 72.6347 29.3855 72.464C29.0655 72.2933 28.6975 72.208 28.2815 72.208H25.2575V70.896H28.3775C29.0602 70.896 29.6682 71.0347 30.2015 71.312C30.7455 71.5893 31.1722 71.984 31.4815 72.496C31.8015 72.9973 31.9615 73.5947 31.9615 74.288C31.9615 74.9707 31.8015 75.568 31.4815 76.08C31.1722 76.5813 30.7455 76.976 30.2015 77.264C29.6682 77.5413 29.0602 77.68 28.3775 77.68H25.2575ZM24.2495 82V70.896H25.7535V82H24.2495ZM33.6966 82V74.4H35.1366V82H33.6966ZM35.1366 77.664L34.5926 77.424C34.5926 76.4533 34.8166 75.68 35.2646 75.104C35.7126 74.528 36.358 74.24 37.2006 74.24C37.5846 74.24 37.9313 74.3093 38.2406 74.448C38.55 74.576 38.838 74.7947 39.1046 75.104L38.1606 76.08C38.0006 75.9093 37.8246 75.7867 37.6326 75.712C37.4406 75.6373 37.2166 75.6 36.9606 75.6C36.4273 75.6 35.99 75.7707 35.6486 76.112C35.3073 76.4533 35.1366 76.9707 35.1366 77.664ZM43.3405 82.16C42.5938 82.16 41.9218 81.984 41.3245 81.632C40.7272 81.28 40.2525 80.8053 39.9005 80.208C39.5485 79.6 39.3725 78.9227 39.3725 78.176C39.3725 77.44 39.5485 76.7787 39.9005 76.192C40.2525 75.5947 40.7272 75.12 41.3245 74.768C41.9218 74.416 42.5938 74.24 43.3405 74.24C44.0765 74.24 44.7432 74.416 45.3405 74.768C45.9485 75.1093 46.4285 75.5787 46.7805 76.176C47.1325 76.7733 47.3085 77.44 47.3085 78.176C47.3085 78.9227 47.1325 79.6 46.7805 80.208C46.4285 80.8053 45.9485 81.28 45.3405 81.632C44.7432 81.984 44.0765 82.16 43.3405 82.16ZM43.3405 80.768C43.8205 80.768 44.2472 80.656 44.6205 80.432C44.9938 80.208 45.2872 79.904 45.5005 79.52C45.7138 79.1253 45.8205 78.6773 45.8205 78.176C45.8205 77.6853 45.7085 77.248 45.4845 76.864C45.2712 76.48 44.9778 76.1813 44.6045 75.968C44.2418 75.744 43.8205 75.632 43.3405 75.632C42.8605 75.632 42.4338 75.744 42.0605 75.968C41.6872 76.1813 41.3938 76.48 41.1805 76.864C40.9672 77.248 40.8605 77.6853 40.8605 78.176C40.8605 78.6773 40.9672 79.1253 41.1805 79.52C41.3938 79.904 41.6872 80.208 42.0605 80.432C42.4338 80.656 42.8605 80.768 43.3405 80.768ZM52.147 82.16C51.443 82.16 50.8137 81.9893 50.259 81.648C49.7043 81.296 49.2617 80.8213 48.931 80.224C48.611 79.6267 48.451 78.9547 48.451 78.208C48.451 77.4613 48.611 76.7893 48.931 76.192C49.2617 75.5947 49.7043 75.12 50.259 74.768C50.8137 74.416 51.443 74.24 52.147 74.24C52.7123 74.24 53.2243 74.3627 53.683 74.608C54.1417 74.8427 54.5097 75.1733 54.787 75.6C55.075 76.016 55.235 76.5013 55.267 77.056V79.344C55.235 79.888 55.0803 80.3733 54.803 80.8C54.5257 81.2267 54.1577 81.5627 53.699 81.808C53.2403 82.0427 52.723 82.16 52.147 82.16ZM52.387 80.8C52.867 80.8 53.283 80.688 53.635 80.464C53.9977 80.24 54.2803 79.936 54.483 79.552C54.6857 79.1573 54.787 78.7093 54.787 78.208C54.787 77.6853 54.6803 77.232 54.467 76.848C54.2643 76.464 53.9817 76.16 53.619 75.936C53.267 75.712 52.851 75.6 52.371 75.6C51.891 75.6 51.4697 75.712 51.107 75.936C50.7443 76.16 50.4563 76.4693 50.243 76.864C50.0403 77.248 49.939 77.6907 49.939 78.192C49.939 78.704 50.0403 79.1573 50.243 79.552C50.4563 79.936 50.7443 80.24 51.107 80.464C51.4803 80.688 51.907 80.8 52.387 80.8ZM56.147 82H54.691V79.952L54.963 78.096L54.691 76.256V70.576H56.147V82ZM61.2995 82.16C60.6808 82.16 60.1208 82.0213 59.6195 81.744C59.1288 81.456 58.7448 81.0613 58.4675 80.56C58.1902 80.0587 58.0515 79.4773 58.0515 78.816V74.4H59.4915V78.752C59.4915 79.168 59.5608 79.5307 59.6995 79.84C59.8488 80.1387 60.0622 80.368 60.3395 80.528C60.6168 80.688 60.9422 80.768 61.3155 80.768C61.8808 80.768 62.3235 80.592 62.6435 80.24C62.9635 79.8773 63.1235 79.3813 63.1235 78.752V74.4H64.5635V78.816C64.5635 79.4773 64.4248 80.0587 64.1475 80.56C63.8702 81.0613 63.4862 81.456 62.9955 81.744C62.5155 82.0213 61.9502 82.16 61.2995 82.16ZM69.9655 82.16C69.2188 82.16 68.5415 81.984 67.9335 81.632C67.3362 81.28 66.8615 80.8053 66.5095 80.208C66.1682 79.6 65.9975 78.928 65.9975 78.192C65.9975 77.4453 66.1682 76.7733 66.5095 76.176C66.8615 75.5787 67.3362 75.1093 67.9335 74.768C68.5415 74.416 69.2188 74.24 69.9655 74.24C70.5522 74.24 71.0962 74.352 71.5975 74.576C72.0988 74.7893 72.5308 75.104 72.8935 75.52L71.9335 76.48C71.6988 76.2027 71.4108 75.9947 71.0695 75.856C70.7388 75.7067 70.3708 75.632 69.9655 75.632C69.4855 75.632 69.0588 75.744 68.6855 75.968C68.3122 76.1813 68.0188 76.48 67.8055 76.864C67.5922 77.248 67.4855 77.6907 67.4855 78.192C67.4855 78.6933 67.5922 79.136 67.8055 79.52C68.0188 79.904 68.3122 80.208 68.6855 80.432C69.0588 80.656 69.4855 80.768 69.9655 80.768C70.3708 80.768 70.7388 80.6987 71.0695 80.56C71.4108 80.4107 71.7042 80.1973 71.9495 79.92L72.8935 80.88C72.5415 81.2853 72.1095 81.6 71.5975 81.824C71.0962 82.048 70.5522 82.16 69.9655 82.16ZM75.3959 82V71.216H76.8359V82H75.3959ZM73.5239 75.712V74.4H78.7079V75.712H73.5239ZM16.4448 106V94.896H17.5008L22.2048 102.624H21.4848L26.1888 94.896H27.2448V106H25.7408V97.536L26.0928 97.632L22.3808 103.728H21.3248L17.6128 97.632L17.9488 97.536V106H16.4448ZM32.8427 106.16C32.1494 106.16 31.52 105.989 30.9547 105.648C30.3894 105.296 29.9414 104.821 29.6107 104.224C29.2907 103.627 29.1307 102.955 29.1307 102.208C29.1307 101.461 29.2907 100.789 29.6107 100.192C29.9414 99.5947 30.384 99.12 30.9387 98.768C31.504 98.416 32.1387 98.24 32.8427 98.24C33.4187 98.24 33.9307 98.3627 34.3787 98.608C34.8374 98.8427 35.2054 99.1733 35.4827 99.6C35.76 100.016 35.9147 100.501 35.9467 101.056V103.344C35.9147 103.888 35.76 104.373 35.4827 104.8C35.216 105.227 34.8534 105.563 34.3947 105.808C33.9467 106.043 33.4294 106.16 32.8427 106.16ZM33.0827 104.8C33.7974 104.8 34.3734 104.56 34.8107 104.08C35.248 103.589 35.4667 102.965 35.4667 102.208C35.4667 101.685 35.3654 101.232 35.1627 100.848C34.9707 100.453 34.6934 100.149 34.3307 99.936C33.968 99.712 33.5467 99.6 33.0667 99.6C32.5867 99.6 32.16 99.712 31.7867 99.936C31.424 100.16 31.136 100.469 30.9227 100.864C30.72 101.248 30.6187 101.691 30.6187 102.192C30.6187 102.704 30.72 103.157 30.9227 103.552C31.136 103.936 31.4294 104.24 31.8027 104.464C32.176 104.688 32.6027 104.8 33.0827 104.8ZM35.3707 106V103.952L35.6427 102.096L35.3707 100.256V98.4H36.8267V106H35.3707ZM44.2992 106V101.568C44.2992 100.992 44.1179 100.517 43.7552 100.144C43.3925 99.7707 42.9232 99.584 42.3472 99.584C41.9632 99.584 41.6219 99.6693 41.3232 99.84C41.0245 100.011 40.7899 100.245 40.6192 100.544C40.4485 100.843 40.3632 101.184 40.3632 101.568L39.7712 101.232C39.7712 100.656 39.8992 100.144 40.1552 99.696C40.4112 99.248 40.7685 98.896 41.2272 98.64C41.6859 98.3733 42.2032 98.24 42.7792 98.24C43.3552 98.24 43.8619 98.384 44.2992 98.672C44.7472 98.96 45.0992 99.3387 45.3552 99.808C45.6112 100.267 45.7392 100.757 45.7392 101.28V106H44.2992ZM38.9232 106V98.4H40.3632V106H38.9232ZM50.9208 106.16C50.2275 106.16 49.5981 105.989 49.0328 105.648C48.4675 105.296 48.0195 104.821 47.6888 104.224C47.3688 103.627 47.2088 102.955 47.2088 102.208C47.2088 101.461 47.3688 100.789 47.6888 100.192C48.0195 99.5947 48.4621 99.12 49.0168 98.768C49.5821 98.416 50.2168 98.24 50.9208 98.24C51.4968 98.24 52.0088 98.3627 52.4568 98.608C52.9155 98.8427 53.2835 99.1733 53.5608 99.6C53.8381 100.016 53.9928 100.501 54.0248 101.056V103.344C53.9928 103.888 53.8381 104.373 53.5608 104.8C53.2941 105.227 52.9315 105.563 52.4728 105.808C52.0248 106.043 51.5075 106.16 50.9208 106.16ZM51.1608 104.8C51.8755 104.8 52.4515 104.56 52.8888 104.08C53.3261 103.589 53.5448 102.965 53.5448 102.208C53.5448 101.685 53.4435 101.232 53.2408 100.848C53.0488 100.453 52.7715 100.149 52.4088 99.936C52.0461 99.712 51.6248 99.6 51.1448 99.6C50.6648 99.6 50.2381 99.712 49.8648 99.936C49.5021 100.16 49.2141 100.469 49.0008 100.864C48.7981 101.248 48.6968 101.691 48.6968 102.192C48.6968 102.704 48.7981 103.157 49.0008 103.552C49.2141 103.936 49.5075 104.24 49.8808 104.464C50.2541 104.688 50.6808 104.8 51.1608 104.8ZM53.4488 106V103.952L53.7208 102.096L53.4488 100.256V98.4H54.9048V106H53.4488ZM60.1533 109.344C59.3746 109.344 58.6813 109.2 58.0733 108.912C57.476 108.624 56.996 108.219 56.6333 107.696L57.5613 106.752C57.8706 107.147 58.2386 107.445 58.6653 107.648C59.092 107.861 59.5986 107.968 60.1853 107.968C60.964 107.968 61.5773 107.76 62.0253 107.344C62.484 106.939 62.7133 106.389 62.7133 105.696V103.808L62.9693 102.096L62.7133 100.4V98.4H64.1533V105.696C64.1533 106.421 63.9826 107.056 63.6413 107.6C63.3106 108.144 62.8413 108.571 62.2333 108.88C61.636 109.189 60.9426 109.344 60.1533 109.344ZM60.1533 105.872C59.46 105.872 58.836 105.707 58.2813 105.376C57.7373 105.045 57.3053 104.592 56.9853 104.016C56.6653 103.429 56.5053 102.773 56.5053 102.048C56.5053 101.323 56.6653 100.677 56.9853 100.112C57.3053 99.536 57.7373 99.0827 58.2813 98.752C58.836 98.4107 59.46 98.24 60.1533 98.24C60.7506 98.24 61.2786 98.3573 61.7373 98.592C62.196 98.8267 62.5586 99.1573 62.8253 99.584C63.1026 100 63.252 100.491 63.2733 101.056V103.072C63.2413 103.627 63.0866 104.117 62.8093 104.544C62.5426 104.96 62.18 105.285 61.7213 105.52C61.2626 105.755 60.74 105.872 60.1533 105.872ZM60.4413 104.512C60.9106 104.512 61.3213 104.411 61.6733 104.208C62.036 104.005 62.3133 103.723 62.5053 103.36C62.6973 102.987 62.7933 102.555 62.7933 102.064C62.7933 101.573 62.692 101.147 62.4893 100.784C62.2973 100.411 62.0253 100.123 61.6733 99.92C61.3213 99.7067 60.9053 99.6 60.4253 99.6C59.9453 99.6 59.524 99.7067 59.1613 99.92C58.7986 100.123 58.5106 100.411 58.2973 100.784C58.0946 101.147 57.9933 101.568 57.9933 102.048C57.9933 102.528 58.0946 102.955 58.2973 103.328C58.5106 103.701 58.7986 103.995 59.1613 104.208C59.5346 104.411 59.9613 104.512 60.4413 104.512ZM69.7869 106.16C69.0296 106.16 68.3469 105.989 67.7389 105.648C67.1309 105.296 66.6509 104.821 66.2989 104.224C65.9469 103.627 65.7709 102.949 65.7709 102.192C65.7709 101.445 65.9416 100.773 66.2829 100.176C66.6349 99.5787 67.1043 99.1093 67.6909 98.768C68.2883 98.416 68.9549 98.24 69.6909 98.24C70.3949 98.24 71.0136 98.4 71.5469 98.72C72.0909 99.04 72.5123 99.4827 72.8109 100.048C73.1203 100.613 73.2749 101.253 73.2749 101.968C73.2749 102.075 73.2696 102.192 73.2589 102.32C73.2483 102.437 73.2269 102.576 73.1949 102.736H66.7789V101.536H72.4269L71.8989 102C71.8989 101.488 71.8083 101.056 71.6269 100.704C71.4456 100.341 71.1896 100.064 70.8589 99.872C70.5283 99.6693 70.1283 99.568 69.6589 99.568C69.1683 99.568 68.7363 99.6747 68.3629 99.888C67.9896 100.101 67.7016 100.4 67.4989 100.784C67.2963 101.168 67.1949 101.621 67.1949 102.144C67.1949 102.677 67.3016 103.147 67.5149 103.552C67.7283 103.947 68.0323 104.256 68.4269 104.48C68.8216 104.693 69.2749 104.8 69.7869 104.8C70.2136 104.8 70.6029 104.725 70.9549 104.576C71.3176 104.427 71.6269 104.203 71.8829 103.904L72.8109 104.848C72.4483 105.275 72.0003 105.6 71.4669 105.824C70.9443 106.048 70.3843 106.16 69.7869 106.16ZM74.8451 106V98.4H76.2851V106H74.8451ZM76.2851 101.664L75.7411 101.424C75.7411 100.453 75.9651 99.68 76.4131 99.104C76.8611 98.528 77.5064 98.24 78.3491 98.24C78.7331 98.24 79.0797 98.3093 79.3891 98.448C79.6984 98.576 79.9864 98.7947 80.2531 99.104L79.3091 100.08C79.1491 99.9093 78.9731 99.7867 78.7811 99.712C78.5891 99.6373 78.3651 99.6 78.1091 99.6C77.5757 99.6 77.1384 99.7707 76.7971 100.112C76.4557 100.453 76.2851 100.971 76.2851 101.664ZM83.5111 106.16C83.0844 106.16 82.6791 106.107 82.2951 106C81.9217 105.883 81.5751 105.723 81.2551 105.52C80.9351 105.307 80.6577 105.056 80.4231 104.768L81.3511 103.84C81.6284 104.181 81.9484 104.437 82.3111 104.608C82.6737 104.768 83.0791 104.848 83.5271 104.848C83.9751 104.848 84.3217 104.773 84.5671 104.624C84.8124 104.464 84.9351 104.245 84.9351 103.968C84.9351 103.691 84.8337 103.477 84.6311 103.328C84.4391 103.168 84.1884 103.04 83.8791 102.944C83.5697 102.837 83.2391 102.736 82.8871 102.64C82.5457 102.533 82.2204 102.4 81.9111 102.24C81.6017 102.08 81.3457 101.861 81.1431 101.584C80.9511 101.307 80.8551 100.939 80.8551 100.48C80.8551 100.021 80.9671 99.6267 81.1911 99.296C81.4151 98.9547 81.7244 98.6933 82.1191 98.512C82.5244 98.3307 83.0097 98.24 83.5751 98.24C84.1724 98.24 84.7004 98.3467 85.1591 98.56C85.6284 98.7627 86.0124 99.072 86.3111 99.488L85.3831 100.416C85.1697 100.139 84.9031 99.9253 84.5831 99.776C84.2737 99.6267 83.9217 99.552 83.5271 99.552C83.1111 99.552 82.7911 99.6267 82.5671 99.776C82.3537 99.9147 82.2471 100.112 82.2471 100.368C82.2471 100.624 82.3431 100.821 82.5351 100.96C82.7271 101.099 82.9777 101.216 83.2871 101.312C83.6071 101.408 83.9377 101.509 84.2791 101.616C84.6204 101.712 84.9457 101.845 85.2551 102.016C85.5644 102.187 85.8151 102.416 86.0071 102.704C86.2097 102.992 86.3111 103.371 86.3111 103.84C86.3111 104.555 86.0551 105.12 85.5431 105.536C85.0417 105.952 84.3644 106.16 83.5111 106.16Z" fill="black"/>
</svg>
