<svg width="80" height="92" viewBox="0 0 80 92" fill="none" xmlns="http://www.w3.org/2000/svg">
<g opacity="0.5">
<circle cx="40" cy="20" r="19" stroke="#F9E8C3" stroke-width="2"/>
<path d="M35.2916 24.6667C35.8645 24.6667 36.3333 25.1354 36.3333 25.7083C36.3333 26.8542 35.3958 27.7917 34.2499 27.7917C34.0728 27.7917 33.9062 27.7917 33.7291 27.7396C34.052 27.1667 34.2499 26.4792 34.2499 25.7083C34.2499 25.1354 34.7187 24.6667 35.2916 24.6667ZM47.4478 11.125C47.177 11.125 46.9166 11.2292 46.7083 11.4271L37.3749 20.7604L40.2395 23.625L49.5728 14.2917C49.9791 13.8854 49.9791 13.2083 49.5728 12.8229L48.177 11.4271C47.9687 11.2187 47.7083 11.125 47.4478 11.125ZM35.2916 22.5833C33.5624 22.5833 32.1666 23.9792 32.1666 25.7083C32.1666 27.0729 30.9583 27.7917 30.0833 27.7917C31.0416 29.0625 32.6874 29.875 34.2499 29.875C36.552 29.875 38.4166 28.0104 38.4166 25.7083C38.4166 23.9792 37.0208 22.5833 35.2916 22.5833Z" fill="#F9E8C3"/>
<path d="M10.2337 62V60.624H13.3217C14.143 60.624 14.863 60.448 15.4817 60.096C16.1004 59.7333 16.5804 59.2373 16.9217 58.608C17.2737 57.9787 17.4497 57.2533 17.4497 56.432C17.4497 55.6213 17.2737 54.9013 16.9217 54.272C16.5697 53.6427 16.0844 53.152 15.4657 52.8C14.847 52.448 14.1324 52.272 13.3217 52.272H10.2497V50.896H13.3537C14.1644 50.896 14.911 51.0347 15.5937 51.312C16.287 51.5893 16.8844 51.9787 17.3857 52.48C17.8977 52.9813 18.2924 53.568 18.5697 54.24C18.8577 54.912 19.0017 55.648 19.0017 56.448C19.0017 57.2373 18.8577 57.9733 18.5697 58.656C18.2924 59.328 17.903 59.9147 17.4017 60.416C16.9004 60.9173 16.303 61.3067 15.6097 61.584C14.927 61.8613 14.1857 62 13.3857 62H10.2337ZM9.24169 62V50.896H10.7457V62H9.24169ZM24.3494 62.16C23.5921 62.16 22.9094 61.9893 22.3014 61.648C21.6934 61.296 21.2134 60.8213 20.8614 60.224C20.5094 59.6267 20.3334 58.9493 20.3334 58.192C20.3334 57.4453 20.5041 56.7733 20.8454 56.176C21.1974 55.5787 21.6668 55.1093 22.2534 54.768C22.8508 54.416 23.5174 54.24 24.2534 54.24C24.9574 54.24 25.5761 54.4 26.1094 54.72C26.6534 55.04 27.0748 55.4827 27.3734 56.048C27.6828 56.6133 27.8374 57.2533 27.8374 57.968C27.8374 58.0747 27.8321 58.192 27.8214 58.32C27.8108 58.4373 27.7894 58.576 27.7574 58.736H21.3414V57.536H26.9894L26.4614 58C26.4614 57.488 26.3708 57.056 26.1894 56.704C26.0081 56.3413 25.7521 56.064 25.4214 55.872C25.0908 55.6693 24.6908 55.568 24.2214 55.568C23.7308 55.568 23.2988 55.6747 22.9254 55.888C22.5521 56.1013 22.2641 56.4 22.0614 56.784C21.8588 57.168 21.7574 57.6213 21.7574 58.144C21.7574 58.6773 21.8641 59.1467 22.0774 59.552C22.2908 59.9467 22.5948 60.256 22.9894 60.48C23.3841 60.6933 23.8374 60.8 24.3494 60.8C24.7761 60.8 25.1654 60.7253 25.5174 60.576C25.8801 60.4267 26.1894 60.2027 26.4454 59.904L27.3734 60.848C27.0108 61.2747 26.5628 61.6 26.0294 61.824C25.5068 62.048 24.9468 62.16 24.3494 62.16ZM31.8236 62.16C31.3969 62.16 30.9916 62.1067 30.6076 62C30.2342 61.8827 29.8876 61.7227 29.5676 61.52C29.2476 61.3067 28.9702 61.056 28.7356 60.768L29.6636 59.84C29.9409 60.1813 30.2609 60.4373 30.6236 60.608C30.9862 60.768 31.3916 60.848 31.8396 60.848C32.2876 60.848 32.6342 60.7733 32.8796 60.624C33.1249 60.464 33.2476 60.2453 33.2476 59.968C33.2476 59.6907 33.1462 59.4773 32.9436 59.328C32.7516 59.168 32.5009 59.04 32.1916 58.944C31.8822 58.8373 31.5516 58.736 31.1996 58.64C30.8582 58.5333 30.5329 58.4 30.2236 58.24C29.9142 58.08 29.6582 57.8613 29.4556 57.584C29.2636 57.3067 29.1676 56.9387 29.1676 56.48C29.1676 56.0213 29.2796 55.6267 29.5036 55.296C29.7276 54.9547 30.0369 54.6933 30.4316 54.512C30.8369 54.3307 31.3222 54.24 31.8876 54.24C32.4849 54.24 33.0129 54.3467 33.4716 54.56C33.9409 54.7627 34.3249 55.072 34.6236 55.488L33.6956 56.416C33.4822 56.1387 33.2156 55.9253 32.8956 55.776C32.5862 55.6267 32.2342 55.552 31.8396 55.552C31.4236 55.552 31.1036 55.6267 30.8796 55.776C30.6662 55.9147 30.5596 56.112 30.5596 56.368C30.5596 56.624 30.6556 56.8213 30.8476 56.96C31.0396 57.0987 31.2902 57.216 31.5996 57.312C31.9196 57.408 32.2502 57.5093 32.5916 57.616C32.9329 57.712 33.2582 57.8453 33.5676 58.016C33.8769 58.1867 34.1276 58.416 34.3196 58.704C34.5222 58.992 34.6236 59.3707 34.6236 59.84C34.6236 60.5547 34.3676 61.12 33.8556 61.536C33.3542 61.952 32.6769 62.16 31.8236 62.16ZM36.2517 62V54.4H37.6917V62H36.2517ZM36.9717 52.88C36.705 52.88 36.4864 52.7947 36.3157 52.624C36.145 52.4427 36.0597 52.2187 36.0597 51.952C36.0597 51.696 36.145 51.4827 36.3157 51.312C36.4864 51.1307 36.705 51.04 36.9717 51.04C37.2384 51.04 37.457 51.1307 37.6277 51.312C37.7984 51.4827 37.8837 51.696 37.8837 51.952C37.8837 52.2187 37.7984 52.4427 37.6277 52.624C37.457 52.7947 37.2384 52.88 36.9717 52.88ZM42.9658 65.344C42.1871 65.344 41.4938 65.2 40.8858 64.912C40.2885 64.624 39.8085 64.2187 39.4458 63.696L40.3738 62.752C40.6831 63.1467 41.0511 63.4453 41.4778 63.648C41.9045 63.8613 42.4111 63.968 42.9978 63.968C43.7765 63.968 44.3898 63.76 44.8378 63.344C45.2965 62.9387 45.5258 62.3893 45.5258 61.696V59.808L45.7818 58.096L45.5258 56.4V54.4H46.9658V61.696C46.9658 62.4213 46.7951 63.056 46.4538 63.6C46.1231 64.144 45.6538 64.5707 45.0458 64.88C44.4485 65.1893 43.7551 65.344 42.9658 65.344ZM42.9658 61.872C42.2725 61.872 41.6485 61.7067 41.0938 61.376C40.5498 61.0453 40.1178 60.592 39.7978 60.016C39.4778 59.4293 39.3178 58.7733 39.3178 58.048C39.3178 57.3227 39.4778 56.6773 39.7978 56.112C40.1178 55.536 40.5498 55.0827 41.0938 54.752C41.6485 54.4107 42.2725 54.24 42.9658 54.24C43.5631 54.24 44.0911 54.3573 44.5498 54.592C45.0085 54.8267 45.3711 55.1573 45.6378 55.584C45.9151 56 46.0645 56.4907 46.0858 57.056V59.072C46.0538 59.6267 45.8991 60.1173 45.6218 60.544C45.3551 60.96 44.9925 61.2853 44.5338 61.52C44.0751 61.7547 43.5525 61.872 42.9658 61.872ZM43.2538 60.512C43.7231 60.512 44.1338 60.4107 44.4858 60.208C44.8485 60.0053 45.1258 59.7227 45.3178 59.36C45.5098 58.9867 45.6058 58.5547 45.6058 58.064C45.6058 57.5733 45.5045 57.1467 45.3018 56.784C45.1098 56.4107 44.8378 56.1227 44.4858 55.92C44.1338 55.7067 43.7178 55.6 43.2378 55.6C42.7578 55.6 42.3365 55.7067 41.9738 55.92C41.6111 56.1227 41.3231 56.4107 41.1098 56.784C40.9071 57.1467 40.8058 57.568 40.8058 58.048C40.8058 58.528 40.9071 58.9547 41.1098 59.328C41.3231 59.7013 41.6111 59.9947 41.9738 60.208C42.3471 60.4107 42.7738 60.512 43.2538 60.512ZM54.4554 62V57.568C54.4554 56.992 54.2741 56.5173 53.9114 56.144C53.5488 55.7707 53.0794 55.584 52.5034 55.584C52.1194 55.584 51.7781 55.6693 51.4794 55.84C51.1808 56.0107 50.9461 56.2453 50.7754 56.544C50.6048 56.8427 50.5194 57.184 50.5194 57.568L49.9274 57.232C49.9274 56.656 50.0554 56.144 50.3114 55.696C50.5674 55.248 50.9248 54.896 51.3834 54.64C51.8421 54.3733 52.3594 54.24 52.9354 54.24C53.5114 54.24 54.0181 54.384 54.4554 54.672C54.9034 54.96 55.2554 55.3387 55.5114 55.808C55.7674 56.2667 55.8954 56.7573 55.8954 57.28V62H54.4554ZM49.0794 62V54.4H50.5194V62H49.0794ZM61.3651 62.16C60.6077 62.16 59.9251 61.9893 59.3171 61.648C58.7091 61.296 58.2291 60.8213 57.8771 60.224C57.5251 59.6267 57.3491 58.9493 57.3491 58.192C57.3491 57.4453 57.5197 56.7733 57.8611 56.176C58.2131 55.5787 58.6824 55.1093 59.2691 54.768C59.8664 54.416 60.5331 54.24 61.2691 54.24C61.9731 54.24 62.5917 54.4 63.1251 54.72C63.6691 55.04 64.0904 55.4827 64.3891 56.048C64.6984 56.6133 64.8531 57.2533 64.8531 57.968C64.8531 58.0747 64.8477 58.192 64.8371 58.32C64.8264 58.4373 64.8051 58.576 64.7731 58.736H58.3571V57.536H64.0051L63.4771 58C63.4771 57.488 63.3864 57.056 63.2051 56.704C63.0237 56.3413 62.7677 56.064 62.4371 55.872C62.1064 55.6693 61.7064 55.568 61.2371 55.568C60.7464 55.568 60.3144 55.6747 59.9411 55.888C59.5677 56.1013 59.2797 56.4 59.0771 56.784C58.8744 57.168 58.7731 57.6213 58.7731 58.144C58.7731 58.6773 58.8797 59.1467 59.0931 59.552C59.3064 59.9467 59.6104 60.256 60.0051 60.48C60.3997 60.6933 60.8531 60.8 61.3651 60.8C61.7917 60.8 62.1811 60.7253 62.5331 60.576C62.8957 60.4267 63.2051 60.2027 63.4611 59.904L64.3891 60.848C64.0264 61.2747 63.5784 61.6 63.0451 61.824C62.5224 62.048 61.9624 62.16 61.3651 62.16ZM66.4232 62V54.4H67.8632V62H66.4232ZM67.8632 57.664L67.3192 57.424C67.3192 56.4533 67.5432 55.68 67.9912 55.104C68.4392 54.528 69.0845 54.24 69.9272 54.24C70.3112 54.24 70.6579 54.3093 70.9672 54.448C71.2765 54.576 71.5645 54.7947 71.8312 55.104L70.8872 56.08C70.7272 55.9093 70.5512 55.7867 70.3592 55.712C70.1672 55.6373 69.9432 55.6 69.6872 55.6C69.1539 55.6 68.7165 55.7707 68.3752 56.112C68.0339 56.4533 67.8632 56.9707 67.8632 57.664Z" fill="black" fill-opacity="0.5"/>
</g>
</svg>
