<svg width="40" height="40" viewBox="0 0 40 40" fill="none" xmlns="http://www.w3.org/2000/svg">
<g id="Resource">
<path id="Vector" d="M37.4222 17.1111H35.2556C35.3712 17.6984 35.4528 18.292 35.5 18.8888H19.4333L9.22222 31.1888C6.72166 28.7613 5.10873 25.5643 4.64206 22.1106C4.17538 18.6569 4.88201 15.1466 6.64863 12.1424C8.41524 9.13829 11.1395 6.81441 14.3846 5.54343C17.6296 4.27246 21.2075 4.12802 24.5444 5.13327L25.6556 3.17772C22.0881 1.98064 18.2328 1.94641 14.6447 3.07996C11.0565 4.21351 7.92057 6.45637 5.68829 9.48567C3.45601 12.515 2.24252 16.1745 2.2225 19.9374C2.20249 23.7003 3.37698 27.3725 5.57691 30.4253C7.77684 33.4782 10.8887 35.7543 14.4646 36.926C18.0405 38.0976 21.896 38.1044 25.4759 36.9453C29.0559 35.7863 32.1758 33.5212 34.3865 30.476C36.5971 27.4309 37.7845 23.7629 37.7778 19.9999C37.772 19.0279 37.6866 18.058 37.5222 17.0999L37.4222 17.1111ZM20 35.5555C16.743 35.5538 13.5698 34.5233 10.9333 32.6111L20.4778 21.1111H35.5C35.2193 25.0315 33.4648 28.7004 30.5893 31.3801C27.7138 34.0597 23.9305 35.5515 20 35.5555Z" fill="black"/>
<path id="Vector_2" d="M29.8333 1.26665L23.4778 12.2222C23.3299 12.4392 23.245 12.693 23.2325 12.9553C23.22 13.2176 23.2804 13.4783 23.407 13.7084C23.5335 13.9385 23.7213 14.1291 23.9496 14.259C24.1778 14.3889 24.4375 14.4531 24.7 14.4444H37.4222C37.6847 14.4531 37.9444 14.3889 38.1727 14.259C38.4009 14.1291 38.5887 13.9385 38.7153 13.7084C38.8418 13.4783 38.9022 13.2176 38.8897 12.9553C38.8772 12.693 38.7923 12.4392 38.6444 12.2222L32.2889 1.26665C32.1635 1.05227 31.9843 0.87444 31.7689 0.75086C31.5535 0.62728 31.3094 0.562256 31.0611 0.562256C30.8128 0.562256 30.5688 0.62728 30.3534 0.75086C30.138 0.87444 29.9587 1.05227 29.8333 1.26665Z" fill="black"/>
</g>
</svg>
