<svg width="28" height="26" viewBox="0 0 28 26" fill="none" xmlns="http://www.w3.org/2000/svg">
<path d="M4.92188 14.0833C6.90125 14.3128 8.74394 15.1856 10.1534 16.5611C11.5629 17.9366 12.4572 19.7349 12.6925 21.6666C13.6737 21.1145 14.4944 20.3274 15.0772 19.3796C15.6599 18.4318 15.9853 17.3546 16.0227 16.2499C17.8866 15.61 19.5143 14.4451 20.6999 12.9024C21.8854 11.3598 22.5756 9.5087 22.6832 7.58325C22.6832 6.7213 22.3323 5.89465 21.7078 5.28515C21.0832 4.67566 20.2362 4.33325 19.3529 4.33325C17.38 4.43824 15.4832 5.11181 13.9024 6.26879C12.3217 7.42578 11.128 9.01422 10.4723 10.8333C9.3403 10.8697 8.23653 11.1873 7.26533 11.756C6.29413 12.3247 5.48756 13.1257 4.92188 14.0833Z" stroke="#F8E1E6" stroke-linecap="round" stroke-linejoin="round"/>
<path d="M8.25216 15.1665C7.09682 15.803 6.1626 16.7618 5.56926 17.9199C4.97592 19.078 4.75051 20.3826 4.92191 21.6665C6.23753 21.8338 7.57437 21.6138 8.76104 21.0348C9.94772 20.4557 10.9302 19.544 11.5824 18.4165M16.0227 9.74984C16.0227 10.0372 16.1397 10.3127 16.3479 10.5159C16.556 10.719 16.8384 10.8332 17.1328 10.8332C17.4272 10.8332 17.7096 10.719 17.9178 10.5159C18.1259 10.3127 18.2429 10.0372 18.2429 9.74984C18.2429 9.46252 18.1259 9.18697 17.9178 8.98381C17.7096 8.78064 17.4272 8.6665 17.1328 8.6665C16.8384 8.6665 16.556 8.78064 16.3479 8.98381C16.1397 9.18697 16.0227 9.46252 16.0227 9.74984Z" stroke="#F8E1E6" stroke-linecap="round" stroke-linejoin="round"/>
</svg>
