<svg width="27" height="26" viewBox="0 0 27 26" fill="none" xmlns="http://www.w3.org/2000/svg">
<g id="Stars">
<path id="Vector" d="M9.99076 4.33325L12.766 10.2916L18.8714 12.9999L12.766 15.7083L9.99076 21.6666L7.21556 15.7083L1.11011 12.9999L7.21556 10.2916L9.99076 4.33325ZM9.99076 9.56575L8.88068 11.9166L6.4718 12.9999L8.88068 14.0833L9.99076 16.4341L11.1008 14.0833L13.5097 12.9999L11.1008 11.9166L9.99076 9.56575ZM21.0916 9.74992L19.6929 6.78159L16.6513 5.41658L19.6929 4.06242L21.0916 1.08325L22.4792 4.06242L25.5319 5.41658L22.4792 6.78159L21.0916 9.74992ZM21.0916 24.9166L19.6929 21.9482L16.6513 20.5833L19.6929 19.2291L21.0916 16.2499L22.4792 19.2291L25.5319 20.5833L22.4792 21.9482L21.0916 24.9166Z" fill="#EBB237"/>
</g>
</svg>
