<svg width="40" height="40" viewBox="0 0 40 40" fill="none" xmlns="http://www.w3.org/2000/svg">
<g id="Finished checkmark icon">
<path id="Vector" d="M20 36.6666C21.3333 36.6666 22.6667 36.5 23.8333 36.1666C23.1667 35.3333 22.5 34.3333 22.1667 33.1666C21.5 33.3333 20.6667 33.3333 20 33.3333C12.6667 33.3333 6.66668 27.3333 6.66668 20C6.66668 12.6666 12.6667 6.66665 20 6.66665C21.3333 6.66665 22.5 6.83331 23.6667 7.16665L26.3333 4.49998C24.3333 3.83331 22.1667 3.33331 20 3.33331C10.8333 3.33331 3.33334 10.8333 3.33334 20C3.33334 29.1666 10.8333 36.6666 20 36.6666ZM10.8333 19.1666L13.1667 16.8333L18.3333 22L32.6667 7.66665L35 9.99998L18.3333 26.6666L10.8333 19.1666ZM31.6667 23.3333L29.5667 27.9166L25 30L29.5667 32.1L31.6667 36.6666L33.75 32.1L38.3333 30L33.75 27.9166L31.6667 23.3333Z" fill="black"/>
</g>
</svg>
