<svg width="32" height="32" viewBox="0 0 32 32" fill="none" xmlns="http://www.w3.org/2000/svg">
<circle cx="16" cy="16" r="16" fill="#1F1D34"/>
<mask id="mask0_927_17474" style="mask-type:luminance" maskUnits="userSpaceOnUse" x="2" y="2" width="29" height="29">
<path d="M10.5195 2L30.3333 10.5194L21.814 30.3332L2.00015 21.8138L10.5195 2Z" fill="white"/>
</mask>
<g mask="url(#mask0_927_17474)">
<path d="M8.61227 14.2028C6.75535 15.4752 5.73393 16.6882 6.04323 17.4658C6.319 18.1576 7.59632 18.3743 9.43842 18.1646M20.2985 9.54429C22.5216 9.19032 24.0974 9.36801 24.4079 10.1452C24.8252 11.1903 22.833 13.0228 19.6456 14.7278M9.06189 15.0681C8.76669 13.6223 8.98904 12.1186 9.69009 10.8201C10.3911 9.52156 11.5263 8.51072 12.8971 7.96428C14.2679 7.41784 15.7871 7.37057 17.1892 7.83073C18.5913 8.29089 19.7871 9.2292 20.5675 10.4816" stroke="#ED4068" strokeLinecap="round" strokeLinejoin="round"/>
</g>
<path d="M15.0995 23.3823L13.5864 20.1208M15.0995 23.3823L15.4113 26.1895C16.2255 25.8244 19.2569 23.8472 18.3428 21.8769M15.0995 23.3823L18.3428 21.8769M13.5864 20.1208L16.864 18.6003M13.5864 20.1208L11.6286 18.0373C12.4551 17.6672 15.9628 16.6577 16.864 18.6003M18.3428 21.8769L18.3601 21.8689M18.3428 21.8769L21.227 20.5396C22.4582 19.9682 23.5025 19.0599 24.2391 17.9198L24.9407 16.835L23.6593 16.6701C22.3132 16.4963 20.9453 16.7071 19.7139 17.2781L16.864 18.6003" stroke="#36D6E3" strokeLinecap="round" strokeLinejoin="round"/>
<path d="M7.27653 20.3411L7.27653 24.0279M11.0556 24.7653L11.0556 27.1617M5.52539 22.2767L9.02784 22.2767M9.85737 25.9635L12.2538 25.9635" stroke="#EBB237" strokeWidth="0.75" strokeLinecap="round" strokeLinejoin="round"/>
</svg>
